<mxfile host="Electron" modified="2023-04-02T22:16:16.334Z" agent="Mozilla/5.0 (Macintosh; Intel Mac OS X 10_15_7) AppleWebKit/537.36 (KHTML, like Gecko) draw.io/21.1.2 Chrome/106.0.5249.199 Electron/21.4.3 Safari/537.36" etag="A9xf5VUpOd0ePM0_Vi-f" version="21.1.2" type="device" pages="2">
  <diagram name="Parcours" id="82e54ff1-d628-8f03-85c4-9753963a91cd">
    <mxGraphModel dx="1194" dy="824" grid="1" gridSize="10" guides="1" tooltips="1" connect="1" arrows="1" fold="1" page="1" pageScale="1" pageWidth="1100" pageHeight="850" background="none" math="0" shadow="0">
      <root>
        <mxCell id="0" />
        <mxCell id="1" parent="0" />
        <mxCell id="4ec97bd9e5d20128-1" value="" style="line;strokeWidth=2;html=1;fillColor=none;fontSize=28;fontColor=#004D99;strokeColor=#004D99;" parent="1" vertex="1">
          <mxGeometry x="40" y="400" width="1000" height="10" as="geometry" />
        </mxCell>
        <mxCell id="4ec97bd9e5d20128-5" value="Stage 1" style="shape=offPageConnector;whiteSpace=wrap;html=1;fillColor=#0075E8;fontSize=15;fontColor=#FFFFFF;size=0.5093750000000015;verticalAlign=top;strokeColor=none;" parent="1" vertex="1">
          <mxGeometry x="120" y="340" width="160" height="40" as="geometry" />
        </mxCell>
        <mxCell id="4ec97bd9e5d20128-6" value="&lt;span&gt;Stage 3&lt;/span&gt;" style="shape=offPageConnector;whiteSpace=wrap;html=1;fillColor=#0075E8;fontSize=15;fontColor=#FFFFFF;size=0.5093750000000015;verticalAlign=top;strokeColor=none;" parent="1" vertex="1">
          <mxGeometry x="573" y="340" width="160" height="40" as="geometry" />
        </mxCell>
        <mxCell id="4ec97bd9e5d20128-7" value="&lt;span&gt;Stage 2&lt;/span&gt;" style="shape=offPageConnector;whiteSpace=wrap;html=1;fillColor=#0075E8;fontSize=15;fontColor=#FFFFFF;size=0.4178571428571445;flipV=1;verticalAlign=bottom;strokeColor=none;spacingBottom=4;" parent="1" vertex="1">
          <mxGeometry x="347" y="335" width="160" height="35" as="geometry" />
        </mxCell>
        <mxCell id="4ec97bd9e5d20128-8" value="&lt;span&gt;Stage 4&lt;/span&gt;" style="shape=offPageConnector;whiteSpace=wrap;html=1;fillColor=#0075E8;fontSize=15;fontColor=#FFFFFF;size=0.4178571428571445;flipV=1;verticalAlign=bottom;strokeColor=none;spacingBottom=4;" parent="1" vertex="1">
          <mxGeometry x="800" y="425" width="160" height="35" as="geometry" />
        </mxCell>
        <mxCell id="4ec97bd9e5d20128-9" value="" style="ellipse;whiteSpace=wrap;html=1;fillColor=#61BAFF;fontSize=28;fontColor=#004D99;strokeWidth=3;strokeColor=#004D99;" parent="1" vertex="1">
          <mxGeometry x="190" y="395" width="20" height="20" as="geometry" />
        </mxCell>
        <mxCell id="4ec97bd9e5d20128-10" value="" style="ellipse;whiteSpace=wrap;html=1;fillColor=#61BAFF;fontSize=28;fontColor=#004D99;strokeWidth=3;strokeColor=#004D99;" parent="1" vertex="1">
          <mxGeometry x="417" y="395" width="20" height="20" as="geometry" />
        </mxCell>
        <mxCell id="4ec97bd9e5d20128-11" value="" style="ellipse;whiteSpace=wrap;html=1;fillColor=#61BAFF;fontSize=28;fontColor=#004D99;strokeWidth=3;strokeColor=#004D99;" parent="1" vertex="1">
          <mxGeometry x="643" y="395" width="20" height="20" as="geometry" />
        </mxCell>
        <mxCell id="4ec97bd9e5d20128-13" value="" style="ellipse;whiteSpace=wrap;html=1;fillColor=#61BAFF;fontSize=28;fontColor=#004D99;strokeWidth=3;strokeColor=#004D99;" parent="1" vertex="1">
          <mxGeometry x="870" y="395" width="20" height="20" as="geometry" />
        </mxCell>
        <mxCell id="4ec97bd9e5d20128-14" value="&lt;h1&gt;Heading&lt;/h1&gt;&lt;p&gt;Lorem ipsum dolor sit amet, consectetur adipisicing elit, sed do eiusmod tempor incididunt ut labore et dolore magna aliqua.&lt;/p&gt;" style="text;html=1;spacing=5;spacingTop=-20;whiteSpace=wrap;overflow=hidden;strokeColor=none;strokeWidth=3;fillColor=#E6E6E6;fontSize=13;fontColor=#000000;align=center;rounded=1;" parent="1" vertex="1">
          <mxGeometry x="93" y="430" width="215" height="120" as="geometry" />
        </mxCell>
        <mxCell id="4ec97bd9e5d20128-16" value="&lt;h1&gt;Heading&lt;/h1&gt;&lt;p&gt;Lorem ipsum dolor sit amet, consectetur adipisicing elit, sed do eiusmod tempor incididunt ut labore et dolore magna aliqua.&lt;/p&gt;" style="text;html=1;spacing=5;spacingTop=-20;whiteSpace=wrap;overflow=hidden;strokeColor=none;strokeWidth=3;fillColor=#E6E6E6;fontSize=13;fontColor=#000000;align=center;rounded=1;" parent="1" vertex="1">
          <mxGeometry x="330" y="430" width="215" height="120" as="geometry" />
        </mxCell>
        <mxCell id="4ec97bd9e5d20128-17" value="&lt;h1&gt;Heading&lt;/h1&gt;&lt;p&gt;Lorem ipsum dolor sit amet, consectetur adipisicing elit, sed do eiusmod tempor incididunt ut labore et dolore magna aliqua.&lt;/p&gt;" style="text;html=1;spacing=5;spacingTop=-20;whiteSpace=wrap;overflow=hidden;strokeColor=none;strokeWidth=3;fillColor=#E6E6E6;fontSize=13;fontColor=#000000;align=center;rounded=1;" parent="1" vertex="1">
          <mxGeometry x="545" y="430" width="215" height="120" as="geometry" />
        </mxCell>
        <mxCell id="4ec97bd9e5d20128-18" value="&lt;h1&gt;Heading&lt;/h1&gt;&lt;p&gt;Lorem ipsum dolor sit amet, consectetur adipisicing elit, sed do eiusmod tempor incididunt ut labore et dolore magna aliqua.&lt;/p&gt;" style="text;html=1;spacing=5;spacingTop=-20;whiteSpace=wrap;overflow=hidden;strokeColor=none;strokeWidth=3;fillColor=#E6E6E6;fontSize=13;fontColor=#000000;align=center;rounded=1;" parent="1" vertex="1">
          <mxGeometry x="773" y="250" width="215" height="120" as="geometry" />
        </mxCell>
      </root>
    </mxGraphModel>
  </diagram>
  <diagram id="IyQnVspiK3DgpnHqfaAX" name="Recherche">
    <mxGraphModel dx="1194" dy="824" grid="1" gridSize="10" guides="1" tooltips="1" connect="1" arrows="1" fold="1" page="1" pageScale="1" pageWidth="1600" pageHeight="900" backgroundImage="{&quot;src&quot;:&quot;data:image/jpeg;base64,/9j/4AAQSkZJRgABAQEA/gD+AAD/4gKwSUNDX1BST0ZJTEUAAQEAAAKgbGNtcwQwAABtbnRyUkdCIFhZWiAH5wADAAgAFgAkABhhY3NwQVBQTAAAAAAAAAAAAAAAAAAAAAAAAAAAAAAAAAAA9tYAAQAAAADTLWxjbXMAAAAAAAAAAAAAAAAAAAAAAAAAAAAAAAAAAAAAAAAAAAAAAAAAAAAAAAAAAAAAAA1kZXNjAAABIAAAAEBjcHJ0AAABYAAAADZ3dHB0AAABmAAAABRjaGFkAAABrAAAACxyWFlaAAAB2AAAABRiWFlaAAAB7AAAABRnWFlaAAACAAAAABRyVFJDAAACFAAAACBnVFJDAAACFAAAACBiVFJDAAACFAAAACBjaHJtAAACNAAAACRkbW5kAAACWAAAACRkbWRkAAACfAAAACRtbHVjAAAAAAAAAAEAAAAMZW5VUwAAACQAAAAcAEcASQBNAFAAIABiAHUAaQBsAHQALQBpAG4AIABzAFIARwBCbWx1YwAAAAAAAAABAAAADGVuVVMAAAAaAAAAHABQAHUAYgBsAGkAYwAgAEQAbwBtAGEAaQBuAABYWVogAAAAAAAA9tYAAQAAAADTLXNmMzIAAAAAAAEMQgAABd7///MlAAAHkwAA/ZD///uh///9ogAAA9wAAMBuWFlaIAAAAAAAAG+gAAA49QAAA5BYWVogAAAAAAAAJJ8AAA+EAAC2xFhZWiAAAAAAAABilwAAt4cAABjZcGFyYQAAAAAAAwAAAAJmZgAA8qcAAA1ZAAAT0AAACltjaHJtAAAAAAADAAAAAKPXAABUfAAATM0AAJmaAAAmZwAAD1xtbHVjAAAAAAAAAAEAAAAMZW5VUwAAAAgAAAAcAEcASQBNAFBtbHVjAAAAAAAAAAEAAAAMZW5VUwAAAAgAAAAcAHMAUgBHAEL/2wBDAAMCAgMCAgMDAwMEAwMEBQgFBQQEBQoHBwYIDAoMDAsKCwsNDhIQDQ4RDgsLEBYQERMUFRUVDA8XGBYUGBIUFRT/2wBDAQMEBAUEBQkFBQkUDQsNFBQUFBQUFBQUFBQUFBQUFBQUFBQUFBQUFBQUFBQUFBQUFBQUFBQUFBQUFBQUFBQUFBT/wgARCAOEBkADAREAAhEBAxEB/8QAHAABAAIDAQEBAAAAAAAAAAAAAAUGBAMHAgEI/8QAGwEBAAIDAQEAAAAAAAAAAAAAAAMCAQQFBgf/2gAMAwEAAhADEAAAAf1CAAAAAAAAAAAAAAAAAAAAAAAAAAAAAAAAAAAAAAAAAAAAAAAAACqAAAAAAAAAAAAAAAAAAAAAAAAAAAAAAAAAAAAAAAAAAAAAAAAAAtYAAAAAAAAAAAAAAAAAAAAAAAAABz7T9HMSaVP1u1bdnj5WYc++vWIOrDx7tt2OP5Zy7Q820fUWzY4142uFWYepGR7V62+Bynn+uk5NWak0fea6cXzbQbc12ZrH02POM2jY5XKef66RvrT83O04krUHUs8/JyLR6a38Lbs0ybRaa3j67M3LoVyDp2rY5MhfWAqgAOU6vdv0/Kw8SR1ZsrMcvbXpUPSs0ung1kmb68haHnGv2LlLz5S8HPdfrY2L3ebm/WICm3k5pnWi2q/GazHu2WTS8M2K+p6zgAAAAAAAAAAAAAAAAAAAAAAAAAAAAAAAAAC1gAAAAAAAAAAAAAAAAAAAAAAAAAFP1u1Bxb+7NI+mzOy8/faPxjM1LpQ0W7oxJtzSswdWzT8qxTczm+l6idl59/3PO820fT3rb4HH+d7S9bXAiY9vJtHg0nxsS2Wbl1DX7PY+l4rm2j6e+bfn6Rq96NptWCbm1eDrb8x4dZ5W+nutSKj27XsciBh6GvFh0Xd81n31wKoAY+L0aDp1uPc6RscetR7mtnKzSCptSVodWM5WaTV9atx7nhm6Tc6Bj2vpEVn+ktaDGxeGpsTF9fKzTExJJ2gqsW90rZ40haIAAAAAAAAAAAAAAAAAAAAAAAAAAAAAAAAAC1gAAAAAAAAAAAAAAAAAAAAAAAAAAAAAAAAAAAAAAAAAAAAAAAAAqgAAAAAAAAAAAAAAAAAAAAAAAAAAAAAAAAAAAAAAAAAAAAAAAAALWAAAAAAAAAAAAAAAAAAAVeDq+2JK+r4Zycx+FtOLbs104torLkWi9Mes4yMx/WIKLoZtoN1o/mM6MSasWzLQ+818Yt7zXDrPsVy7Q4dZpeTTjKbWXaGPps5toKnr9icl0MOsw14tm3gzLQQMXRmZNHItHsVj6bMrJp/GcGk8pJq16Ho6sXybRRUe5k2iHjGbbscf1nAFUABVIt6fvq6VsfF9quXaOFpsydodGLZmY8jNK5HuTd9aqRb9jk0/ucDaxoxb3nA2MasZ95xjYvm5j8M62cbF5y+sAAAAAAAAAAAAAAAAAAAAAAAAAAAAAAAABawAAAAAAAAAAAAAAAAAACuQdOdm58VHtx9Nnyzl5hxsS6sXybRZGY8Ks+/MeXaH6wZxayyUmrH02cjMUfTZ1YviVmlpNPMtBhVn+mFWeSvq4tZZ2bQj6bOrFsjMcxLpVLW7ErJqY2JfGM42Jc+2vh1nkL62DSeYl0ouPb1YvPzc7HrJER7tmn5cbTZwabGbeDCpP5ZyrRGJmTS9ZwBVADXjMFTajqzWSTTjKzeWdquDiXJzTxjO3Nc3McbWazS6VUi35C0OrFsCsuRmnpiOxNK2gyc0g6bM3fWxcSY+Le2MjNfTE9JqgAAAAAAAAAAAAAAAAAAAAAAAAAAAAAAAAWsAAAAAAAAAAAAAAAAAAAAAxKzZdoQAAAAAABEx7ebaHJtEAAAAAAAAAAAAAAAAAAKoAAAAAAAAAAARdJ8y0eRmgAAAAAAAAAAAAAAAAAAAAAAAAAAAAAAAAAAAAFrAAAAAAAAAAAAAAAAAAAAAAAAAAAAAAAAAAAAAAAAANFZIWPemJNLwzqxfIzHEx7k1Loa8W1Yk8M78x6MSSN9YAVQAFWi3pK0OVmP4z5MrNPDOjFtrAxMSe1dmcR1ZsjNNjGRmm7NcKsmlbPzFjr4lZJC0PowsSbs1jqzSVoZG0IAAAAAAAAAAAAAAAAAAAAAAAAAAAAAAAAFrAAAAAAAAAAAAAAAAAAAAAAAAAAAAAAAAAAAAAAAAAMOs0VHufDxi2JWb2rvtTbmkZHtZ19eOpsyN9aMj2rzt8EAVQAFJh6WdmLRi+7NcfF/TGXaONrNJWh+YRlZ8jNJK0MZWeRtDiYk8YTN9fWz6MTF8TEmVmkTSeWvB9PTGzNYqmxcZucAAAAAAAAAAAAAAAAAAAAAAAAAAAAAAAABawAAAAAAAAAAAAAAAAAAAAAAAAAAAAAAAAAAAAAAAAAfD6AAfD6fD6AAAVQAAAGDWXOtEAAAAAAAAAAAAAAAAAAAAAAAAAAAAAAAAAAAAAAAAAAAABaQAAAAAAAAAAAAAAAAAAAAAAAAAAAAAAAAAAAAAAAAAAAAAAAAAQYAAAAAAAAAAAAAAAAAAAAAAAAAAAAAAAAAAAAAAAAAAAAAAAAAJYAAAAAAAAAAAAAAAAAAAAAAAAAAAAAAAAAAAAAAAAAAAAAAAAAAAAAAAAAAAAAAAAAAAAAAAAAAAAAAAAAAAAAAAAAAAAAAAAAAAAAAAAAAAAAAAAAAAAAAAAAAAAAAAAAAAAAAAAAAAAAAAAAAAAAAAAAAAAAAAAAAAAAAAAAAAAAAAAAAAAAAAAAAAAAAAAAAAAAAAAAAAAAAAAAAAAAAAAAAAAAAAAAAAAAAAAAAAAAAAAAAAAAAAAAAAAAAAAAAAAAAAAAAAAAAAAAAAAAAAAAAAAAAAAAAAAAAAAAAAAAAAAAAAAAAAAAAAAA+A+gAAAAAAAAAAAAAAAAAAAAAAAAAAAAAAAAAAAAAAAAAAAAAAAAAAAAAAAAAAAAAAAAAAAAAAAAAAAAAAAAAAHAOP9HtGxyISHf7F0/EyF9YAADjXM9x2Xp+HAAGnF/pHU2YSLfuOzxAAABWYOry3n+uy7Q9i6fiMu0IiY9yEi37js8QAAYdJsy8PN9H1HSN7y/FOX7y6bPBzrwWnY5AAAAAAAAAAAAAAAAAAAAAAAAAAAAAAAAAAAAAAAAAAAAAAAAAAAAAAAAAAAAAAAAAAAAAAAAAAH5+4/wBI/QPY+b0rV7sbHt2KfmYFNiTk1Kbq9zp2/wCU14tzjS9PUdbtdq6nhNmaxce3ZJ+XzzS9L5WhIt7Cpsdd6Xi8asvpXn+p6Tpm95WFi3oOLoWCXm2GfmjmGh6z3mvS93y33OKpr9iqa3Y6NveYxqyii6noOn7/AJOo63agYuh0Dc85+e+N9K6/0vEyV9XKtFwHj/Ru59b5/m2gw6zwUXQmpND1nFkn5dbg6k5Lz+ZaPrOhbnmZOTVAAAAAAAAAAAAAAAAAAAAAAAAAAAAAAAAAAAAAAAAAAAAAAAAAAAAAAAAAAAAAAAAAAAAAH5x4n0+67XCxqy9e6XivzZw/qXeOv885Rz/Y9l6XhuUc/wBjjYl6x0PHcW5fu+hbvmsu0FA0/SXXa4Plm37HFp+t29uaTk3Pp+r26zB1e2dXwfGeZ7nGrL17o+K5Bzvbd76/zofDlnP9fz3T9L3Dq+A5noeq7N1PDQsO/VNfsc+0/SX3c879KHqei6pv+PxcTVDW7Xa+p4PjHL912zq+C4XyfoPTt/ylfh6VB0/Rdg6XiqDp+jwaz9163z7hfJ+g+WbLPyq5B1O6db58AAAAAAAAAAAAAAAAAAAAAAAAAAAAAAAAAAAAAAAAAAAAAAAAAAAAAAAAAAAAAAAAAAAAAPz3xvpP6E7PzYDh3J9/2zq+D4hyvfdu6vgeI8r33lnuXV+f8J5P0K97fnsq0XONH09v2eLYJubZ9jk0vV7u7NJSTUp2r26tB1+89f53wfkfQ9ma9163z7hfJ+g9063z4Rse1IyatK1e9W4Oph1n7L0/DVuDqVPW7NWg6/aOn4XZmvGOZ7npe95Wvw9KtwdTt3V8Fw7k+/7j1vAcO5Pv+lb3lazB1qfrdvtnV8Fynnexwaz9163z7gfH+i5doet9LxntWTk1QAAAAAAAAAAAAAAAAAAAAAAAAAAAAAAAAAAAAAAAAAAAAAAAAAAAAAAAAAAAAAAAAAAAABz3S9L0Ld80BR9Tv3jb4FE1PQ1jX63Ueh5HFrNzjR9RJSat+2/Ocy0fV78x9W6Hj+T8/wBjszXou75jlHO9j0ve8rh1n1YtStXv9G3fLwUXRvW356i6noL1t+fFbg6nONL1G/MfYel4jnun6WEi6HQ9zzOHWfyzTNXu33b87DR71ln5UfTZhIt/Ti+dbXvG3wKPqd+yz8uNptVyDpx1NrBpsXba4Neh6WZeC6bPC5jo+ss8/JvO358AAAAAAAAAAAAAAAAAAAAAAAAAAAAAAAAAAAAAAAAAAAAAAAAAAAAAAAAAAAAAAAAAAAAAAAAAAAAAAAAAAAAAAAAAAAAAAAY1Zee6fpel73lQAAAAAAAAAAAAAAAAAAAAAAAAAAAAAAAAAAAAAAAAAAAAAAAAAAAAAAAAAAAAAAAAAAAAAAAAAAAAAAAAAAAAAAAAAAAAAAAAAAAAAAAAAAAAAAAAAAAAAAAAAAAAAAAAAAAAAAAAAAAAAAAAAAAAAAAAAAAAAAAAAAAAAAAAAB6AAAAAAAAAAAAAAAAAAAAAAAAAAAAAAAAAAAAAAAAAAAAAAAAAAAAAAAAAAAAAAAAAAAAAAAAAAAAAAAAAAAAAAAAAAAAAAAAAAABnAAAAAAAAAAAAAAAAAAAAAAAAAAAAAAAAAAAAAAAAAAAAAAAAAAAAAAAAAAAAAAAAAAAAAAAAAAAAAAAAAAAAAAAAAAAAAAAAAAAAAAAAAAAAAAAAAAAAAAAAAAAAAAAAAAAAAAAAAAAAAAAAAAAAAAAAAAAAAAAAAAAAAAAAAAAAAAAAAAAAAAAAAAAAAAAAAAAAAAAAAAAAAAAAAAAAAAAAAAAAAAAAAAAAAAAAAAAAAAAAAAAAAAAAAAAAAAAAAAAAAAAAAAAAAAAAAAAAAAAAAAAAAAAAAAAAAAAAAAAAAAAAAAAAAAAAAAAAAAAAAAAAAAAAAAAAAAAAAAAAAAAAAAAAAAAAAAAAAAAAAAAAAAAAAAAAAAAAAAAAAAAAAAAAAAAAAAAAAAAAAAAAAAAAAAAAAAAAAAAAAAAAAAAAAAAAAAAAAAAAAAAAAAAAAAAAAAAAAAAAAAAAAAAAAAAAAAAAAAAAAAAAAAAAAAAAAAAAAAAAAAAAAAAAAAAAAAAAAAAAAAAAAAAAAAAAAAAAAAAAAAAAAAAAAAAAAAAAAAAAAAAAAAAAAAAAAAAAAAAAAAAAAAAAAAAAAAAAAAAAAAAAAAAAAAAAAAAAAAAAAAAAAAAAAAAAAAAAAAAAAAAAAAAAAAAAAAAAAAAAAAAAAAAAAAAAAAAAAAAAAAAAAAAAAAAAAAAAAAAAAAAAAAAAAAAAAAAAAAAAAAAAAAAAAAAAAAAAAAAAAAAAAAAAAAAAAAAAAAAAAAAAAAAAAAAAAAAAAAAAAAAAAAAAAAAAAAAAAAAAAAAAAAAAAAAAAAAAAAAAAAAAAAAAAAAAAAAAAAAAAAAAAAAAAAAAAAAAAAAAAAAAAAAAAAAAAAAAAAAAAAAAAAAAAAAAAAAAAAAAAAAAAAAAAAAAAAAAAAAAAAAAAAAAAAAAAAAAAAAAAAAAAAAAAAAAAAAAAAAAAAAAAAAAAAAAAAAAAAAAAAAAAAAAAAAAAAAAAAAAAAAAAAAAAAAAAAAAAAAAAAAAAAAAAAAAAAAAAAAAAAAAAAAAAAAAAAAAAAAAAAAAAAAAAAAAAAAAAAAAAAAAAAAAAAAAAAAAAAAAAAAAAAAAAAAAAAAAAAAAAAAAAAAAAAAAAAAAAAAAAAAAAAAAAAAAAAAAAAAAAAAAAAAAAAAAAAAAAAAAAAAAAAAAAAAAAAAAAAAAAAAAAAAAAAAAAAAAAAAAAAAAAAAAAAAAAAAAAAAAAAAAAAAAAAAAAAAAAAAAAAAAAAAAAAAAAAAAAAAAAAAAAAAAAAAAAAAAAAAAAAAAAAAAAAAAAAAAAAAAAAAAAAAAAAAAAAAAAAAAAAAAAAAAAAAAAAAAAAAAAAAAAAAAAAAAAAAAAAAAAAAAAAAAAAAAAAAAAAAAAAAAAAAAAAAAAAAAAAAAAAAAAAAAAAAAAAAAAAAAAAAAAAAAAAAAAAAAAAAAAAAAAAAAAAAAAAAAAAAAAAAAAAAAAAAAAAAAAAAAAAAAAAAAAAAAAAAAAAAAAAAAAAAAAAAAAAAAAAAAAAAAAAAAAAAAAAAAAAAAAAAAAAAAAAAAAAAAAAAAAAAAAAAAAAAAAAAAAAAAAAAAAAAAAAAAAAAAAAAAAAAAAAAAAAAAAAAAAAAAAAAAAAAAAAAAAAAAAAAAAAAAAAAAAAAAAAAAAAAAAAAAAAAAAAAAAAAAAAAAAAAAAAAAAAAAAAAAAAAAAAAAAAAAAAAAAAAAAAAAAAAAAAAAAAAAAAAAAAAAAAAAAAAAAAAAAAAAAAAAAAAAAAAAAAAAAAAAAAAAAAAAAAAAAAAAAAAAAAAAAAAAAAAAAAAAAAAAAAAAAAAAAAAAAAAAAAAAAAAAAAAAAAAAAAAAAAAAAAAAAAAAAAAAAAAAAAAAAAAAAAAAAAAAAAAAAAAAAAAAAAAAAAAAAAAAAAAAAAAAAAAAAAAAAAAAAAAAAAAAAAAAAAAAAAAAAAAAAAAAAAAAAAAAAAAAAAAAAAAAAAAAAAAAAAAAAAAAAAAAAAAAAAAAAAAAAAAAAAAAAAAAAAAAAAAAAAAAAAAAAAAAAAAAAAAAAAAAAAAAAAAAAAAAAAAAAAAAAAAAAAAAAAAAAAAAAAAAAAAAAAAAAAAAAAAAAAAAAAAAAAAAAAAAAAAAAAAAAAAAAAAAAAAAAAAAAAAAAAAAAAAAAAAAAAAAAAAAAAAAAAAAAAAAAAAAAAAAAAAAAAAAAAAAAAAAAAAAAAAAAAAAAAAAAAAAAAAAAAAAAAAAAAAAAAAAAAAAAAAAAAAAAAAAAAAAAAAAAAAAAAAAAAAAAAAAAAAAAAAAAAAAAAAAAAAAAAAAAAAAAAAAAAAAAAAAAAAAAAAAAAAAAAAAAAAAAAAAAAAAAAAAAAAAAAAAAAAAAAAAAAAAAAAAAAAAAAAAAAAAAAAAAAAAAAAAAAAAAAAAAAAAAAAAAAAAAAAAAAAAAAAAAAAAAAAAAAAAAAAAAAAAAAAAAAAAAAAAAAAAAAAAAAAAAAAAAAAAAAAAAAAAAAAAAAAAAAAAAAAAAAAAAAAAAAAAAAAAAAAAAAAAAAAAAAAAAAAAAAAAAAAAAAAAAAAAAAAAAAAAAAAAAAAAAAAAAAAAAAAAAAAAAAAAAAAAAAAAAAAAAAAAAAAAAAAAAAAAAAAAAAAAAAAAAAAAAAAAAAAAAAAAAAAAAAAAAAAAAAAAAAAAAAAAAAAAAAAAAAAAAAAAAAAAAAAAAAAAAAAAAAAAAAAAAAAAAAAAAAAAAAAAAAAAAAAAAAAAAAAAAAAAAAAAAAAAAAAAAAAAAAAAAAAAAAAAAAAAAAAAAAAAAAAAAAAAAAAAAAAAAAAAAAAAAAAAAAAAAAAAAAAAAAAAAAAAAAAAAAAAAAAAAAAAAAAAAAAAAAAAAAAAAAAAAAAAAAAAAAAAAAAAAAAAAAAAAAAAAAAAAAAAAAAAAAAAAAAAAAAAAAAAAAAAAAAAAAAAAAAAAAAAAAAAAAAAAAAAAAAAAAAAAAAAAAAAAAAAAAAAAAAAAAAAAAAAAAAAAAAAAAAAAAAAAAAAAAAAAAAAAAAAAAAAAAAAAAAAAAAAAAAAAAAAAAAAAAAAAAAAAAAAAAAAAAAAAAAAAAAAAAAAAAAAAAAAAAAAAAAAAAAAAAAAAAAAAAAAAAAAAAAAAAAAAAAAAAAAAAAAAAAAAAAAAAAAAAAAAAAAAAAAAAAAAAAAAAAAAAAAAAAAAAAAAAAAAAAAAAAAAAAAAAAAAAAAAAAAAAAAAAAAAAAAAAAAAAAAAAAAAAAAAAAAAAAAAAAAAAAAAAAAAAAAAAAAAAAAAAAAAAAAAAAAAAAAAAAAAAAAAAAAAAAAAAAAAAAAAAAAAAAAAAAAAAAAAAAAAAAAAAAAAAAAAAAAAAAAAAAAAAAAAAAAAAAAAAAAAAAAAAAAAAAAAAAAAAAAAAAAAAAAAAAAAAAAAAAAAAAAAAAAAAAAAAAAAAAAAAAAAAAAAAAAAAAAAAAAAAAAAAAAAAAAAAAAAAAAAAAAAAAAAAAAAAAAAAAAAAAAAAAAAAAAAAAAAAAAAAAAAAAAAAAAAAAAAAAAAAAAAAAAAAAAAAAAAAAAAAAAAAAAAAAAAAAAAAAAAAAAAAAAAAAAAAAAAAAAAAAAAAAAAAAAAAAAAAAAAAAAAAAAAAAAAAAAAAAAAAAAAAAAAAAAAAAAAAAAAAAAAAAAAAAAAAAAAAAAAAAAAAAAAAAAAAAAAAAAAAAAAAAAAAAAAAAAAAAAAAAAAAAAAAAAAAAAAAAAAAAAAAAAAAAAAAAAAAAAAAAAAAAAAAAAAAAAAAAAAAAAAAAAAAAAAAAAAAAAAAAAAAAAAAAAAAAAAAAAAAAAAAAAAAAAAAAAAAAAAAAAAAAAAAAAAAAAAAAAAAAAAAAAAAAAAAAAAAAAAAAAAAAAAAAAAAAAAAAAAAAAAAAAAAAAAAAAAAAAAAAAAAAAAAAAAAAAAAAAAAAAAAAAAAAAAAAAAAAAAAAAAAAAAAAAAAAAAAAAAAAAAAAAAAAAAAAAAAAAAAAAAAAAAAAAAAAAAAAAAAAAAAAAAAAAAAAAAAAAAAAAAAAAAAAAAAAAAAAAAAAAAAAAAAAAAAAAAAAAAAAAAAAAAAAAAAAAAAAAAAAAAAAAAAAAAAAAAAAAAAAAAAAAAAAAAAAAAAAAAAAAAAAAAAAAAAAAAAAAAAAAAAAAAAAAAAAAAAAAAAAAAAAAAAAAAAAAAAAAAAAAAAAAAAAAAAAAAAAAAAAAAAAAAAAAAAAAAAAAAAAAAAAAAAAAAAAAAAAAAAAAAAAAAAAAAAAAAAAAAAAAAAAAAAAAAAAAAAAAAAAAAAAAAAAAAAAAAAAAAAAAAAAAAAAAAAAAAAAAAAAAAAAAAAAAAAAAAAAAAAAAAAAAAAAAAAAAAAAAAAAAAAAAAAAAAAAAAAAAAAAAAAAAAAAAAAAAAAAAAAAAAAAAAAAAAAAAAAAAAAAAAAAAAAAAAAAAAAAAAAAAAAAAAAAAAAAAAAAAAAAAAAAAAAAAAAAAAAAAAAAAAAAAAAAAAAAAAAAAAAAAAAAAAAAAAAAAAAAAAAAAAAAAAAAAAAAAAAAAAAAAAAAAAAAAAAAAAAAAAAAAAAAAAAAAAAAAAAAAAAAAAAAAAAAAAAAAAAAAAAAAAAAAAAAAAAAAAAAAAAAAAAAAAAAAAAAAAAAAAAAAAAAAAAAAAAAAAAAAAAAAAAAAAAAAAAAAAAAAAAAAAAAAAAAAAAAAAAAAAAAAAAAAAAAAAAAAAAAAAAAAAAAAAAAAAAAAAAAAAAAAAAAAAAAAAAAAAAAAAAAAAAAAAAAAAAAAAAAAAAAAAAAAAAAAAAAAAAAAAAAAAAAAAAAAAAAAAAAAAAAAAAAAAAAAAAAAAAAAAAAAAAAAAAAAAAAAAAAAAAAAAAAAAAAAAAAAAAAAAAAAAAAAAAAAAAAAAAAAAAAAAAAAAAAAAAAAAAAAAAAAAAAAAAAAAAAAAAAAAAAAAAAAAAAAAAAAAAAAAAAAAAAAAAAAAAAAAAAAAAAAAAAAAAAAAAAAAAAAAAAAAAAAAAAAAAAAAAAAAAAAAAAAAAAAAAAAAAAAAAAAAAAAAAAAAAAAAAAAAAAAAAAAAAAAAAAAAAAAAAAAAAAAAAAAAAAAAAAAAAAAAAAAAAAAAAAAAAAAAAAAAAAAAAAAAAAAAAAAAAAAAAAAAAAAAAAAAAAAAAAAAAAAAAAAAAAAAAAAAAAAAAAAAAAAAAAAAAAAAAAAAAAAAAAAAAAAAAAAAAAAAAAAAAAAAAAAAAAAAAAAAAAAAAAAAAAAAAAAAAAAAAAAAAAAAAAAAAAAAAAAAAAAAAAAAAAAAAAAAAAAAAAAAAAAAAAAAAAAAAAAAAAAAAAAAAAAAAAAAAAAAAAAAAAAAAAAAAAAAAAAAAAAAAAAAAAAAAAAAAAAAAAAAAAAAAAAAAAAAAAAAAAAAAAAAAAAAAAAAAAAAAAAAAAAAAAAAAAAAAAAAAAAAAAAAAAAAAAAAAAAAAAAAAAAAAAAAAAAAAAAAAAAAAAAAAAAAAAAAAAAAAAAAAAAAAAAAAAAAAAAAAAAAAAAAAAAAAAAAAAAAAAAAAAAAAAAAAAAAAAAAAAAAAAAAAAAAAAAAAAAAAAAAAAAAAAAAAAAAAAAAAAAAAAAAAAAAAAAAAAAAAAAAAAAAAAAAAAAAAAAAAAAAAAAAAAAAAAAAAAAAAAAAAAAAAAAAAAAAAAAAAAAAAAAAAAAAAAAAAAAAAAAAAAAAAAAAAAAAAAAAAAAAAAAAAAAAAAAAAAAAAAAAAAAAAAAAAAAAAAAAAAAAAAAAAAAAAAAAAAAAAAAAAAAAAAAAAAAAAAAAAAAAAAAAAAAAAAAAAAAAAAAAAAAAAAAAAAAAAAAAAAAAAAAAAAAAAAAAAAAAAAAAAAAAAAAAAAAAAAAAAAAAAAAAAAAAAAAAAAAAAAAAAAAAAAAAAAAAAAAAAAAAAAAAAAAAAAAAAAAAAAAAAAAAAAAAAAAAAAAAAAAAAAAAAAAAAAAAAAAAAAAAAAAAAAAAAAAAAAAAAAAAAAAAAAAAAAAAAAAAAAAAAAAAAAAAAAAAAAAAAAAAAAAAAAAAAAAAAAAAAAAAAAAAAAAAAAAAAAAAAAAAAAAAAAAAAAAAAAAAAAAAAAAAAAAAAAAAAAAAAAAAAAAAAAAAAAAAAAAAAAAAAAAAAAAAAAAAAAAAAAAAAAAAAAAAAAAAAAAAAAAAAAAAAAAAAAAAAAAAAAAAAAAAAAAAAAAAAAAAAAAAAAAAAAAAAAAAAAAAAAAAAAAAAAAAAAAAAAAAAAAAAAAAAAAAAAAAAAAAAAAAAAAAAAAAAAAAAAAAAAAAAAAAAAAAAAAAAAAAAAAAAAAAAAAAAAAAAAAAAAAAAAAAAAAAAAAAAAAAAAAAAAAAAAAAAAAAAAAAAAAAAAAAAAAAAAAAAAAAAAAAAAAAAAAAAAAAAAAAAAAAAAAAAAAAAAAAAAAAAAAAAAAAAAAAAAAAAAAAAAAAAAAAAAAAAAAAAAAAAAAAAAAAAAAAAAAAAAAAAAAAAAAAAAAAAAAAAAAAAAAAAAAAAAAAAAHjL3hi3xouzIm3GfGXvAAAAAAAAAAAAAAAAAAAAAAAAAAAAAAAAAAAAAAAAAAAAAAAAAAAAAAAAAAAAAAAAAAAAAAAAAAAAAAAAAAAAAAAAAAAAAAAAfCH2KzOvaInxtwElDmF2KzWvYAAAAAAAAAAAAAAAAAAAAAAAAAAAAAAAAAAAAAAAAAAAAAAAAAAAAAAAAAAAAAAAAAAAAAAAAAAAAAAAAAAAAAAAAAAAAAAAAAAAAAAAAAAAAAAAAAAAAAAAAAAAAAAAAAAAAAAAAAAAAAAAAAAAAAAAAAAAAAAAAAAAAAAAAAAAAAAAAAAAAAAAAAAAAAAAAAAAADHtjFkZVGRTIAAAAAAAAAAAAAAAAAAAAAAAAAAAAAAAAAAAAAAAAAAAAAAAAAAAAAAAAAAAAAAAAAAAAAAAAAAAAAAAAAAAAAAAAAAAAAAAA+ERsVlYLVvcriSYn9S0nDmG2KzOvYAAAAAAAAAAAAAAAAAAAAAAAAAAAAAAAAAAAAAAAAAAAAAAAAAAAAAAAAAAAAAAAAAAAAAAAAAAAAAAAAAAAAAAAAAAAAAAADxkIuauuyb1rDxl7wAAAAAAAAAAAAAAAAAAAAAAAAAAAAAAAAAAAAAAAAAAAAAAAAAAAAAAAAAAAAAAAAAAAAAAAAAAAAAAAAAAAAAAAAAAAAAAAAA+HzL1gAAAAAAAAAAAAAAAAAAAAAAAAAAAAAAAAAAAAAAAAAAAAAAAAAAAAAAAAAAAAAAAAAAAAAAAAAAAAAAAAAAAAAAAAAAAAAAAAB8MGXGfFnRbFb3K2LUtk0zHy4kIsgAAAAAAAAAAAAAAAAAAAAAAAAAAAAAAAAAAAAAAAAAAAAAAAAAAAAAAAAAAAAAAAAAAAAAAAAAAAAAAAAAAAAAAAAAAAAAAAYcmMyPOPbEXPiY187MZw5MZkeQAAAAAAAAAAAAAAAAAAAAAAAAAAAAAAAAAAAAAAAAAAAAAAAAAAAAAAAAAAAAAAAAAAAAAAAAAAAAAAAAAAAAAAAAAAAAAAAAAAAAAAAAAAAAAAAAAAAAAAAAAAAAAAAAAAAAAAAAAAAAAAAAAAAAAAAAAAAAAAAAAAAAAAAAAAAAAAAAAAAAAAAAAAAAAAAAAAANVsba5wJcV7bradG2+udNsbq5AAAAAAAAAAAAAAAAAAAAAAAAAAAAAAAAAAAAAAAAAAAAAAAAAAAAAAAAAAAAAAAAAAAAAAAAAAAAAAAAAAAAAAAAAAAAAAAHwip6y0Fse2ILaxPaud9cxE9ZeCwAAAAAAAAAAAAAAAAAAAAAAAAAAAAAAAAAAAAAAAAAAAAAAAAAAAAAAAAAAAAAAAAAAAAAAAAAAAAAAAAAAAAAAAAAAAAAAAAHww5MZVM+8AAAAAAAAAAAAAAAAAAAAAAAAAAAAAAAAAAAAAAAAAAAAAAAAAAAAAAAAAAAAAAAAAAAAAAAAAAAAAAAAAAAAAAAAAAAAAAAAAAMGTGLJiX17fQAAAAAAAAAAAAAAAAAAAAAAAAAAAAAAAAAAAAAAAAAAAAAAAAAAAAAAAAAAAAAAAAAAAAAAAAAAAAAAAAAAAAAAAAAAAAAAAAADEvimdGlx5982PIAAAAAAAAAAAAAAAAAAAAAAAAAAAAAAAAAAAAAAAAAAAAAAAAAAAAAAAAAAAAAAAAAAAAAAAAAAAAAAAAAAAAAAAAAAAAAAAAAGPbEHtYndXO+uQAAAAAAAAAAAAAAAAAAAAAAAAAAAAAAAAAAAAAAAAAAAAAAAAAAAAAAAAAAAAAAAAAAAAAAAAAAAAAAAAAAAAAAAAAAAAAAAANFsbq5+gGvIxsxkAAAAAAAAAAAAAAAAAAAAAAAAAAAAAAAAAAAAAAAAAAAAAAAAAAAAAAAAAAAAAAAAAAAAAAAAAAAAAAAAAAAAAAAAAAAAAAAQ+xX7h6Z9YabYmde0RPXEkS+vnLpkAAAAAAAAAAAAAAAAAAAAAAAAAAAAAAAAAAAAAAAAAAAAAAAAAAAAAAAAAAAAAAAAAAAAAAAAAAAAAAAAAAAAAAAAAAAAAADya7YxbsyNFT4z4s4kiShz7wAAAAAAAAAAAAAAAAAAAAAAAAAAAAAAAAAAAAAAAAAAAAAAAAAAAAAAAAAAAAAAAAAAAAAAAAAAAAAAAAAAAAAAAAAAAAAAAAAAAAGkAAAAAAAAAAAAAAAAAAAAAAAAAAAAAAAAAAAAAAAAAAAAAAAAAEAAAAAAAAAAAAAAAAAAAAAAAAAAAAAAAAAAAAAAAAAAAAAAAAAACdAAAAAAAAAAAAAAAAAAAAAAAAAAAAAAABFR7dT1+xdNnhwse9YZubg02My0GRaOsQdXdmlhm5sTHuVyDpfctVb5t4N+Y/rEZTbuezw6DqeiumzwqzD1YuPbsU3N1YtlWixayiEi37Vscil6vc6lv+T9ZwBVAD4UKDq2uTQzbR+WdqtXj3Zq+tDU2bFJqYFZZS0H08M+TfmuPi+5UDwz8PTERXYl7a/hnfmtUi3rNJpbM4p8PQnb61Ri371PzIOmzmZjkrQ/DfmurFq5Ht2STT1rUuHo26XQyc08Fbj3cnNJ6+r4Z9qmfDPtgfDdmoAAAAAAAAAAAAAAAAAAAtYAAAAAAAAAAAAAAAAAAAAAAAAAAAAAAAIGHoVTX6++0dJ1e7Z5+XFR7clfV6p0PJc40vTY9Zekb3l6nrdiVk1Klr9jErNJyauRmOLj2uhbnnN9o+V8/12XaDFrNPTc+k6vdtOxybztcDmOj6rMtBER7t92/PQsW90Td819AKoAaMWosHUlLwViLdiqzydod+aQtNmbvrVqLdtc2hkqeGajF0LNJpdK2eNwzR9PdZ+b7Y+sRFNjMtHXY9vGxe5Tc/DrJdZubyHU9BZpdKySaeHiSuR7cvaCoRdC8zcuOrNE12NbPYtvz3K9XuVmPd6TscaWvBF0niqz6sZqMXQus3Niaz6cW3ZriVknpNXRi2HiT6WC+pd5+aAAAAAAAAAAAAAAAAAAALWAAAAAAAAAAAAAAAAAAAAAAAAAAAAAAADXiwwKbGzNfLOVmLDrNJyaujF/OM+jfaOGi3ZC+v7zXTi+rF8asuRaKRvrQMPQmJdL5jP01Lb8xx1NrOtriMpt+1dGJJ2Xn+s4AqgAI6s31j4zvU8s+Gdua4+L6cWy8x6cWyM125rg1llLwQ9NjbmuXmOEptSVoPR9PJsYx8XlLwRFNjMzF6y9semPDMdWaStDi4vlZpg1llLwR9ZfbHwzrRxVJ8rMfln6bs1xsX9sfWNS2VmmHiTaroxfJzTLtGAAAAAAAAAAAAAAAAAAALWAAAAAAAAAAAAAAAAAAAAAAAAAAAAAAAAAAAAAAAAAAAAAAAAACqAAAAAAAAAAAAAAAAAAAAAAAAAAAAAAAAAAAAAAAAAAAAAAAAAA//xAA4EAAABgMAAAQDBAkDBQAAAAADBAECAAUSBhQTBxVwERY2IBA1YDQxMjchJTCAFyIkQERFUJDQ/9oACAEBAAEFAvf3dAlMEau2zpNVUZLdmzEnuN3xYobrrEC0Lbu5WavblK2uqxLkOuIO2IqgRe4ANFqcySM0hp3w2dVRqFtiKGhimy+PcQIqVO7XSiIHfBbGVFHfsRNh0XZSrBDl0ATHbcFX1o1oAAG/YibDq7CX8aBFSp3a6cZALyv2InaOZsxJ7rU2Ed2UW8J17jV4XLCibCXYpw0CPDN+WLDmLooWrit8VNnH7YQYw5alyQFtZhntdrv41/29heOcMrbFmVoN6ELKO9W4I11iWL1xk6EGO++SsrDduGGQIWJIhWErNp15gwGVBtLoKwecuQCY5YyGcA2lQPWXilAbA5cgExxrooCTtbRp2hrtgKuaZvypYc7ek69w92XLhbBZsM0JW9LGzZm/Klh2PQRv562QAQdtjUmRLU1WjnLQ0ZHPUBQoIFtOsgCAM3MuKa1onUEis2Io40YPeJW7BThimbdhIx/j8wXFXYrQq49WkS4OIYzq/ZoWpwzW1KEhMoZFPWgVQUcHdUpx9DXNFEpblteaGpDA77ACnKOCuzrHljULU4ZrakLhly1RVCO0o0ZHPUAZUUPakJJXGTxQqFHseKA4M+aKkTImvvMVJoLULIAR+yEyQzNZO1w3MIWDHqSDVYR+0ZF5y9XrwvADXHSxMlbNPDa2K8GtJ1QprTadg553MOBqtwG6wFQuTGKa+4yh/ZiQthSWJ19sIcJ8d1TBBg190VeYvzJZ9RbnCfHdKUUotkdW2pbEqK4khJK8yhD+bH0Er7++Ffc0diAI/Y0JJXma4NoJD+zQwxgt0HiDZOsQUGdZgtUc2EWaAeDMCuswWqKeYE8YVj4FZZnAhQwxA7AIR4p8IEYuYYaDHHYWCcaQeycDzlnGwioLLAMSV1h1hBGQhTY1iCA5x0NgHqAahhnQxWED/aACaCAJAG2GFW2AREVHIfVuJYw0yHbr8CfgL2F+Rw6oAytqXuLqC4XgJtrh1MucbPhVoAAgri/aKxgNXXfxIDm2F1N2aBEgRkHaZcxoJEwio/8AYJAqZrbdWdhVhDxyvK4UMRylQACvp5oUV+ut/Z+3YKIMJ1hoWYfa+ET3YAXMBhlxBmtep9CxYU21pcAwAAWBMoM4QRoTDR1ph3gL2AcjhgXli5VliC8T1APMY4wF4ooYkGsAQHOsAg2AHAzD/UQcxTwYQvqwHhimwwg0PBqCyxBeIFY5m/zUMV8a5DCYChQFUOACPKkTLHFC6ZHbAAR5Ui8s0BmJgUJr1L2YxQUaGBXWCMDd6vWMcGlmG9waiKZsbFqvImAnOTB3rBNrnkAA2fAQRVFPYnKw+KKClc1/dWuVhYAIUAELI1YAgvSsKIrSp0cYMeoY9ktWOEKQoMpQV43URELPfW17xAiZ57LAMyEIXOKvjnhTzEUuXeyrr2qwidAVp0YDxKsAfoafFFBAKoI+0f8AsVbHB19lk06EeaIIRKo6MQVhKvIhNKXIbha1v7P2hH+GGVr3eAwuMGCCbQd9a5WFgSrhaYmjx18N7Ko41TDvDBeFXqJ0WYLjBIwM426FBlKCmBeqvMBOUEZFDFGB8E6oP+kQRfFHxMp4bvVgi6AgBhuS1ABchR5Z/gODa8qYCcoLXqXsvzcOWaO7/gcGLi4DSwf/AJ3hxUABpcP2eHGQuCAXGOBM/wBsAAbBMq6xLMgxkIu06cR5FRWoIpgJsDOBGYEO0IoCZCMNSwLK7+hWscZJV5lwwIR0AaBHgB3usCzIIMwJgRkIdqWBZXDmwSyuNgsBMGmiEC54F6K53QAK99U+0BDNnjDQ2vMggBhDMHYfNOLBoQf8BjQRaHBv5egz+tToCCjmwS0MWgILXjILDRtjzwZ0urvZY2B1FitiGCCfEQcu8dhw8CxPSg3oXHsBwjBE4I0GzyBMCEzTxBS6+EAgjTNgrUTWv6FfWAm6oR7jlU5S48JGXIZLmSwJdjXFg0EaZPq1E1w8rAzS2D2lc/EgwwRgn/3RfwEcZha1EXwT7mgBhVw7zAFmA97UtiqtQZhQ+ify7/rAkawqgrClgeGDeWNisHe78YLj84nsv8PtfD4/8IqW5m/1vh+TckmSTJJkkySZJMkmSTJJkkySZJMkmSTJJkkySZJMkmSTJJkkySZJMkmSTJJkkySZJMkmSTJJkkySZJMkmSTJJkkySZJMkmSTJJkkySZJMkmSTJJkkySZJMkmSTJJkkySZJMkmSTJJkkySZJMkmSTJJkkySZJMkmSTJJkkySZJMkmSTJJkkySZJMkmSTJJkkySZJMkmSTJJkkySZJMkmSTJJkk5XzlfOV85XzlfOV85XzlfOV85XzlfOV85XzlfOV85XzlfOV85XzlfOV85XzlfOV85XzlfOV85XzlfOV85XzlfOV85XzlfOV85XzlfOV85XzlfOV85XzlfOV85XzlfOV85XzlfOV85XzlfOV85XzlfOV85XzlfOV85XzlfOV85XzlfOV85XzlfOV85XzlfOV85XzlfOV85XzlfOV85XzlfOV85XzlfOV85XzlfOV85XzlfOV85XzlfOV85XzlfOV85XzlfOV85X/APp8/VP1+1G1Dmhdv+SjkODXunLXngrIn9u0OmGb/wDaGGDLhhCsHDtjAxSt1azO2tf/AENiuW0VXXaqc2cEfQjNahRBEK/dbGBilbq1mdta/wC0IcACGm13dnUiw8IZ2vZQqIwT1/XK83WV3srsX7wpuQ4QGueX4QgWtt2AqtwX2+uOWdvfEqMMv5jVYwoQrBgzJkImB/kWo8Y2cBP7/ZWINSTrzwVmTs9gKVBiWm9VlYNWb5WWQ+7bGT4Nd3WsraV54IMhVWxe5K2dqVqC7PMiscIUNgngLbYCtMNZbzV1o9PfE70L7vMMiIbodX2wicrkVHJLnZyFFAPMisFEefBYQqrYvclbS4K0xcv5jVYwzHtFYFtleIKnmLUqMIeBDI3Oykju01e311ubtr8pSvtbYvTFdf2QlXbEW2Aoaqqu0AuClxsBKiZXbxV2L6LYC+wA22wFKR8B2AoPbGDAZUETzHrGC11kXtS3sZt/jfO2G3wPTT9sZDDaEHdkRLTfSFMQpgdTLt2a4PV5eyLaMZEJWW+jCH7WvpylYWMkgSPmLvn0vpn0xv343u9o+rotNowayoM1pU2JvAAfy3qJQATXL9PhQeXP08UDbtm5ClARgNfVde3DzP8AiotdTlq4hrgTa7ffuVPilp5eV54Q1V3GjOLXoRqh0WuS2FMlADoVyCwtrflz9PGrQif3A/tOuWRPy7OKPT6/WB2e67lXgGNf0N/j6xsJcJm9MKghO8yP0oQJgrdULhP3HYw2Ba55e/w1rXSSbfsF3SlT9V5Y/h3mT+lSr/eR5g2CCWJbbNcKFdTPFQ9r9jNk/eB94P7zxQ/FC8vjHpx0UVgAWktdZbHun8t2kMRorLEVgvmRvn0tpf0xvg7H7F5hEXm6DVbEOyohRmAN3j6W01fjrOwfgPlz9Pa8IlFuir8JWP8AXfMDzJ/SpV/vI+45Ylq9f1zcjQJbXdVrRBtJ8tzrWlFX4JdisH13y5+nqlgFXufphOFWlmTTvrDafp3y9+m9lXHfJ5kfpU1L602f6e8v0y1ny/MpWWliMwuQ8sfw7zK/SZSDsM+Ym4tSt2YMgRFYGATLmPYyy1P1DYPvZrOG0S/1IvdiLpB87K+vAqytxUF7skT0qxJwtooJK4siAdoRIafa1zTHl+EIYc1HtMaK8uZK6QIIZsSIdkRJ6KfLBuqm+ia5SfL9ff6yV2ANdKsxmU9MWoyuy6x8wiwrrHNsn3XlCWvyzdQvK2F9GMnjTGNDZd6aFZGvkqwOx1QGlLrlJ8v19/rZXYAvlG4VKSkAoSlPrHpNxakfU67Xqb0Gt2nVfmBavVjJc7sms/MAsqNZ9LurMl6jX69Teg1uxaYFdGF1Ew8r5Y/h2za4HsZQvq1o4Oq0wKnurGuAtSjdMsSMotWZTmPcA0xRC2jUpulJf2rYrMVmKzFZisxWYrMVmKzFZisxWYrMVmKzFZisxWYrMVmKzFZisxWYrMVmKzFZisxWYrMVmKzFZisxWYrMVmKzFZisxWYrMVmKzFZisxWYrMVmKzFZisxWYrMVmKzFZisxWYrMVmKzFZisxWYrMVmKzFZisxWYrMVmKzFZisxWYrMVmKzFZisxWYrMVmKzFZisxWYrMVmKzFZisxWYrMVmKzFZisxWYrMVmKzFZisxWYrMVmKzFZisxWYrMVmKzFZisxWYrMVmKzFZisxWYrMVmKzFZisxWYrMVmKzFZisxWYrMVmKzFZisxWYrMVmKzFZisxWYrMVmKzFZisxWYrMVmKzFZisxWYrMVmKzFZisxWYrMVmKzFZisxWYrMVmKzFZisxWYrMVmKzFZisxWYrMVmKzFZisxWYrMVmKzFZisxWYrMV/wDpxCuRHQYyGXnqAMDEaMyNej09wQwnsNw2K0E16iWld+hQoE/L+4sYdoDe1IAO0dvuEsDGeIaeuLUKinIYA8FCK5NhQZ6u9wVYiuemTAWmwgnE3mhvuYxGJ7hqqJMk9xP1RppBBoMGj2o4dql3PeDADaCe4SFmtGgqOVGvRHBqjmQEs0L+4rxW+JDQYr0DOva8EVBw4GK0VPcEMs4IzBnKiNJOVwIXghwsWcjvcNf4zjCjGIG33FMjiAwM6K8T9fuMYGDCY0Fj3EwlBL+4ooLBkbXjsUFHtD9w3jhhqi/FPveI0NGCMFT3AOnVLNJBMUNjOU2c/wBQnhtKm4WDaYh1yFBAB/H9wFajkFeobQQ3vFEDaK0asDVpZwjgkQQo74IIz3KyWZLMlmSzJZksyWZLMlmSzJZksyWZLMlmSzJZksyWZLMlmSzJZksyWZLMlmSzJZksyWZLMlmSzJZksyWZLMlmSzJZksyWZLMlmSzJZksyWZLMlmSzJZksyWZLMlmSzJZksyWZLMlmSzJZksyWZLMlmSzJZksyWZLMlmSzJZksyWZLMlmSzJZksyWZLMlmSzJZksyWZLMlmSzJZksyWZLMlmSzsFnYLOwWdgs7BZ2CzsFnYLOwWdgs7BZ2CzsFnYLOwWdgs7BZ2CzsFnYLOwWdgs7BZ2CzsFnYLOwWdgs7BZ2CzsFnYLOwWdgs7BZ2CzsFnYLOwWdgs7BZ2CzsFnYLOwWdgs7BZ2CzsFnYLOwWdgs7BZ2CzsFnYLOwWdgs7BZ2CzsFnYLOwWdgs7BZ2CzsFnYLOwWdgs7BZ2CzsFnYLOwWdgs7BZ2CzsFnYLOwWdgs7BZ2CzsFnYLOwWdgs7BZ2CzsFnYLOwWdgs7BZ2CzsFnYLOwWdgv5BtTDylXWB29hXeOwqFsR8WurGise8q8y4yGYCFdL46OXAoLL1aplrZBVFeEWuzYWwnjleStDVhQFFshvmq1PjFbE4WPI7VTZ+xBMC84Ff6rcEDxxtcQ1yzNmBL68O1l3b2Ty62loP3kydkAZ1+xGsBAbEZ+01xi0tzDSh9CloYtiZxvxRv2lX4IVN2GwQkwwXACHDHb0hJHvaG31EV9+REGcTNWbkuegLxTVqAUOeI1Zmiq0Zj4GOGMs6AvFyTJrkdHORiNFY94o4YCOEaxh65LESDBGiIGOGMs2G0UjVCCsBajkcm0HjZElXH2WFdrt0atLFpgJ4jBT3cRtQD7/ABg1jRw3CRwrGv16xeeogxGisMGGFC5N1tcglvFBKhisFYhgJVubEQAybFMlCKOQNHGAmsUViMaKx7hTIQEEFYCxRWNDCGDHb+aL/wDAqCiDGpbIcsZtVF8Ty7PAEi1yfEFCDtA68q2OccsdiolHqtgDHDGm3EBbCkJXhI8U3BWHSNjWhU9ob/2u626oY2G9ONubIsKXVowrAArSpqi5KyHN2wNi47V3j2NF3MR7iB025Kba+8t4mv1BewNVRIMhulKUIDnFPkKOp1xobIi/FPtDheOBqhwMpX29oR4Kx3hbaBWlh9dOqwzCwZUHa1VPk8QAiX2u7NFzNNclSot0Z8Jmy1QjRrsrXoX0iuIIEdl2aLmaYsInzdqT2igbr8PQDpciVug2ljGxhFkOk7HwjFHeNCL65XEECO2zhWVdgXqmafdBiD7Jr5fkA2j9k6ohMwVUMhsBoYLww2o/btbKkQTlXXItfWEUcVlaCQMDlUeJT0ZRShq7JOsaigtgDFZcGS5ywagIOxcBcLRLwkXH2Icu8xsR4lkQsCDQb60K8+tjkS9dtFYCSNHD4TRbsSqyIa4YRw35oEDaKwMNgIZisKGxeAt4BeuKFBGABhvL1ZMmLAgAwEeWCEFCADA+4alIGBhCwIzRgQzAY5MAyATri1e0WkrhhCtaUIuVPijaCtYP4AaDDlwjQXgB+MKTLjjCBMGYVqSRF4RcIvELhIOJR1wwiU1egPy/VxrUY37ZutKn56eV5S9aUKKhQBoQpMAcuCQKl1QoAhcCsJlVWmIOEMkS50MesJmgwSYBeBAhgBAVRMqNFpiDhDNYTOPBLhF0v64S0rS9cVKCGiBY8gpEsOAFXlQC5YmASDAqiZUaejkPiZKAHQy5UEoGKAGPFDar0ADQUOmIBKgAaDenFeoIAMBEqiSGYLXFRx+IvzFSJci2GqkkdEcUAeXLEi5MPiLqWeAGIIaIFjyITLo0yUAOhtrirAHABvFNVhQ68ciXMg+lkucqTAJB++H/xABOEQACAQMCAwQFCAYGCAQHAAABAgMRAAQSITEFE0FRYXEigTIGsRChFMHwkUIj0RVw4TQ1MyAwcoJSQ2CAwvEkNrJEU5KgFiVAUFRi0P/aAAgBAwEBPwH9vvI3EU0khFdKMfuvLw9OZ0YeDU0+TcL5v0zixJCNlYr50p8TbcqyFB4ah+Go1fdcPL5pohMKBa0qTS8nGkxJOnKN75CA3MYgfH4G8ObMyckRSrqQneo7O+tNrXCbJmkTE9IL8K0sctmLMtRReJqKD199yYUsUio9PS4Gop9/C82LJizI4MYrQU0jb/L2jx8bhH/y7IJ46l+uwK7C5eWzxKWNKjiKio8xc3K+nixzhxU1r6Q7O7x7/keWaDlmMcfidVdvG85dWFHPkLplJ7qVXvI87flkyozAg6eIBBIteW5DRCfbSRWtftv4WvK52UFiqk8AWAJ9VwYMsydSoVe8mlnCnGQMYj0j9dpiSyNIq/gBJ9Vry3IaIT7aSK1r9t/C/wBWy6AzMoJFaEgGnyPLNByzGOPxOqu3jeahkw45p10yk04UqveR53k8tyMQfmim9OO58h3W3KshQeGofhqNX3XiQvBy85MLKHLcajhThv2+HG0wMjIHVJA1cKkAnyFxYEsqlyQorT0jTfuteWympLKADSpIoT4XDFJH10Cq1Bv208RcXLppUD1C14VIFfK48GeWc4wX099vK5eXzQxdY0I4GhBp50teT5LELtUio3G/lcOJLO5RRw412A87w8V4M+APQgkbjcHe8n+nfzP9hiBI1VJP9J8OA+e+hIZeiBvbYrLT0h94vJxfo8nomo27d7mhkeR/RApxAtI2K9QcBYxTNLJrotOz7dlpjsZNPGnHfb77lhlllA234U4U/dckJjFag+RtVLsFXjcOM0Ql1U9k9tx47yLr4Dx2t0aNircbwdfQmMY9LawJGjc5YoKbVFDW48d5F18B47WuNIzmOm4uCAx5EdSCCeze5cSQa37vHe0xZHUNtvw343Hiyy10jha4zuSBSg7a7XiQlMjSd9jw37LfFkjTqdnnaYsjqG234b8bIoaH/XvlkiRmbWaVjYXjZkK4wmc/mxAhfGvD/wBO9xZUcOPjMd9LkkdvZcUUePm/TmmUoCW47nwpxr33NMj8tVAd9ZNPVfNZEkMOg1pGo9d8kkSLmEbyGg34+RubNyZaq8pI8zfLZhCmRVqEoQPvFwaMrB+ihgrhtW+wO1OPfea0cWLFiBgzLUmnAV7K208X68WXWNO29dvZHbcciDByEruWX67xJRj5EcrDZSDeRJJWSWN4tJrvtqNeyntVtkXJ5fCFcApqrU040PyS5rRctxkglo3pVofHatL19aUGdj4njcS42I0wXQF0sAddWPz0+a8yYNiYsYatAdvXedAvMJzlRSqFanE0I8KfosqmdiRRxuA0dQQTTia1Ffns5MKZmKmqojoC3Zx+AuONcd8t5JF9JWp6QNan7eN5swfDxo1bgD8bgKyxquaY2QD2q+mNth37eXyS5rRctxkglo3pVofHatL6jySB5DU+N5mWg5v9JrqUMPuFxRR4+b9OaZSgJbjufCnGvfbSo3LWWu5krTw0mzP9JjiaEx7KAdWmop59l480z9TU0bgsSQ1Bv3itONqVR3jxTG0VfZY+AqRWlhsWKTLWBvRK7b+XDvvIiTmIilikUUUKQTSlPq8rjzIW5p1Vb0QtKnatFpW8WRF5fkoTudFPvNzTxnmGK+oUAj7eHfcGTH1MqEFauagtupoT6vK1lePJxxOyABq+jTbhxpteQQZnI7z/AF0XUwW58tepRFBC7D1W00Tv1K06i0PgbkgMQqWHqNbzAGl6wYUNO3wuSdUzTIN1+q8gpFpgjNQN/t6r1o2XL6XtAi8ciIPCSKmniL1yq6eko493z+d5fT6YJAD1/D3XhSLFOrNwuKMQCXU43U9txydSBETTVe+nzVvIYtJ6RB8uF4zhMeYV32+No4yITFId13H6Ljk6kCImmq99PmrfU19SJ2FTTfs27Lhj6E8Zdhx77hddc5J4g/G+p1VQx6dhTenZ531fyZqtuSPXcVJcfo1oa137bxVGPONTDge24WUY0qk7+jfU6qoY9OwpvTs87lJaRiTX/Y1iZkxCycdX1W1Xxy8o37PGxjSFNfZYxZD593bccLykhey5Md41DnhYxZD593baQMw1cB42iMusUB2+1LfF0xK9R29o+a2V2VBp4/PbYzqCeNLTHd11jhckTRNpa442lbSliIx48ladlh+pIgUcKCxC8rNpHC2xnWh2ofG8nG6LUU/pt4nSLTt499pjSSAEdtiBmfQu5v6M4bSaffbQMpAPb29l5GP0H2NvE8krClPgLkhaMVPCxhymg7/GyKbG8cGpO1O2tyxmJqG8LeX1H4X1Pyun41uTrhI+iNtI7LrIchBNxqLzFElZV7DQ/VbhOtFr4UFzHLjrq9n5riAhh65FSdhb5MkilX3tRL0VOL6++tozPkr1ONReT/Tv53HC0m44XDil5hG/28rdOmaVuIMXGnjeRGR+Z2Hu4VteNzuIsiTx2vDDdKUoN9rlbK0fmDbyuXrhY+iNtI7LZQJItQ9Ku/33JJP12RRUV4UuJEXP0pw/dZ4/2EVFADfivptq0dtmIjtFyxdNtrdGLNtwsKaar6WtmrtaxnVS2R2a2TT22AWNBaRlNVe69XoabbqBV6Y7LYO76W42YWAJvpGlrGWFbVWGoUtYmbhYiYmgtoygrfRalrEzDVfQetLCMxpfTaoHfZhYAm2hogav+taS6MQhWodX1Wzs+7GtzODFEAeH6bkVZZusHFPnuJhM8zDaoNmkEBQmpJuRVlm6wcU+exKZCxXSVJ4G6xK0wQ7UsgSY6UI2raTInRJPYfVcajH1OzA7dnbZYfRQte28pg2ih/CLxGUFlY0qKWFEUEilhU0vGIWZCe+43UGbfiDeofRdNd9X1XMQJxkVBG1yM3pMpWnqr+m1UaY3PtAd9PmuDVDkfmbHf4Xjoj6tfHzpeSV6KKKdvC8oBpOqCKGlyOkjyx6uPDut6RQdMmpJt3U5ERrsNNzGsjEd9wRxshJpXxNLzGU6NNOHZeGwWWrdx+HyTJ1ljKuNlHbap0pk1MOPfayquQ4b2WreSqPKqBhwG946tjNqdhp8+NxOskXQc07Rf9HCyyEeHC0gbZo3H30uSRWyYzXhSpvJIMzkd9wSVh6YpWtd7STTkIZCNu65I+maVvHRHej3KVGOU2rXsNbXjeWQ07EXi0MUqVAJpxt8cqtdY++8ianSMbcFFkxmaOZTxO/heTO5lYB9vO8FgmQpY/alnj/XAqaW8o1bDhZdSdVfaFtHpFa3MKtrBtnAnLdlyUWiKbqDM2/G4zp1JtdWBG4uXTp7K+FwsEcE2iiPVUjh8jrrC0YcO+1XRItTaMNT+Rtdx+ZSnz2rakAFNu+9Xt6j2WBsrdvna1TWG40uo6NPG2Ys2tSLJHRA8bZhrT1WHGpx32CQ66qWjDU/kbpqiG/Cv+t8cpjDAdu3/wBD9IqBrUG5JDK2pv8A791a+0K2zFzU/sfjQyOEHbckkcDdONQadps/mv6A49lyQyRe2LGNMeC2kTyGiC4ICs2iVew3pJGrssROaUHG2hkioXW3jLSlUWnhbxPGaOL+jTAE6eH9jMQkmkKLlQKwpZjdeItonUVIsRSHgLCljQWyMvEX0n7rWNn9kWI2J003tEIkCsLeJhU02ug0ja2UCYiliBymoXEhO9K2EZjsLZSpobiQOd+Avqj/ACi1Rn9kXGv5gVr0jQ58b6b01UtY2f2RaQO1R3WF01DLaRkR69NbMb+1T9i8MnSkD91y4zu5eH0lN46mN2jOzU2tY2ghcS7V4W7H6TD/AIbZTIkkcfHV8140bxzAP3G4FL48irudrpJGsIUb+lc8SqofTpNeFyem80a+0bKmKDRJxrtdSeYH1/D+xlmaObwsARzAnhfppwW5EGksVobdHZlK9wskOZAnE3QpHpfjW6/819u64qlKFai+kC7Adl0p0/O1Vkdnbhvf+iHnf/iDaqXhovfY9KMALWlguSwK1uZQjUFwsBVW7b6EndekyRqEv/SIO2/wP521S+tFrekyRgJcSsGKnjS41Khwe6/9D67ddQLOtD3/ALMHfX/7Ejk8cCcqfIkiDFdXEDsv9e4//wCGnzfouFOWc7BjROlL4fbf5rycd8WVoZOI/sMSCJuRyylBq33pv2f10RpG0IKm3Ro20uKG8OKObISOU0Une+b4uNhzhMVtS07we/u/seWYJ5hkiHs7fK8nnGPyljjYEQ24n7bm4/eKHK/Lz4QR33NoMrdP2a7eXy4cUc2QkcpopO983xcbDnCYralp3g9/d/XWCV0MiqSo7afJyfAwsxXOVJpp4gfH5MdYeT8vTMeMPI/CvZb8whmzkypI6KOIF80yYMvI6mMmlaeA+H7FuWfyKb/F8Pk5HG8nMI9HZv6r95HV+YNp7ALPLZxiLmfhP391y8lzIMY5UooB994XLsjmDaYF9fZcvuxmoupSG8Af026NGxVhQi4onncRxipN/wDwxn6NW3lX7D57hgkx+RzRyrQ7/VeLiyZkohi4m8nHfFlMMnEXictyM2N5IuC8fkxPd/Ny06myjxvL93s3FQybMB3XyHleR14s2nob/WL5nyLNysuSaMCh8bXHdp/o49qtPXwvMw5cGTpTcbxcOfNfpwLU23uvmhahlJ7q/uuaGTHcxyihF4fLZs5HeKnocbxfd/Oyk6gAUeN53Lsjl7BZxx+75fdrISHN0v8AiFPXfN+TZMGQ8kalkJrtZFNj8mDynK5hvCNu88Lk9181VqpU/bytceQzjHp6Vaeu8zDlwZOlNxvEwp85+nAtbk92M1F1KQ3gD+62UoSrcbfk2WqxsBXqcKffZ92M8Jq28q/YfPa48jTDHp6Vaeu8HlWTBy2bGcek1afcLy+S5eFF1pgKed4fLp88OYfw8bw8OXOk6UPG+ZcrycnAgx4x6SUr91Ll5bkQ5IxG9s/XeXiS4UvRm43g8tyeYGkC+vsvJ9383FGogEeF8w5bLy1wkxBr3Xh8tyM8M0P4ePyPy3IjxRmN7BuON5nEcYqTa+6+aVqSoPdX915OLNhydKZaH9hvJOn+p5Ot7PpV8qXq93+5rbnmLhxmPlkWkntP2NsxdizcTeBkJickTIcV01p56jS8jOys5/zXJr2dn3XzmU8qxIsDHNK8T9u+8fJlxZBLE1DfvBEmRjw8xQULUr91b93UTGxpuYMOH1Cvz3k5uRlydSVt/twuKeTI5BI0pqRtfu7/ADKP1/A3z3+Yy/bsF+7n8Hk/bsN8gxFy80B+C73zzmEmXlPHX0FNAPK4sqeFWSNqA7G+QSP+sIkrtv8AA3zqaVeYSgMeP1Xy7fOh/vL8b95/4/8Awj67mY8m5Qgh2eTifn/daTSRv1Fb0u++ZAcy5SmefbXj99P337p00z18PrvKzZsqczs2/wAL5m5yuSRTSe1t9Y/qYnvNl44CSjWPn++4cvl/vADDKlH+f1G5eXvDm/QjxqB99+8OUcNY+X43orTf7fG4ppIG1xNQ3gu0vMIpH4lx8b95/wCP/wAI+u4cTJx+UomCPTfcnhx+1Lx+Uc4xZRNGu/mP037zQCPLWUCmsb+d8yy3xOTw9M0LBR818jyZYs6MBtmNDfvEvT5ixXwN8skc8lyGJ33+AtppHFGYm/df+jyfV/vWrshqppfOJHXlOKwO/o/9t8sZn5hCWNfSF+8v8wPkL5nOeS4MeJj7Me34n13gZ0+NkrIGPHfxv3s/iI/L6791v6LI9X1/Jl/9Pxer4m/dvGKwS5iLV+C3LybnE0vWdfS/vD9N84x525ZHLlj8xDT1fan7DeV/yKbyf4f1H/6bX7fiNo2hg3dfvJH9Khizot1p8eFojSMEQVJvnxGLy+DB/Ft8w/TfIv8AmuW5GIvtb/ONvnFspQlW43jIye78moca/G/d7+ZR+v4G+e/zGX7dgv3ejZcCdzwP6L92shYc7S34hS+b4zYubIrdpqPI2iNIaIK3yD+ZRev4G+eCnMZft2Xy3+Oh/vL8b95/4/8Awj675kp5hyiHIi30cfgfkyx+r+RLjye0/wCmt+639Fker6/ky/8Ap+L1fE/LBizZOrorXTv8nI4pJc+Pp9m58r5xlJHzhZR+DTX1X70QEyplrurCl8bwEaPPhVxQ6l+N+8/8f/hH13mNJl8ohyMdj6HGn3H7d1/S8j/zD95uUzNQy18K3zz+U4v+H/tvlH8fD537y/zA+QvlW/JMn1/AfJ7r/wBHk+r/AHvk5z/KMX/D/wBt8p/j4f7wv3kNOYk+Av3kiOXjRZsXD9N4yNJOiIKmt+9n8RH5fXfut/R5Hq+v5M+NouQxq3Ha+Rk5XLp8OM0fiPt5i2yMlCVZ2r5m2kyJI6sSV9dP2G4vOfo2C+F066q717/Cn9Rua15aOX6OHbXxrwp9fycu5zNgL0iNSdxsc/xYPTxcUK3f9v3Xk5MuXKZpjUm8LNlwJhNF/wAbm59hz/mPigv4/wDC5feGSfEfGlTdu3u9VPrvFyHxJlnj4i8jneDknqS4tX87j95JFR42jFDsANgPmsEg1Fx+8CyxiPPhElO25ufosZiwoAle37fvvGyGxZlmTiLn94cWVur9GBfvP/CxmH6YMxhvq1U9db5pn/rKfr6dO1O++Xc1n5a3obqeIsc+woz1Y8QB/V+i83Om5hL1Zj+6+V82/VqyLo1avGnf4fJLzbq8vXA0cO2v1U+Xl/MZuXSa4e3jZ51yzK9LLxt/Cn7rk94IceMxcui0V7bZix1NxvA55JixfR5l6kfcb/XuJB6WLigN32M1zljMk3NQb5pn/rKfr6dO1O++Xc0n5a1Y91PEX+uuX16gxBq9X6Lz8+XmMvUl8hS87m30zEixdFNFN69wp3XiZH0WdJ6V0m+ZZ36xyDPp0/PfKOb/AKt1I66la8vm8MkLQY2OEDce++V81/VqyLo1a/Gnf4ePyZvNfpeJFi6KaKb140FO68Sf6LOk1K6TW+ZZ36xyOvp0/PfLOevgx9CRdaWOdRLIBhQCMnt7fV3X72fxEfl9d8q5o/LJSwFQeIuTm+CG6kGKNXj+i8znj5uH9GlXfvr9VLxsmXElE0JoRZ57h5Hp5WKC3f8Ab998w5u2bGIEQJGOwftBiYLIrHvv3gzoM+ZGgNQB/wD1amv7SK2P9o+v7SR+0bf/AN+jT/aTP7Raf7a2JGs2THG3AkD57ymwMad4egTpNPb/AHX02mYmJTT775bjpk5HTk4UPzCyjKKkXKsIjQx1r214eq2jdBVhT5OXwRSu0mR/RoKn4AfffMcX6HktEOHZ5Hh8mJivmTrAnE28vLYW6axFwPxaqV8hfLcfHyZpta1VVZgPK8SLF5jL9HWMox4GtR6xf0WP9WnJ/Frp6qXiY8c0E8jcVAp99wS4xCxmDU39473zeHFxmWGFaOPa3rv3XGnUcJ33k/QsKc4zwE07dRB8+7yuCE5Mywp+I3zPFgjVJ8T2GqPWD9d8vwMfKxCX9tm0qfGlR994eKsnXEo3RSfWCLxMSLotmZXsDYAcWPd+m5psOSMiOHS396vxvmONHjLAY/xICfM2+NGOWpkj2i1PmvJjwsJIdURYsgb2qcfVZmxeqGEPo92r66XiR4M0UmRLDpRf/wBjue4WeO39g8cOJ6Eg1N270pchR2/KFLZWX2hehu6wCdhfRUY/Ubjqp81yhQ5EfDx42kI6EjsNxT570NTVTa0geRGcdl0N0vSRxFlWXiPk0NTVTa6dt0pdK8L0kCtqrN7IsAk0Fx48ksgjpQ2QRxsqy8R8mJCJZlVxsa/CwpbYXwvCijlc9XgATc0RikMd5eNHBEunjwNlGAqRZWHp0HHv+q5IHiALdorek916WArT5NJIreXEIsho47IKmhtFLsFXibkGNjt0yusjia0t9LP+WNrKlTQ3obuvHhDK8rCoW0CSSE6du6+PAXoYmlLoa0sqRubVGb2RYUsaC9JrS2Ursw/1p5d/GQ/3l+N8x5g6ZcqdNNifwC8WOaLGWTqsqsTQKCd/vF6dPPTpG9Pn0XjyZMuJkjMJKAdv+au1K3jqjNgiTuannU0+e8RsqUzrm10aTWvYez114fIBj42AsU5IMnpbU4DYcfvvmAiy8GPJhqen6Brx8LaN0pqFK3ybITGzAZNgajyrc+BkQS9JkP6fK+ShoJsgMNxG2x9V42U+bjyQRAJJx9EAah2rt9jcP5vKJI04q+o+VKXh/l4OTI3A0A8TW+XwnCxzzArVjsg/3vVcqSg65Qd++0RpGCLxN4mZmySph5cescKMNx67xY4MN8jJJ9BaopHHfu8heMMbLw5cKAkkemK07ONN+61YrykMvHq/7tqBkRTcwT8cZDeDCnx43CDm8s+jxe2jVp3jw8r+jzaS+g0HG+Y5suNHjLHT+jXiAfiLy53yOUxu/HWewDs8LzpsqOLGECVHTX8Ib6jYx8rPyVjZaM3hT13zMs2nExkPTTw4ntN8P66nSwa86MvJ103Vrx4Jupt6JpX1XN6WHUkn0u3ytppFyYUU7UW46p9IMXtD4V3tzI2Ipk/zfVf/AI2Yr7VDTzsNM+JKZa9nG8ZHSdY5HJ8OylPt2XjvIsEyoTtT42mo4surjUXOCsEAPj8beXXn9NvZB4eNP03LLqR1IY+fZ83yYyOk6xyOT4dlKfbstx/yYp/mN54KtGD/AJRfLf4gU8fhcbyvBL1/Z8e+yZExozB41p32X6bhnU6ivpU4jx87h1JPEyuSrV43jFnyU6+/n9u+5ZdSOpDHz7PmuAKZVD8K3E+Qc0q9ab+XheMVXFJFa13pxp+i8p9bA0I27e28L/Sf3WuOkirlN+Dj6vZt9UuPH3ljaK1ZUkctsezb7eqzthqR/mPwvMeVkj3NNIrc835kUTbLRa/vuaX03Qqx4+Xw7PkmaZFiWCumg4d/bb0E2QRXVtw407byZOoi7HzN40ghmWQ9l5UDrKSBUHgbx0eOOXSKPt50s6mxg03Gu3131XbmDRE+jvt6rxpHXGm0twp8bVwmMhGrtrTv8bikpJNJpp6Pb6v+NxSlsdpGqWrvTjTs9VwPryVah9k8e3jayvNiy9Q1pS5mlRI+hXTTs7+24jpgdmrqrvTjYn/M1aG9mle3z+q8xaBHDEg9/H/WlWKEMpoRbMzsWY1JuPKnhUpG5APcb+kTa+prOrvrvcmTPMoWRyQO82ZHYAE8OHhcuXkTLolkJHifkeR5N3NbWV1UorbHj428jyU1mtNvV8iZ2VGnTSVgPM2ssiElWIraO0ba0NDaTSxP1EYhu+5smbJNZnJtc/LRQqSsAPE3LlTzik0hbzJN8LPMcwp0zK1PO+o+np127rjkeFtcbUPhfUfR067caeNpPLGpRGIB4ivG1ZkOpTQ3NmZOQNMshYeJt5HkpratNr6jlOnq9Hu7LXPy0AVZmAHib+nZWrqdVq99Tf6xzf8Azm/9Rskk1P8AYRzSRew1L6smrXq3t5pJPbYm+o5Iau4sSOrawd7aWR/aYm9b6tdd7aaV/aYm/pEwAGs7eNpI8ZqhpazSoSysd7aR39o1tmLHUx3tp5XGlmJHyfSJgANZ28bSaWMURiLZ2f2jW8WZYJdbeNvNJIKOxNpLJF7DUsSurag29tLIzay29vI8hq5rbTyuNLMSPk+kTbemdvG0keM1Q0t3aQ1c1sMy+ybqaUvU1NNdrORM3Fz996mpprtfWk0dPVtbMze0b68unRqNPkWaRV0KxpfUfVrrvbyvLu5r8iTyxiiMRYkcNrB3t5HkOpzW+o+rXXewzAEA8bSWSL2GpfUfc142kjxmqGlmaQtr1GthmAKg7G0mkjFEYi1kdG1Kd768urXqNbeR5DVzX9uP/8QAPREAAgIBAwIEBAMGBQEJAAAAAQIAEQMSITEEEEETUSIyM3AUYTBCcSAjNIHwYIChQ5HBJEBQUlOgsdDh/9oACAECAQE/Afr71ItQPxmPJ/D1N4Tp71sWnnpGyqp0+MRxkFrOq+SZkXGialNGeYEUF55y1BkDCxMZQ4yzxvmr/XsMysYua3K12Cq2Z9X4TGayFVO0GZSannLq0+MOdY2UKanmLp1+ELgUfWecurT4zzluh2Cq2Z9X4TGayFVPtiZkf4Z56TIwbLoYbQ5VT2+kbKoNcw5ljMDpN1GzKDUORQuvwi5VZtM+4SNkVRcyOGxNUT4R+RkskkeE1CtU1xH1iKwAEJHE16VFQttFZQsDXCa3MZ9WmvWFwNoDe4mStS3NrGiFwNprAFxmtDFcbCFwIXVeYXAmRrS4HBNQuB/jzMCdNeoj4216RwYyFnceojEtj8rTvFUjNf4TACNV+pnUgtiIEXGi7gTMuop+2NaZddbVMYJdslVNLfbaa3//AGEHzVMddSlYoGwINwHRlaxzXYYw2Zyw9JWke0Ql3C3fPpMa1kczExxLoIMs4nYkczQxxua5hJcIAPETGtZHMawScdg/6dhjDZnLD0lAChMeM+RojEtj8rTvApGb+k06CQ1/0jKorkTcgF7DfhPewxlubik4bBEONhgqv7uOD5qH9sVT5TivWMhpG9IQCj6QYnwj987CLj23M0kCvQwNcx7DTAt46iWbYyiMaxvdTSlIOxmO7/CZBqWhGOqqEIpiTE4ji3WEaWsQimJMqqYCMdSmhGBpZWkm7mn3LD7X1R/euwjD3rK0k3cXYf5NTRybwbNSzWLqaxCwEDA7TWIWAhPED+6oCN4HBhcA1AQ24hIG5mq2EqgZqCiawYj6hAwJuFwJqFXNY5gYGK+oQMAsDAzzB2eA3MnwyvdcGmzqm2g6Zj22MF6WqL5Z4h9zaYEA4h06jrhoIaifCIWAjPS2IDcPG8Q+HZRaiZK1C4ui9oumzqgOzVxAF02YxPlWfyW/+Je1y4DcB2ly6EuAgCA32JupW9wVvcFAbTUJqhNdtQE1QG5qEuahLlzUJq3/AMVlbfeAAcRR7jASq6ah9oWfE1wEqumpVVNyFucOYVJ1QnXsBK99xPGOPGXqYGP8JhHwz9cX4dMA8DcJ3Ije5No5I4iXqMTjTACApg9zXAPaYvAjE3MfjMm47KdJNiE6lMKnSPWJYBNRvfsBvCCG1CcsCIWHBEAOgxPhEYe64R7DUBuOSBtFvXfbHsoj/EDA1+EVebm+krEUUNpl3T8kLKPEu4vFSvbBvvP0iHfebReYwsQm67Da4dxD4Q/hPGek9Yd6qfqleBn6oODK4ngYfCcH/F5F/wDcdHoYBX/j1QCvo+TQuAFtyZwN4GB4mtfWEgcxm9tiX4SxAwPEBoWTAwPE1r6/kruLimWJYM1DtdzUISBLEJ22gInjB8M1C6hMsCXcY1NP4wkCHieIliEgQsBLhO9Sx9F2GoVFcAU0c2AZYZhpg+BoNiCfSOQV2jGnFzY6orEmuYNgpMvU1if7X5KqCs5WbHxgO9QEUbnFXOTtP0Q88zVtPWXYoT9U/RCaaeM29YpuMJqE4O88DPETwomcHeE7XDvU/VAa4+mAFf8AsSOoLHOEBqfav/6hjHN025OoRGDrqH5GRm+5Av8AfJA3MBB3EyEqhKzA75Ftx+Tmy+UmqJ075xrymHpGTfE0W6F98hKoSswO+RbcfvllBont1GXJjI0DsxbqMpxg0BBiZcRQGYUZFpz9Fs380v8ATt1JAxG50YIxbzzl1+X4wdTjZ9CzJlTF8UHW4yd4De4hYKLM+9xXGYP1KlY7jGupojh11CPmXGQG8e2Tq8aGuYnV43NTqsyaWx+Mw9VjTGFMLALqmPIuUalj5Fxi2n3uOKwYWsyZlxEBvGP1eNDUx5Vyi179YpbHt4TB1CMoBO/fLnTF8UHW4zzNY06/CY8i5RqWZMi4hbQdbjJnMHUYySPSfe4rqFwF1eEy50bMrjgROpx5DpWZMy4q1eMyZFxDU0w50TKzHxgzKyaxxMeQZBqWZMyYviidVjfaYsy5hazJmXFWrsMyl/L8YSFFmHrcdxHXILX6G9Tf3A08z/tX4T7Z8hvM0ArYTKpydSVETGmMbCdOPPc5XjIrimnSMVZsJ8J1ZLuuIRMaoKAjKE6oVOr+SZ03yVnWfMSdVkOPHtOmxBEB8TCituROqA8omdOoOJdpm+W37J0Xyoo+4znVwIVBFGYf4Oc4vCdfysTGqLpmEaOpZR+5k6NG3G0bHl6X3A7RcobH5k6RPMJyvGUMKMyisRA9J0Xyo2RHzk5eBHz9O66SZ0TWlekwoH6hrnUoDiM6TfCLmYD7hBNIHE63lIRfM6cDz3/vxmYViap0fyphX7nKXfiZcSuhFTofhM67lOyfzZnWPbDGeIOo6dRpE6dlGYhOD9Dc/wDMr/T9wfzh/vwhFip0Z0M2NuYTQszpfflbJOq9mZckG+8c31YnV/JM6X5Kzqz/ABVE6xdWOx4Tp3D4xCQOZ1XyTOm+SszfLb9k6L5Uw/wuoZW8eyfxep1DgTruU7J/NnuzqnxdupYLiNzp0J6evWdE2xQ89spvExHpOi+VMdY87I/jNC+kXT+mdN89/wC/GdR8pp0fypn/AJlO3W8p26f+Yf8Avxmf5TTo/lTozodsZjkBSTOh+EzruV7YjfVEidT7Mq5DxAiHwgCA7fQ1+n15Rkv9zyP43m32zdOuXfgz7V22d9oiDGNKzJjXKulovS5F2D7RekCuHBjoMilTE6bKmwfaHowSDfY9JRvE1RelJN5GuOodSpi9I49uvaeX/D8uYcXkrpuZsC5uZ9rkOxfaY8S4hSzPg84jfjsuCspy33y4VzCmn22ZPgeDpGY3ma5xMvTBzrU0Z9rkb43nljy/LEw4vJXTczYFzDefb5ePM2mLEMQoTHg8ty98zIutSsw4vKXTM/T+dRB3mPp2DBna5nwecRvx2x4PLyF75jrrUrMOLyl0zN0wynUNjPt2r+I1zofhMz4RmFQdPk4Z9pj6YY8msGOgyDS0+2yLsj7TF04xnUTZ+oLbidLibEpDf/a01dlQtxPKeEFTR7EV9QiwKbdsYLIwE8l/SZvjPZ2HH+YxVLcTy/xEZSvP1EKgLtBNa4/YIjaqImXah2dRz9Qr8II3lsb3gyBFpO5N/UWvqLopbPZTU9h9Y4AO3ZkrcfULXYo9lrxhEPO/ZnLf5iqNX2QqPiFw4wRsv+sZdJrsQRz9Qi4K9lEOQegjHUb7O44H1F8xoTf1GRQ3JqHGoGzfUdFJO0LEbkn/AImQ6mv6jKxXiHKh5v8A5jVft+ogVjwP3QCeIQRz9QcePXUyMb5hOtLPImPYFvGWXQluznR7BMY8wabjLp+oHEAuMQBpWAldxFzH9W4jhQfbPbk5NGcH/OnkOlCREGV1Dav9Jeke4zM5RLEsRdVm5YPHbKxApeTMT+YgbtkcY11GAZmFlqmZmRVrm47PiGsm5rPnaPCpkcqygeMYPzq2mBncFm4hNC4nmZF1hozaF1GYXY2r8zLldMm3EyORp0+JmRzq8tOYq5Ad2uYXL6r8DA584p4VEOTIWpuDNL1WreOcqsEDbn8PyQWfcbCCxzLuWO2o66gut4W9wAliFgDX7l9rH7t12LgC+19sjUtjvkJA9sU6hcxuWJlie64GDS5ffG1rZ7E1vBrfe6g2G/a47UQBDYHax3sDvd/4py/Lb9kxYgcamz/zHKlyNNn8Zd9Lv/e8YIrp5fP/AEjkjzK/CZAi6fL57e58pZfDaYrx5SjeO8BB4nUIXx7RcqMNVzqaZVr1EdBjcM24je3qAT6TJvlQCZW8xvKvbxgK8CE0LMfHjCnIhqOWyBU8eY+tMi5G/ZOc/wDT/rD7GXEfA/6Rv4ebWeDNa8XMONXLk+sxqFzkD0mJUJfUfH1mtMSWDMNfMc7n8g7zEaGk8iMy1F+ZAoKMf2w76NXEFeYa9J/trKUZFqOQVJAjgaluGtaxfiaBaxWIo3B27OQVJAg+Z/SYvH9szfBCFDLpmxc6pVjb1jbq20fZDpijcHaNek1GCeXtH3eIKmTw/bDtaesGzmEjYgT/AHDMYUE/tirsW8d4o2B27LpOrVB8KxBRMcalIiMCI5BI9JsH9s0jyrjgF1hFuYRsojCmqMKQiEBci1F0knVD8Q9Jp2q5jPIr/FPOxgFbCFFY2RNC1VQIq7gSgIEVdwOwAHEoE3AAOOxxoTZEKg8wgHYwqCKIioqfCIcWM7lYqKvwjt5OO70yhdwgMKMoXcKqTZEIvYxcaL8IgAHEoXcOLGdys8tKqp5OP/yj8kqG5mkVUCgcCUJQIqaQOJQqoFA4E0L6QgHmFQeRKA4nECqNwO2hfSFQeRKriOuoUIFA4hUHmUDtNIAqAAcQKo3A7aF9IQDzAAOJV9qmhfSV4zSLuVU0rd120g7yhVQADjsVU8iUOIABxKFVKhUHmUIQDzNI4lQqDyIQDsZpWqqAAcfXH//EAFQQAAIBAwIDBQQGBAgKBgsAAAECAwARBBIxIRNBBTIiUaEUcWEQI4FCkVKxcMEzcmKyU3PRICQVMIJg8PEGgKKDwkOTdJKz4TQ1NkBQdYSQw9DS/9oACAEBAAY/Av0+4UAcx83Mjj1KfO9e05J0yQKy5HwZe9WfLkudc0KTsrHgmok2+61L+2WFzpXIaIiIn96mxWEr5AQPy4oyxI+qhPjtqS9uIsQfI1mlSVPg4j98VJkY8/suWqXiaKY3Z+gtfjWHL2ieRJMAG8lbTc1E+mdnlvy4REeY1uunyqWWPmMYuDxcs8xT5ad6ysvOjydcgY5E5DgEa+AB+7auyVUnQYJeH3USTYDrUarzQkh0xzNERG5+BrKxGx5+WnLCEY7XF731eQ+XbS5niVBDoDORbw8ay8XDmafs5Igxu+sRyX7oPuqKMpkQiU6Y5JoSqufIE0+Jd2yVcJy0Qk+/3cd6kVUyJ0jOl5YYWZFPvoQaZZ57auXBGXIHmafOWS+OgJY24i2/CsV3Y6cl1jj4bk7U+Jd2yVcJy0Qk+/3cd6dEiyZlR+W0sUJZAff8u2lzPEqCHQGci3h41mY2JM0/Z0cIc3fWI5L90H3UBjs7jRrLaPCvvPnS/tlhc6VyGiIiJ/eqPByYcmXGSEty0jaxfUPFw3Hxo46rM6wACRooy6xfvGliVZcqRk5mnHTX4fOo1WLJmlZOZyo4TqUfEdK7NkM+TjcybwIAV1n8LCpItM07R/tOREXEfvpc5pb4rWtIvxr2Uc2OUrqTmxFNY8xepH+mZInKSMkRIS3nUcrsWEvCNYxqZ/cK7UMXMjkjiYMki6XQ2rG/ml/L/AZWRjOwHZSq4APB37zf7v50mc8mnHZQwPvp/wCzZiFV16Xx2uw+FXljlikIe7rEypwNuB86wP7RNOmQdEc03FmPxpcVmYSyozDT0A612b7OcjNSaRRzpY2cspPH/GoS3kgkl8EStCder9zepG1SryT9Lz1PN1HzHxpk5GRAwF/poit6eaVgkaC7MeldkckTx6s2MjmRsgdbHauTplnmtqKQRlyo8zSTQtrjcXBrsRcpwmMTLr1PpXujesJexJ+bKZRzo4pC8fL6k9BXJ0yzzW1FIIy5UeZqLJ5mqOXhHoUlnPkBXaeiOfHkjhPCaMoaw4DzQ0qhUkaMhHNujVJHaWTlftWijLLH7zUQmltzVLoQL6tv6agZllMk4ukCxkyH/FpplEsGieMMJUKEeIV7MObHKV1JzYymseYvUkdpZOV+1aKMssfvNBlOpSLgj/Lvs3lxtJpzoWbSL2F96fGjjJ7PznSWdui6e8P8ay120iq0az4axpIR4b+LrX91L2dkJmNGISHjtGn8LVtapZGRygwkj5xHAm/nXaXMjaPVnSsuoWuL71mRQxtLIdNkQXJ8QpHjwseKQDvLEAa7ItE0qJlqz2W9hY8TX94GCXIxpMfkkwrqaMg328qzu0WhfGhlVI0SUWZrfaI6VLj8iX2i0n0Wg6v2h6V2VII3MaQSBntwG1ZWOjaWliZAfeKxIJ8ftbnxsl4izmJSDvfu2rtAvjzumUsPLeKMsvC4Nz0+XbEuXhLNCVi5bzRXU+Hja9OuJCilVJSNRpF67PLjPkmXJieWH2XRHHx49L+tdtytEycx00yFe8NPSk7Pnwcp54SQDBCWWTjuD/TWfNNjTywZeh0khj1kEC2kgV27IYGifNLvHjnvd23H4muwY4cTK+hyImlZoWUJYW6121M0TLzJE0uV7w09Kmfste0sbMaW/s5jJx5DfifL1+XbEuXhLNCVi5bzRXU+Hja9NHDGsa2NlRbClwtBxp5IGWzixDG+9f3UvZ2QmY0YhIeO0afwtW1qhfS7RL2fy+bbhq1jr51mx5S9pfSztKj4Zco4b93rWKVi7VwZUgVEmxlLeHojWvWLNnr2li9pcqxycOM+IXNgwHX+mv8AV98qJ2yFydUtk2FmsT5dKzYJ8TJm5k7zRyQRaxIG/I++hA8JaZ8gSmFBq0AyXtXY0qxs0aLPrcDgt1Fr123GYHEsj5JVNPFr7WrsPJMeSUxodEqY5KyrdRxHXpXa5xYc95JMfRqyg133sFvx/wBNY6sLERqCD7v68kgRpCiltCC5PwrVPmZUU2ReWaNCANTb9K9k5Esy9mZomjBH7aLjt5kXrQmNlRi1y80JQD4caPZ8mNkJNHzbs0ZCd4nf66gxWVoclY9SahYq4NxWX2jkwPBLIghjidbFVA4/e167HJx5S+NPFJJEEOsANx4V2f2gsOZyYdaukd0lF/tAb9KzWOJ2lkI4RWMobW1jw0348KlRZMybs/l97OSzB77C+/CsiGEa5ODBPxWINq7J5ODloI8tHkMkJXRvWZPOM7k5Gllkwy3CwtpYLSCKOaJLsdOR39+tdiNyWkiQy6zpuq+Hheo8zFhZ8bItFkxRLex+y9vzrMnnGdycjSyyYZbhYW0sFrsvOx8XJeDHaXXDILy+P7Vv8967RjgxckHkkLzIius+QG9dgKkLnlZMJcBe4Ap3rNTJXtL6WZpUfELlHDfu9a7DKY0qwQQOPpBfl8BYH40vaBgknx3x+QeUupozqvt5U/KxMgfTR+GSIgsNQ428q7HkWNmjQTa3A4L4Ra9ZqZK9pfSzNKj4hco4b93rWOiI8SKgASTvL8D/ALGqrL3ORe1/jUceO5aMqeYmq4XyoxcTIDbSBej3yq8DIF8I+ukLtwc2FuNNGNSyDjpdbGj3yq8DIF8I+ugoDyMRqtGL8Kxm1yR6n4AcL/A1LEY30jTb6M+tZTGZjpPi17L7qVbOmrul1sGoxHUZLX0qt61xm42oySHSorDsHXg9w6kdKyi8jIGYvqQ8VqHWxs3AE9akAEmtOJQob/dQLqytx46SF386EhLm/hjJWyfVTBtR0d4qpIWuawZEvbxC1a1EjLewsh8XupyA907yafEPqrxKytY+IKQN6ibmPIG7pbizUVGpXG6OLGmPjIU2YhCdNAjiDSj6TmboY1uRWpTfoeFrGuHDxr+dc6/DRpt9dZftUgDc5rXcjhWQcY3TQ3ENfpSQOSVkQSRk+orO5VzLzX00mg2nHmxD3oYgYpGq65NO5+FK8YZCPJjxqZc/z+j1X06amERunLYg3v0rH/cFKp1M7bKguaaaIFjtxU8D8auFdf31tTcwEptYC9cks+teNpFs1qb3Vh8e6Q5N6whK2mI6tXG1DkOGkG1pCazPaXUMJmtqe3Cs/QzNjBDy2b3caikd+W2gEuHsb0XkuJCB/Gof4CWSMn+ygH3nc+lCctaMi96P0cwIF7GM8a8SsrceIUgb1j/SO4k4K77mhESdTAnhWNy+ZMHYDWykki/51q8SM3BQU8V/dTG7DR39Y8V6I0SIR+NbUXY2UbmsTRrW8y95SLiudfho02+usv2mSzc5rXcjhTyRG8Q4kg6qRfF4+6xXgaICyOAdJZUuL1oszva+lFvasZxKwDN4dH2vfTBtXh7xVSQtKz6kDNpGpaZBqV13V1sat4tIOkyafDf30YjqMlr6VW9axrYDvWQ+H30rk3Dd3SLk1JJ4l5feUjiKRfF4+6xXgaliMb6Rpt4D6/5VqXi1xcndluL3q0aKg8lFqzmKldRFmt8K9lbHkaUAqNK+Fvrrs5Wu7JIL291JIsbxxxoRqdbXJr2VseRpQCo0r4W+uoVb2hJkjC82AXB+FdnmVSZBJduHv3rIvHIwlCaSq3FdoBVNy6st9mtUUaQyIdYZmdbabVI+k6eUBqt8aydSlbzuRfyqF1UycqQOUHWsR1ikEah7sy2qdVBYlDwFdn+AnS634bcKL6To5FtXS+qpMMo6SWcaivDfzqJHjy9akeG50j9VqzIwX5Lv4tERbpx40OQDIl14AfGouWCEJszIuor9VZLtzdLBbNKtr17O0cgddXErw3rAmMTNylIZLeIX+FCcI0caJpu4sWrNXQ2pjJYW3qEEWIQcPqpFGtYiOLxpqN6ydYcapbjmCxNWVSx1LwHv+WWHx521TMwKxk8KyNMUiHQRZ0sTwrHKC2RCqsvvttU0hgfUZWbl241oigk9ouLMyadH10MuNTKNOiRBv7xUDwxzr4ryF9QG1NHNjyWv/J6g1ZY0FdespH1AttUCsLEIOBoTnmmMppvCTcfdWUIkmu3H6XdtquEdP31tWqJbm4vYXIHupZPpnTlEa5E09ab3VArAqwXY1hSct5FTVq0LfpQX2edb9WisKzRLFweZu8NxWViurMUQhHt3hbh9dQFsdBLpF7pxvUyopdjbgB8aH9dmsWsL2HWrvNKryeJ1FtzXK0M4xpg6/wANasI5V+LpYV7O0cgddXErw3pIiCkgW4v0NS5MiFHZdCqRsP8ATWH9G143VmW3HesfICTaEuCF4P76mPKyZAbA6r3PuplDTPj6d5xxvUiILtwNvOsTRBKNMoLaktb5ZQfHmbVMzArGTwrICRSKdJGlksTWAAh8MiX4bcKc4oyY5i37PT4GqZ35+iSxDQk/cbVh8uOQKJrnXuN96y4wW5Lv4tEWrpx41gtDd4xJ0G1FrHTyLavjeuRMmUWHC0ZOlqd9J08oDV9dZ40EFpJLC29YEhWS0aWZU4MOFZfKScsyWvJfj7qwAEPhkS/DbhU943IkCWKrcf5XxEk/RtqFv/cW5U8kKsblVtatCX87nr/8eblTyRKxuVW1q0L77nr+h95G2UXoTTTyRl+ISI2CivpJNQXd3oiOQOR0rjMg423rVI4QHzrmY8t/GouvvpULDW2wqS7gcvvfCmEUgLAfdSySzq4/lNgaLRuGA3t0pV5yXbbj/gVlkyZQxvx1fGpC7BgjlRJ+IedHRKptxPGtKSBm8q8U6DjbetbuFXzNExuGA3pRzku23GgJHCk9KEpkURnZvOp5IZL6VPEdKjTnKZSNr1J9MLaP2duI+NQuZ+W5t42F65LOoAW5a/XyoLzlh1detvhSlpBpOxve9ao2DL5ilEYvLI2hL1c5c3M878PuocyQLepZYn+wSGWsNdRs0ZJHntXK5q69rUOZIEvUTB1YOwG/TzqBop1VC3v1/ClxzPykC3Ok2OryoRCYM23v/QvJFe2oWpYsk8iZBYhutQTKC8CyBnFulYpxzr0XLuuwHlXaHDdpKxZpuEXs4VXOwamaI6hzFuR7xWI8jBE0uNR2rtEu5WImPxipIzMuUgS/NVbW+FdmzSfsEBufwnoaMsHijERV3GxNJYeR/wB7/AjwASm9n+upEVdMqeF41+G9LrzDIAp8ITiBb4CooVyFyoiDx08UrKWW1zK/ht3q7PecHlxg6v4J6UZIeMYiIdxsTSWHkf8AerWuUMabTbxC4IrGd0RGkPfburXaZ1q94h4lFgeBrGgi4z3XSAOK1P8AzA/OoPev8akeRtCmEi599TO+QccOBobSLEVjsmWYmGrRIy8D50S9jZiA67N8ailjGp4X1afOv2ni/BbxfdWQ050a7aHO1vKs9wNMT6igPurB/mj+qjBPlGJvtR6Re9TtOdOsLodvLyqCVD9EJlJNvjWEyNqXnb/VX/05/jVDHBkDIiLaeUV8Sj9GDi+rU5f7/wBIHSuldK6V0rpXSuldK6V0rpXSuldK6V0rpXSuldK6V0rpXSuldK6V0rpXSuldK6V0rpXSuldK6V0rpXSuldK6V0rpXSuldK6V0rpXSuldK6V0rpXSuldK6V0rpXSuldK6V0rpXSuldK6V0rpXSuldK6V0rpXSuldK6V0rpXSuldK6V0rpXSuldK6f/clx8OLMnxo5eWv0bkWufKv/AGgzfvP/APVLNLk/3pgXs2vcf0VFkwm8cguP8BhQLPIsJVbxhzpO/T+uZJXWOMbs5sBQkjdZEOzKbg1kTY6cyZEJVbXuaklzoPZ5RKVC6CvCw8/8DJk21P3UXzalzu1s2ULL4kiXy/IUZuyO0JUlH2GNtX1ioRMdU2gaz5m3H55E2OnMmRCVW17mpJc6D2eUSlQugrwsPP8ArrC88aSv3UZgGP1fLHXAxRkK4Jb6Nmt93yn7NiynxcLFHj5e7H/P8qyMCHMZ5mvy5nJBWuTmz+0Taydeotw+v9C3Z/70X5/LM5tvGuhR5t0qLXszsy+6pezfGJ411MSPDa19/rqPBx5Gmle41Kvh2vvQbKl0lu6i8WNBXSeBT9t1FvQ0skbB0YXDLsaeaZxHEnEs1aPp9P8AKcvh/TXZ02PIssTKtmX66fKyCRElr2F+tR5MNzFJtcVBDkFg83cst/kYdT5Mg4EQi9vrpYfpMeRjZRKu5+qs7szU3tXh4aeHQ1i40zyCWNbGyfGmzDfkiPm7dLXr2jGJMerT4haudlSiNOnmfdVjFkon4ygt+dLNBIJYm2Zaxo8jXqyDZNAv5f00YS7zuvBuSL2pnxZL6e8jCzL89cYvyJBIw+FiP11jwyzpj5MahCkhte3UVcG4+QGRITKeIijF2rS8eRCPxMot6GmzNWrHEfN1L+G169oxiTHq0+IWrnZUvLXoOre6gjpPAp/6R1FvQ0rowZGFwR1rMRpGi9kNpGkFhvbhWj6cL/KFOH9NNma9WOqczUvHhXZ2dGz8iADWSvHc0MbHZzKQT4ktUC5JYGa4TSt/L+mvaMkkR6tPhF67UzJmcQ5DMUsvm16k7QjLezR3uSvHhQyMckxk28QtQOVLZm7sa8WNaFd4pOiyi2qpJcdJEVG0nmAD9dQLklgZr6dK3/z3+UnZylvaU3GnhTyzOI40FyzdK0rHkSJ/KKgt+dCfFkEsZ9P0G4vs9vaPo+Xq21X4V+0w6SbtzO56rtDFt/5UqIoVFFgo6VkYcbmPnaVcj8OgE/lQ5GOkegftLeL76ze1s1eboa0UbcQP9FNBkRLJGeh6e6u0OxpG1rAxaO/wNj+quzuyI20rIQzfWbD7uNCCCBFUCxNuLe+sRIIxEjEPpXa9jWX70/jCsH90/wAY12P7/wDmFOYjplmblKw6efpWPNoU5MyiRpLcePSo5JoEeSNg6PbiCKzpOWvM8Hitx7wrBZoY2YpuVHnXaIHAezSfxTX/ABm/VWU2T9JiYdwkZ2Njb/zowPEjQkW0EcKyeyFYnFm8SA9Da/5cK7Mtv47f7tJipEhQCzXHePmazsaHww2bw/cf6jSQM+G56LxT7qXKgyObi3427v8AjLX95qPAIjIV8iNxWV2xmgTzNJpXV0PU0Y54klQ/ZcXrNijGmNMV1UeQ01/xm/VU8vaslsPGJSOPSWBI4f0mmxpptURFv2LeH3cKlgLaxjylVP8AB/zvXaHOXXFDLJLoOxOvh+dZTNEuuJNSNbiKhV/EAWXj5XrshBGgQql1A4d5q1JEiN5qtdj/ALz/APLVnUOPJheu2laNWUNJYEbfSV2gqKEHJbgotSfzjVmdoZg5kEZ4Rnb+CPSpoWhRbIShC20n4Vmfzv6q7J97/mvyzfc35CsLs6SUw4vCSZh7/wDTQxopAsAFtHJax9KzIOz31YGQmtVsRpYf5n9BvZ378P8AG/qTfu//AIhTodmFqz+y8jwT6rqD1tvTSSMERRcseldqdqAEQnUq/Wb/AJCuy+0WH0PhB+puPoaV0YMjC4I61iaGDadKm3Q2NZf+J/HFYP7p/jGuy4gbsli3wu1a0FzBIJD7tv11iOhuyII3HkwrVI6ou12NZ3+L/HFYNvwn8zXaP/ZpP4pr/jN+qs/EyPAMgnlk9eN1+UuZD4sbHHe6Hw6fzrsn3v8Amvyzfc35D5xe0SiLmtoUttf5ZfOP7RdCDzapYG4HJWTRf48BWT2fJ4MiKQvpPl/pFXNdoPGwdDjSWZdj4TX/ABm/VWfh5kSFcltURkW/W4/Ov/RIP+rFSLjiJdLWcR24H412175P/ErtD+aNR/zjV2MT+FP47fLsf95/+X5dufvSf+JXaH8y1KPN3rP7Mn8MpPhv1K3vWRJIwRFQ3JrM/nf1V2T73/5flmOh1L4xcV2b2lLHzMUjQ9xfz/UfSldMbHZWFwQg40FSOGOcrcBVAa36DcftP2rl8ooeVy730m+9/wCo/bHtPeFuTo/g23v8hOrti5i7TJ+uhHn9tSz44+wL8fvpMfHTlxLTY2QPDuGG6nzrkx9uSxYv4UBv+fCsbNgyWCxbxsty589V6mxZf2cgsbdK5EHbZixr7Kn+dqxpkzJOaja5JJRraU/fRVhcHgQaabsntCTA1bx9Kjn7T7SmzjGbqlzapsWXuSrpNqOP/fUkeKT3IgRf1puzkkYJyDAHbiRwtXsvO5/jLatOml5t45k7kybiuRN27K+L+HjxH31yMZbDdmO7H41iP7TyORf7Gq97fH4fKbtb2nVzL/RaNvrv8xFkahp4o6HiK0dn9sfRdFkJFvq40s/bWecvT/0aE2++gqgKoFgB0r2zGnfBzf5SPrWjP7bmlg6xrfjT9mwkxxmExBjxtcV7Lzuf4y2rTppRNeOVO5Km4rlN2/LyPhe9vvowQF21HUzOeJNZud7TzfadX0ei2m7X3vWRi6+XzV06rXtS4nO59mJ16dNQSxT+z5EWzW3FQ5eb2rPmSQ9xPsjhasN/aeR7OSe5q1Xt8fh8s7P9p5ntJY8vRbTdr73rIxdfL5qFNVr2pcTnc+zFtenTQyoZjiZfVwODU57T7TmzkjUssNyFv8fOsz+d/VSIZOVLGbo9r0IcvtyY4+2iIWJH71NmwTWi06RBp2+u9Pj5Ka429KMeB21LFjdEbpT5UmTLmZjjSZZD0/SDKi95lIFZEeXGI2eS4swPT/ZX2ratq2ratq2ratq2ratq2ratq2ratq2ratq2ratq2ratq2ratq2ratq2ratq2ratq2ratq2ratq2ratq2ratq2ratq2ratq2ratq2ratq2ratq2ratq2ratq2ratq2ratq2ratq2ratq2ratq2ratq2ratq2ratq2ratq2ratq2ratq2ratq2ratq2ratq2ratq2ratq2ratq2ratq2ratq2ratq2ratq2ratq2ratq2ratq2ratq2ratq2ratq2ratq2ratq2ratq2ratq2ratq2ratq2ratq2ratq2ratq2ratq2ratq2ratq2ratq2ratq2ratq2rb/8AZxAF+J+S6za+1het2/7jUHU3U/K4N/0hAtx+Pyx2c2Xxca/aiovd8tV9K/n/ALRgLXNzbgK/ZTf9WaJW4sbeIW/SIA3h/g0T5UJ35R1qCAb8KkVlQHllgUJ86mbjYyEi4+Wi2pfy/SEGtxFEeYpE0wnSLd4/0VqyAoTTayMfnYC36ROJrcfpFCLt5/LiASNr1cDFv7zQL6dX8Db5aW4N+kIOvD4fLwtp8+FcWuP5ugV2+V928/8AaKCX8XyBjm5Nt/De9AtkSuvVeRvQcXAPn8rr+kIHvL5/KwUm/wCGrc3KHx5lBNTPbq54/LW3h+H6Re761YbfpGXRCZb+R2oBsYoPxah+kezsq6hw1G16CrFjEnoJTSoVCEdFP6RvEisemoXq6tAD5iKgJGDP1I/SJZ5FU/E1w/qXZgo8yaujBh8D+kF7rp/A/Q0TyuB+2+7/ABoInCOQE6fI1DGTpjc8bdfhUSxeEPfUn6/kZ5BqJJC3+yKEoj5dvtrs3mDRIUiP7LHr+kCxFx8auEZ/gtc6UaTayp5Vpcal8jV4vopRxV6HNXS/Wm0pzYib2Xda4rwPQ/7F/e9K73pXe9K73pXe9K73pXe9K73pXe9K73pXe9K73pXe9K73pXe9K73pXe9K73pXe9K73pXe9K73pXe9K73pXe9K73pXe9K73pXe9K73pXe9K73pXe9K73pXe9K73pXe9K73pXe9K73pXe9K73pXe9K73pXe9K73pXe9K73pXe9K73pXe9K73pXe9K73pXe9K73pXe9K73pXe9K73pXe9K73pXe9K73pXe9K73pXe9K73pXe9K73pXe9K73pXe9K73pXe9K73pXe9K73pXe9K73pXe9K73pXe9K73pXe9K73pXe9K73pXe9K73pXe9K73pXe9K73pXe9K73pXe9K73pXe9K73p/kDmTx/tI4XdfeBWNk/wB6xpzow+n2UG1/rqMZE6B7W1N4dRozwEB+Yi3IvwLAUVV1LLuAdqyhNyeUGHK5Z8Vv4VMqSI7LuFN7fKGHDI9syJNEerjbqT9wqDIbhKRpkHkw4H5TZcvdjGw6noKE750eE7cRjrAHC/Ak12eI5VSebJjgdwtxxvewo5smVHmQIRriaLQ1r24EdaTBv/Zzh861uOrVauy4YyAmRKyvw6aalmXtRceAeKxgB0j33qbJyZeZjM1sf6PSWH4qkltq0KWsOtR50XakcRlGoQLCGRf4JO9S5Mu0SajbrWVido6fbIdL+EW8LD9VIsVmw4oBPOmnjp16SRXZZx3BTJyUjJ3upBqLs3ACHLkXmPJJ3Yk8/jSGbtFcqH7SGAIfqtXaYmIPIy3hSw+yKyMEkezpjCQC3W9do6M9MdMfKeFV9nDcB9dMjdoKZy1xMIBwHla9YuHj9pLkZc57ns4AROrGhc3Pn/XvTz4k64OCGKxty9by268dhTDMnSZgf2gXRw+NXjkWQeam9D6VOJt3utFmIVR1NPixsjQ+x85f3tRG9RvlcrnW8XJPg+quy4IZFaCcS67ce6BauVzU5n4NXGsbGkPjnvbawsL8aHiHHbjvRFxcb/Cls6nVxFjvTBJFcrvpN7fLlc1OZ+DVxrTcavKjYg24cKuSAPjRUOpYbgHarySLGP4RtWtmCp+InhUmWXEsSfyRBvV0YMPgaYJIrld9Jvb5ZEuNInPjKDztdwP11qkdUXzY2oEG4PUVB7EQs8s6RDUL71DlDwq6aj8POswS2GPpEkK246STb8qMayo0g3UNxrU4T2ckryLjUi9Hv+qp1jbjFKYuJHEjyoeNeJtv1oxiRS43UHiPkELqGOyk8TWNl5LrrYEs2w3oMjB1PVTepJpTpjjXUx+FLlrkr2dDJxiiEQdtPQsTS+1yo8g70ijSK1o6uv4lNxSgSIS3d8W9YeHDMkEmQzXlYX0AC+1RIJ43yHOn2iWygfG3WkDPxPC5+1WsyIE21FuFBi66T1vwoqrqzLuAdqHNlSO+2prVrd1RfNjYVzC6hN9V+Fao5FkXzU3/AMqe0f8As0n8U1gyHKzVLQqbJlOBt5XqaAYGNk5EUY1y5bhQFN9uBpOY10WYLe/2eb512MezVhTJaSzCC3iitxvav9ZmiLD6aLWU3CWGr0rsx+yxAuWZ0EXs9rsv2r23FvlNkYiwvFhL7OOcxA1ni1rD3Cs3ByRGntf9qjEZut/tCn5civobS2k3sfKpFgGuWNhKE/FbpQyEyI1W3iDtYp8DXZJR7xy50NnjPQ34g1h5eQ02XgX0N7TK0nJf7L8axJ5PDFNiGBGO2rVe1djwx+J4meZwPsrptxpex1mWPGSz5kmq3DolCOB4yqCwVDsKeSQ6Y0GpiegqftPs/L9hlCl1fHl8DHytXZOEET2mVVyshH4KAtuB97VgdqZSwJE39llMLE8DsTcedMjDUrdnWIPX6Suzux5SScfPR4GP2oSGt921DNyPDiZcPJ5p2RwetRx+0Rl5O4obi1dtPNzdQz5B4JnT8jWXFFr0+xqfG5c97zNdsnKyDE/t0lgMlo+HuBqaZJ+bBFx/a8wk+Vyal7Rzp4vb8viRrH0adEq42/ryR3trUreh2bkssGZikoyMbXF+DDzFNrVM2MyrDywRp17gE1oWHHxQ+JdosZ9Q73AngONduTywrJKsmQVdhcrba3lX+riZpvhyJeTX3WfQNN/WsxcRY1QYPiWLYNq/0V2Isp04jyouQf4Fzv8AC9q7IXDSGM8uXUIbfh4bfXWXl4uFjQDmahkNIBNr1bgAfrrsWTIhhYSGQSM6DxeDheuxuVoEXIlCaO702r/WJkYMt4hcfuV7XCP7W8Y1TbsseriB8LVgzRz9nRLxAGKukyrbbfj5/V8svLxcLGgHM1DIaQCbXq3AA/XU5YgXwUP+9XaTodStnzEEdak1d3mR3/74rsg9mrEmS0niEHWK3Em1dor2iI3dFTkLPty7cSL/ABqaODIhjxYs6+IMjjFJYcV91712xFLgYsOVjaCXxgCpv1HlWYOzBFEOGv2cDgLjUeH8GsGaOfs6JeIAxV0mVbbb8fP6qzGgvzhE2i3naoJYBCchuX9Jw5jNcav11BG5xuVyLwrlrqQtfxdd7WqePnQSjmkhMfux8B4f1/XXZf8A8wh/OsvsaO49vkDQkfZVv2v3WP312kbWihxIuA8heuycjFwsXCRsmPlskg5pB8wB9/GstWFwcNAQf3jXaP0OOk6ZrrH4QGA0jgPWu182NObnLNkCAnjo37tdnzx5HZ0WlkbmqhErHqCb7nb5dsS9pCF8pchwefukf2beQr/V2NmhXGbmX9oF4y9/CG9ay/psU69JMGKLBTx42v1/VWXjJweRCF99QozrDPCgjlhc2ZCK7K5siSdmO0lze8bSDug+tSx4AQQnFY5CxdwN9n66x8xYl9rXQwnt4x9IBvXYvMgik1mUPqQHVZOF6zkk9i8KIIY8yPUOXb7PHzvXYuKclZl9s0cyBvs+Lwg+lY2LGmJDirBeCPIS8Ze/i/xtqyoefC49qSy43BYrleA48PP667I9mhSDmJMr8sW1WAteu1D2ksMmWuQy2yLHTH9m1+lYcUTYnsYxf7MuQuqIm/G3He1q5IzsHUmXzI4v+hvb9na/11m47YmPjZEJXmNi9x77f5UsjqHRhYqw4EUqRqERRYKosBSyz4sM0i7M6AkVyPZ4uTe/L0DTffamkgxooXbvMiAE1IyxqrScXIHe99NJBiwwyNuyRgH5ERxrGCdR0i1z51HK8SNLH3HK8V91Py41j1trbSLaj5n5c6XCx5JfxtGCaQSRI4QhlDLfSehFNHKiyRturi4NciWFJIfwMtxRGNBHADvoW16aSTAxZHY3LNCpJotjYsOOTwJijC3qxoTLgY4kHHUIxRl5a80jTrtxt5XoxzRJNGd0kW4rnctebp0a7cbeV6jlkgjklj7jsgJX3UUkUOh3VhcGtePiQwP+KOMA0/KiSPW2ttK21HzNGYRJziNJk0+K3lemd+z8V3Y3LNCpJNGL2HG5ROopyltfztX/AKtxP+oX+igqiwHAAf4Ae040U9tuYgNq9m9mi9n/AJLQNP3UDBjQwkCwKIBwp4hDGI3vrTSLNfe9ciSGN4duWy+H7qvFjxRnTo8CAcPKuRyY+Ra3K0+G3upDDiwxFL6SkYFr707nCxy794mIcaCZEEcyA3CyLcCo45cWGSOPuKyAhfdTcqCOLV3tCgXoRxoscY2VRYCjLDiQxSn7aRgH5O5wscu/eJiHGkefFhmZOCl0BtREUaRBjqIRbXPnRx4iocujePbgwNM8GNFC7bsiAE0BkY8U9tuYga1CGTHieEbRsgKj6qaCPHiSBt41QWNaMeGOFPwxrajLDiQxSn7aRgH5OfYse7976Ica5c8KTJ+GRbiuXBEkKfhjWwpeZGsmltS6hex86DlQWGxtxFNII1EjCzPbiRV0wsdTfVwiG9GXlrzSNJe3G1e0+zRe0fyugavvoiONYwTqOkWufOvaPZIOfvzOWNX3/JZ5MaKSZdpGQEivZ+RF7P8AyWgafuorjwRwA7iNbfLXkYkMz/ieME1yGhjMG3LK+H7qMcEEcKH7KLYV7PyI/Z/5LQNP3UkjRqzx9xiOK+6gMnHjnA25ig2qNRBGFiN0GkeE/DyrlzwpMn4ZFuK5AxoRDe/L0DTf3UkjRq0iX0uRxW+9qDZGLDOw2MiA0IZYI5IhsjKCK5HskHI35fLGn7q5ePCkKb6Y1t+nH//EAC8QAQACAgIBBAICAQQCAgMAAAERACFhMUFRkXHwgaEQcLHBINEw8WCA4UBQkND/2gAIAQEAAT8h/n2XnVAQgpY9Q7nn9J+yly8XELSIPquvZeSgiEZe+KHBShy8HsqsETGC5B4af0kEhKuy4LCdtm4iO6CnE/oh8cNBzHA7yEJNmKE7P20IZXNcDEfosQI4Q1wkjlziM0ywJVwFAPW1ach4Y89VDmsoTM9oQ4xP6gYhwsuKE1ZUicJ8mvOUTi+IGfnQOXqYmzJ6cxg8OgJWKvOY9XIg67ibNjp9Y5x91ZBbPxjyE8UviEWw1l4wWZPTmMHh0BKxZVyDJsJDw8x+oGIcLLihNWSh0ndmvOUTi80IGB8cZpNdey8lBEIy98XJ4KTgF0THQWjcUjEYg17tMXQvQ+HGIbOHEZmxLRyGrx4CzA5RMYeaZec8ETmHjrmlgZzBlA/mkRTEUfMLNyCgb6hWEFTSgpSkgWXFlieZmJI/hqUrK5X2f8EFIR0gB8wAiiqN7l8CDlzEWF4MBSgYxnkxzZmQhAKJcYRieR8XskXUZQfnCHtYpLJyLMuuSN1rlForyPQfiy3Sp7yiMFxNeZxjKcbyKkiMeKTsZSRp4ajtnEiiUsrlApITJZ3+s8CcUKMI+y5wf/iiUncVhA/l15qh082d/rPAnFXreAiOjldWVWNLpGEnnh4q7Cb55CENdOG8ruIxjNhkXKIOkcrCA5saKCS78iN3ndc0+yPUNOiiI4eYWa6cN5XcRjGaF4JDCPf/AJ3yTWuGpUcB5pGiHy/1A+tYcL0URHqJ96CfLiFA9oRJGqchkmE5Ok8MUdivPLECeR80BPzvO8BqjHsx+x5CaWShQC9oJjmg4iPW3I5lPJ2Xnk3Z+eTygnMU7yUWZljhPGaC0HOdIi9WU5z8ChcSqBl0ZsKSZ4OLwY8hGAYhPf6gRi2wjKI94omYCLHBjiWpGKAj8DmjzLy2Gs9ggPJ5hoyoaOpC4JnMiLNN0aaWcNdZvE0swYIdRcV7jPGCpgeeTGOeLFfa8AHl2TPFavWbBmyIHmf0gRi2wjKI94on/E3B4KHUGb1E57oJ8uIUD2hEkaqhYE3PhdMCYrmYlMkwnA8MxxSGxg32Inh880ssnFwWUwhRDNBUsmSMCYwy21rerzCQU4OOHFxhaTAePg5+6fqxN5gdT1UmbJkZkOWcRXY0io+AhQwTnNzD/JhIjNEvVNYNBCMMf61DACIZwDlbEIfkughfUH1SYijnkA3Eox9WFUNAX5H28VGAykSaHhkHFEicPN88ZD1rbrhShg+T0FHCAgSbe6MIxo+IYEOxzDxXwWsgii+Vn/ek30xnfgCMp+rOvZhj++IsHgcAAEZ9+TGOaqbnvyl5DqRiM1guLJktWTOVnPmneD+5AycEvmvwFBhcI8caVU3PflLyHUjEZs0GtDPKZcyxzFT+ZiiDlZendUIJMwhfAN1kwWsSYTgeGY4sRwtlKNuQ5d2R5xcjLDMteKI4oCERHP7HVLZOizZDqayYLWJMJwPDMcVc4fYAxsP/AE1z5chAm2phZkTlpWyPOza4GfbPN5naVqbqMZMxk/VjjWSIvObzO0rU3XVFavyqLRyMy+HxivNtDJRZnQoEIkrrmvOhZ9otIAxmmmop1kqpIRORL58IoPFqo8I55oMhtEGvSsi4zpVHdaBBAEfJ2qZ1Fxghy+c08Pm3ZLtfNgOvy0Eqg0PNZYn2zRfmryXPuN3hHtXopJXysEiML3UnjwFft3SsyqJnmLm6ckQYy9VyoEid0zzNMmHftnuhcYxsgcidVp0rp9tm6zncuXFUaEjzrTRMokjPZaodavIek5qUYBhzz1ZW3C7gmebLj+KMuJdXobLCx7FzVzovt111Pmrb91U4a1ayud9qVPKK24pFbgQpsnjXBEYhH6NQ0RJSZxgM1sycFeK78TfzlyTJYUsLTypZmOCMlaslI/ATcKahP9mbmW0yvPBcpNPNtihDnm5+23h4Q/Zfx/8AgMmCQcT5PYfmo1EH3WC8UURr1qythsUiML3c9G5hM806A54By1nUsEjLP4FMTnXSvy3OzOVN+Ty2NNJzyoGyynVCRMiFieHvqydBzueVcFCB51puZPmPDnlohT3gfwNch5kHtm9tsKY8sWPH/QLxpZSp+eglIbMgFYnimeBKEXnNQWWCFHwoeDGaSaiy7BJ/tVNMWOQ+CpCAS2fVRCnvA/gbx4UyYmZ0P/KyLyj/ALBZuuxAWDodoSeNXZjkSTD0jOZonAozXLizOC2PqA+KuzHIkmHpGczcjsAbCPFcAsXiRBhxiKmTkPgkZeuaBClDEIYn6pRq8yVPPb7UD5pOCek3hIBIlOE1e9OOATxvNm67GJQo+SAJXFOyVo+q8U6sGLsYnzclDFGaj8ryHJasPM6KZYs8REA4frFRSIhSwGcU0xUaIxFR0WTTGfAV/krScyQ980XEHe5FTN1zMWeHMFVZPy5lxB3XPCVcjCzD/eX3HcelAUuNAIM+LnOdDLx/USMyR91isUTGS4O66AkpmAle/FiHUqEVPNFFKTVlyqqbHcR15G9GkCHo49LFakEoXURRSeb5VhD/ABurYNoQjFA2a5BGcmSM/ihIbwlMcic9U1IHkb62YqOfllO1UHUCTDBAfmiQMsrETAnCWK3WbZIDiiNKiYHu3rePDL2astndWdQ/pFLApgGLvEzcVSM5cerj7H+uIWNDl0Lz6RkHZyfVw7mE8vDwpNjHIlYWs1ZkrScyQ983DYIoRZKMvEGQM+qfSzxU+uIZYshATYh6HPX5orE2HCcZZxzSiRIgifAuXF4aEakY/FjQ1ydvyeP1AKokfdUimxSI6O61quJwimfFniBklpy+IfM2AfRqIRB+HvebIEFLt4f/ADVHKiZ1EA4frFQmLZTAHnxZI+xixlxPm5LEnJ+TrO6ojh0YnpNb6sbIpiPNmAy9ZYyHPWSq2DNTzgDnv81rVcThFM+KgzedgkZev/LwTEfMd/8A0VIWE0k8xIxRuBKklTyv/wCeWpETCTzEjFPSxKklTyv8P81eUUlMZ7HHu0ASgygxu5QUIc1IHZZdjFJ4dCufavicjcYSUMgF7WOb1rmb34mlTIHztDYzazEyfF7QOn5UVNHHt4/4V+ZIYkI7LE2BEAUiUzg6efa4p5IO/bzXYQlB7Xb5bF60uHj3oL6v2uUGh2j2vYLEx7KdpQnyosWWfIsZoCkEyKTanEJLMZ4z5r5SEcZRhVex5bj2R/mmvDm9D5vXqqEYMDhL22GT5IBP6RFeDfAXLRRDkTV7CPXKKkIJ8vfj3uRVwHl+qPDQnGUP0uEUfB7CoxQSckBL2vGbeWZe/b/C/exh8PVPyHj8Ox7GyKIhlM5jsnNDm3yAnJ34s1hKVjxxVtkENqfEndNnCiwv5Lm6AMSx3WGlIHCGH2ksWyvMPKMboCFDikTk/wB6ykGDlYNpVwB59xz/AMKM8JuRFFx3cJkkQDZQwGMYQhnIY/xcCLBAwxMelcfknLLEebDqFImYyf61WPikaRtKvAPNuGbj9FGdmOf8VTiBFwTD5z170YzkS/EMvrXBDXhGJXxfkbX43wpwhnsYsWZo1UEcSmM9bvQRMouERHtZxoUQJ0+dWBnh8fZZBh5Fl47XG6XzQMh9+qirUMjHaPC068P+Oio9R2UuTEs8zYy+NsIMy6z1esY1EcmmObAccrCM8ZPRYz5iN5U63/DCHkn9BH6if0jkT+gDgj9BHH/JEUA6s687RES4/QR+kHkmpPOf1Gf3FSec1JIc/uEzGfNSf3GZ7qTzUn9wTMZ/igAAAAAAAAAAAAAAAAAAAAAAAAAAAAAAAAA3eq7vVd3qu71Xd6ru9V3eq7vVd3qu71Xd6ru9V3eq7vVd3qu71Xd6ru9V3eq7vVd3qu71Xd6ru9V3eq7vVd3qu71Xd6ru9V3eq7vVd3qu71Xd6ru9V3eq7vVd3qu71Xd6ru9V3eq7vVd3qu71Xd6ru9V3eq7vVd3qu71Xd6ru9V3eq7vVd3qu71Xd6ru9V3eq7vVd3qu71Xd6ru9V3eq7vVd3qu71Xd6ru9V3eq7vVd3qu71Xd6ru9V3eq7vVd3qu71Xd6ru9V3eq7vVd3qu71Xd6ru9V3eq7vVd3qu71Xd6ru9V3eq7vVd3qu71f/p8UErBRBIyfxQV8VjJBMEr0A1I9UtP7ll0ZS8j/AO5PI7GT/ggUWIwc+H+vhMqvuFufUY3sEsrhnepBloBhklzBhTyvp/wu0zj+E4nXL9UV4eFfDnBoLnomfWuD6SLB7BhDCljf7lcM71IMtAMMkuYMKeV9P9f4PVKPJ/TsglmhI5EfpROZKBoP5YzXLD6yRBJKRq9dOWciCcv4YLldyV2PD+/qqBQRd4/sWy4h1gwdngVqiB1qWXt1N6yyX0T/ADxeJNr33kaCHikh5GgDyWgCjZBKJerz/SyXUhJx8xc5iiZkBj3ao4CuJ5jj6qXbgRHIZ9f1M5cKD8KQ9JsjyxCG4BT+Yp+Cxk7c/tUFAF0mTzWRl0mWp7XOl0pUn/dVT1Acr4HdGuDH+ISovpl2Ggk0YlIjOdKvvoDL8Soelck4mYHEn+f2DQwDcP1B9ppFpsmKBHDPimAJkTh/US6ZBHnwfbTin3w95H8UIzqFMjIfVzpdKVJ/3YskYMlvA7qALg9WyNMgheQPCNluJlgeRnJZ8yo/J8/0sfjPfEmTzirOEoghsH3QdyBBAS5qL/5AjKfRcaXSlS/9VQBKipCk6xU2wcR5MV83CyJOcXnuIPofG2q4mU96CKTqbB6kMTE4hVo/DxET/T9J3mrdAPP3ZOvGgFegjCB7oQ/i4LpSYV4Tp/g3nJwr7Fqav1bg/wBqBVc4fs4D6E7oZkGwA4CjDX4n/G1yFQorxleVNQA5lzGNI9Z5olDiD1eDX2qToflJUe9XZ4rLPP0X3ZNRAXYu6+KEUBSQdf6GdTx3pHISFXofWzwnLACQPQCfdR44Mskh5vXq4fX5qkwSsuVIgAAHVOf4YoCPYqhJtn0Fk5oFY+1lNEtPF/22goD5+LzNH/HAvm8k0R5jDwGE+v2CCSOEblBimTe7j6acKOZ5aTifJ61jFkXkL+QSvJbDkiGD7A8RTDtCEWM/a9DAvP8ADFTvSZC4IDhfwFGdBD6D0JdsWDWT80NEhZRwker6uH1FMo9P4qcf/wA+TH5sQNYReYuuGAb8d5vsXsAWBbYqaCyq64DiqS8H9tjoO81M/SHxLYPlHIjDDi/jf6/6OKrDuKVwo4OYBfd6POKN9vupvwMsBgH3/Hx/CWfhYkt/ZZJB+dZBPw+0115nYAd1kpoTswfX5K1qjJDzP4NAgheQPCUS5CU9F+aJ92lTDUAWsg9CP6rNxBNVf5fVAD2IBhn35+7n+RgCXAUT7FpvUkVlLGShz/DFIt1hifyhT3xQCrAcrSz0MeiDO0po/wBXFUan8KKE89cUQCMj3QEOW8pxHtz9Xj6w6Ak9Sfu+EQTZAONZPcoMkBlWuF8ZIdDef4Yp32hglRE+RHuRfgP+KpgwkYZiHcJ6/vjfzPmgoghndJj7vx3n94vhvFNvgT61C9eSgPRn6agANWDF/G/1uLuDk+/1IeoCSMAf4p1hDhYZY+0oKDF8DwmKh/DCYi4zGT+DfjdoAJ9v9HKT2Dj+NPH6h+pD5jiGJjzI2bqpZj60TuGhXDgOV7V7aqNT9LBZfwikNGHuLHwdweMrsZ8WWvLuXYTYw1bI5Jqewv4NDI56YHLCOIoQDQEiXofel9ojxpmk2rFCm1fxFkUmJyPCezmjJcXcHgT92c0A8RiXiY+rK/lnRiJfFxdaPQT5NXq2DBvgR/30atGTnzle2G47rRH+79dJEceQH4vH7n1mwBf6fu4xR4T9A3osFhalEGgoDzBQA4C5OlLwPygiOxrC+JFWPw3NpdyUJ3zZX8s6MRL4v+wQS9mqYm+MJ/D/AL3ngr6HE64vfoX5Yk+OL2C/nHcSTfyASHxLehTrIknrIjkbNSBkSRKZWcOr4YS7jVH+/wDX/wAssMSfHBfWwiDmJJv5QAWpaZYxkIOFyInm4g+QEYcpr8b/AFrhnscJ5E8OPShwRPSSWf7uaq53mBzy4njuhF6/a6R6bPKnCZ9sMekWWu1H4S+Dlf5BDyQzaUFRDkTDp/8AVfeu9d6713rvXeu9d6713rvXeu9d6713rvXeu9d6713rvXeu9d6713rvXeu9d6713rvXeu9d6713rvXeu9d6713rvXeu9d6713rvXeu9d6713rvXeu9d6713rvXeu9d6713rvXeu9d6713rvXeu9d6713rvXeu9d6713rvXeu9d6713rvXeu9d6713rvXeu9d6713rvXeu9d6713rvXeu9d6713rvXeu9d6713rvXeu9d6713rvXeu9d6713rvXeu9d6713rvXeu9d6713rvXeu9d6713rvXeu9d6713rvXeu9d6713rvXeu9d6713rvXeu9d6713rvXeu9d6713rvXeu9d6713rvXeu9d6713rvXeu9/wD04hY+EfpAOpwWUexfj3+LGaMjEfrF0/kFyMMPmrqln34/UE2M3sX4bfjb/R87wf8AsYJqIJMq/rwEphkgf5DUChL4omIJ/CwtyFsNMJLx07saIk5EB27sQAlwJMef1LS8n8hEp4TVC5QoNIc+aCgoI+bMnOD94On8icKHvR2Bn3/kRQKsB3RNnOfL9JkQfBS4A4auO3M5dt/pD2Lw/wAheRJPT9TwQD2TRifcYTRgjqRH6zr/ABv/AGKQyC6Ov0xMFYGxfo8A9U07+gMP6mJPk7P5BSROPayLkn8O/wBYeck8ikkN7cPxfuaIvv8AU7HwHL7/AMiACPDfiVCHA6/kbsGpgKcYXKaKIJGT+RmC5AUMaDiRfzZDOZiGd/yNjJhmMKFL+ACXrpJQP8iHkboygShHhP8AR7H2Rd4Om/kEdRJ5k34j/F5cTAzuUODOeCjjxM3I9EajAxLdMLjEcQGIdZx9/p0w0ZgMY9LPyQjgfiK331DePH8gRJeITZWGYxT+atBhZmPcvlq8qc0AyrgKs7nqp58YGT3staxQmecPJcBiMn/f8l7Lsuy7Lsuy7Lsuy7Lsuy7Lsuy7Lsuy7Lsuy7Lsuy7Lsuy7Lsuy7Lsuy7Lsuy7Lsuy7Lsuy7Lsuy7Lsuy7Lsuy7Lsuy7Lsuy7Lsuy7Lsuy7Lsuy7Lsuy7Lsuy7Lsuy7Lsuy7Lsuy7Lsuy7Lsuy7Lsuy7Lsuy7Lsuy7Lsuy7L84vzi/OL84vzi/OL84vzi/OL84vzi/OL84vzi/OL84vzi/OL84vzi/OL84vzi/OL84vzi/OL84vzi/OL84vzi/OL84vzi/OL84vzi/OL84vzi/OL84vzi/OL84vzi/OL84vzi/OL84vzi/OL84vzi/OL84vzi/OL84vzi/OL84vzi/OL84vzi/OL84vzi/OL84vzi/OL84vzi/OL84vzi/OL84vzi/OL84vzi/OL84vzi/OL84vzi/OL84vzi/OL84vzi/OL84/8BYgFBJJKf1ZMno8JibYI4TB7EJ/FiolQEk/DeGY2L7i4UuTHBnLv2vAzDV7v0GSZxCBLPAnqVSnEOOEx1k/P6mBZndxB7sFLnOqCtK+YiiqtbgyJssElWkQynlwlh4853Kfbqm5I2UhJ7ZpcWYeIzKox+Wga8g4noorMdxQJi/c63dDN8s+ahop40g4PdxYqnVJKkG0jecHunIpoR+rDkqQHWPQzTuAgKJiYclwFhzdzQjCl580ZrjpEEG72wQ9OPN7P+OTDMPNjusSPUXvZZh5GHLlx/dAEEZhE/6wZMBlWzq4MyEPVJx3zWovSO9qYnmtjVhGJ+q5QMHDPh73kBgsBcMZ9g5yHUBWoMi0eXZ1Uwa4ZKoP21MoH4Px5sCFi59ymJ6ooipmHBqgk3Cn8qkI1hGHkqQogjJv9JlA/B+PNnWEJyzF5dqUph8XbGlF4Zz4vuKBVGBML91+GEsCHvQihMK5RBmO62DsTNUhRBGTf6xfTMZik9lWZHyQerSbGkSRrKtUI5+dxYAgge/R9mT6rswfRBaXYH7vH4FEe5RolpgTllmUfYnYlhzODEgrByZpiGkMHI5Pe5PXivuH64dTgewUuTHLEz64vBnqIfuzRQ8UEtFj01XqBzBq4sG5hzzDxiLpyI9SipGQDHXmxmvOm/I8uDNkDhxe78owByx1QLsRUFR/ftVZ0yAB8TQSIoYlPGbx6Axfdfaw1L1umIz1LjgOUYeZutqcfj/yosrmGR4YBANU7N814CSPLMH3ZLygKAiewK/NYoy59xxC1pSB5Ux6rz01cbhyZUr+kM84aCyMhQyQV3kwShnv6reRkXD5UcOr70lKZfRNQwZCI7F4SvTxjVCIOOea60mMGexx0zxzWLTFSR5XmKjxlKcQ+EqBZqyIPML5e/8Aug+SHQsGCi9Z4ICVoK+OXcinDPEFA+fNmTAKCB9VKdmZ2sAwUYNXjg5F5EAq/mDl9VSIXysAuhO/NkJKgVwTg9i4cr4iJOiO7shRyHatBdzkGXMGe83NECzV4mGW8DufqrOIxO/agSCsif6/xGgki8ogVyMnkHm58bEkkRYDhZrSWMrYGCRk/V59HaiZds481QvP3lg+/bm4Y2SEzODAxUgsrEHQXXIs5CphiE0/JZcfLmOYGZnkYrnRBDpy5zxNReDaBCIEMceLnpIMkjH8jZX055hB3ATwbocKL6z8vh/2fqXHy5jmBmZ5GKRGZtjtNMCo6QKQ3n8ZCYxkrmGEYzfNdQtjUwYSsTh2lq6JY8cL3MiJ4sBNrpLkiVAz3c+F4aXAf/NFDhRfWfl8P+y5+V9meI3Z2MzkOc8r2NaoOwaOX4ECPoVYKQGJ0QSxnhXxvlfeFRz/ALH60DTxHMHiHsUKIt89CcAjydKQaCROG9qmHeHtCOBu8gJhmMIdKr70rII4CTucih8/pEInCBHN0cJXsFlxlAE9kvNIoQc8c5kcKfElRx4fmnGcEThkesUPD6OAhPDkgdpYsyXkjJDBz+qzYDnhwOURiL19lIKiRmHi87SIDlTA8lKXjSAw5hcHn1UEZTyGQCDDtOGrMe8nIWZy4dVxDOWNWDnPbWG8ATDj4RzJzYFHLGKYQI24pQhMp5qmmMsep4uARGWMqMckcP8A5SnaE4RyJ2U0vIYOgDin4OPv0S/57uMsImc387mzRCrH6DioiV3jzeYLDL7D9NqmBhOVHb5snBIZn5lyTqrKaIeTzBy7/SdKZVz3YprftAexwnmi1SDQbG4a8EbDxiptGYi9z3ZUJHB5VM0ZNyCHhgoMEjhGrUaAUPnjndBESqOYydkaseY4B4yYaH7TPnnyROYuUNHuxHJ9UnuwADY18uYfUIK80WUpPMHLujsQwJeTlGqkYjkHKsZaIwOGaOFCJ/X4IBoCAPH/AAZKPMj7JuZkuf8AAoqHTN0XJIVhRoNUO5780YVgCoDjwxe9PCmc8DicxYDDij7XSLkAwA4oIYmM2aes5Z8zjNimOCzQ38ZZHBGLweoYLCCY5gxTXjA4tBeSJHqAH6mnrOWfM4zRBFI0eCSs/CIKcqO92bVASQQ4Hov59l2iFPU5+mE38IxQCEFnaoEJ+ZO68amUJX6vJEj1AD9QZ4y/LnOM5J97mK8wJvMNJhOYnpF4CVFw+BPCebJosXkcw0NliGNwL2XDzsgsGR46oBEITMcE8xQVm+faek1HUwMJyo7fNgAJeVecJnf6/tpVZJdfI6mZ6Rc/PgZ+8foETY/KSXGCsKw8dLyliG3uFTG4iMDDJwjnNklUjshDLqS5/Gj61NheQ8XmHbPVzFeYE3mGhRsRYjI4RNxbLS+YdTcGw1U9S8HPnPsVY4h8q84RNyMfAGfOP5x//9oADAMBAAIAAwAAABCSSSSSSSSSSSSSSSSSSSSSSSSSSSSSSSSSSSSSSSSSSSSSSSSSSSSSSSSSSSSSSSSSSSSSSSSSSSSSSSSSSSSSSSSSSSSSSSSSSSSSSSSSSSSSSSSSSSSSSSSSSSSSSRuN+QxdRzzG8g+fWD3nRg4SSSQQi/xm1RteCPAxSSSSSSSSSSSSSSSSSSSSSSSSSSSSSSSSSSSSSSSSSSSSSSSSSSSSSSSSSSSSSCQY8LHTzRyLhxEPIUAOE/8AkkkgTTskLdp6pWbwTMkkkkkkkkkkkkkkkkkkkkkkkkkkkkkkkkkkkkkkkkkkkkkkkkkkkkkkkkkkkkkkkkkkkkkkkkkkkkkkkkkkkkkkkkkkkkkkkkkkkkkkkkkkkkkkkkkkkkkkkkkkkkkkkkkkkkkkkkkkkkkkkkkkkkkkkkklzuFFUZDzvnd1izxJyzbPnO3XXcwDckkkuIdIO7WRqxmZuJskkkkkkkkkkkkkkkkkkkkkkkkkkkkkkkkkkkkkkkkkkkkkkkkkkkkmhl8xAmaUDe2b2bgzj0943td7RU0FUkknqHmI12gOT5Lple8kkkkkkkkkkkkkkkkkkkkkkkkkkkkkkkkkkkkkkkkkkkkkkkkkkkkkkkkkkkkkkkukkkkkkkkkkkkkkkkkkkkkkkkkkkkkkiEkkkkkkkkkkkkkkkkkkkkkkkkkkkkkkkkkkkkkkkkkkkkkkkkkkkkkkkkkkkkkkkkkkkkkkkkkkkkkkiisyvRskkkkm+KFWTOKxdZ3xgEkkkkkkkkkkkkkkkkkkkkkkkkkkkkkkkkkkkkkkkkkkkkkkkkkkkkkkkkkkkkkkkkkkkkkkkkkklFwYGNnkkkkPWyln76w+qJDgVUkkkkkkkkkkkkkkkkkkkkkkkkkkkkkkkkkkkkkkkkkkkkkkkkkkkkkkkkkkkkkkkkkkkkkkkkkkksEAssEkkkkkB0kIkkAEhEgEkMkkkkkkkkkkkkkkkkkkkkkkkkkkkkkkkkkAAAAAAAAAAAAAAAAAAAAAAAAAAAAAAAAAAAAAAAAAAAAAAAAAAAAAAAAAAAAAAAAAAAAAAAAAAAAAAAAAAAAAAAAAAAAAAAAAAAAkkkkkkkkkkkkkkkkkkkkkkkkkkkkkkkkkkkkkkkkkkkkkkkkkkkkkkkkkkkkkkkkkkkkkkkkkkkkkkkkkkkkkkkkkkkkkkkkkkkkkkkkkkkkkkkkkkkkkkkkkkkkkkkkkkkkkkkkkkkkkkkkkkkkkkkkkkkkkkkkkkkkkkkkkkkkkkkkkkkkkkkkkkkkkkkkkkkkkkkkkkkkkkkkkkkkkkkkkkkkkkkkkkkkkkkkkkkkkkkkkkkkkkkkkkkkkkkkkkkkkkkkkkkkkkkkkkkkkkkkkkkkkkkkkkkkkkkkkkkkkkkkkkkkkkkkkkkkklskkkkkkkkkkkkkkkkkkkkkkkkkkkkkkkkkkkkkkkkkkkkkkkkkkkkkkkkkkkkkkkkkkkkkkkkkkkkkkkkkkkl4kkklkkkIJkkkkOUkJkkk80H0kkkkkkkkkkkkkkkkkkkkkkkkkkkkkkkkkkkkkkkkkkkkkkkkkkkkkkkkkkkkkkkkkkkkkkkkkkkqBvhvw04ri9Nrk1UjCP2sF68yjk3HkkkkkkkkkkkkkkkkkkkkkkkkkkkkkkkkkkkkkkkkkkkkkkkkkkkkkkkkkkkkkkkkkkkkkkYR5jcKlEjTr8lckoh9b9AZt9oHysAmkkkkkkkkkkkkkkkkkkkkkkkkkkkkkkkkkkkkkkkkkkkkkkkkkkkkkkkkkkkkkkkkkkkkkk8kYEh0IbxMjl9gkVhlrjVpZ8f2qsbPkkkkkkkkkkkkkkkkkkkkkkkkkkkkkkkkkkkkkkkkkkkkkkkkkkkkkkkkkkkkkkkkkkkkkk0kciJQZaIu26whkgnoeKQgEcaDCSiikkkkkkkkkkkkkkkkkkkkkkkkkkkkkkkkkkkkkkkkkkkkkkkkkkkkkkkkkkkkkkkkkkkkkkkkkkkkkkkkkkkkkkkkkkkkkkkkMkkkkkkkkkkkkkkkkkkkkkkkkkkkkkkkkkkkkkkkkkkkkkkkkkkkkkkkkkkkkkkkkkkkkkkkkkkkkkkkkkkkkkkkkkkkkkkkkkkkkkkkkkkkkkkkkkkkkkkkkkkkkkkkkkkkkkkkkkkkkkkkkkkkkkkkkkkkkkkkkkkkkkkkkkkkkkkkkkkkkkkkkkkkkkkkkkkkkkkkkkkkkkkkkkkkkkkkkkkkkkkkkkkkkkkkkkkkkkkkkkkkkkkkkkkkkkkkkkkkkkkkkkkkkkkkkkkkkkkkkkkkkkkkkkkkkkkkkkkkkkkkkkkkkkkkkkkkkkkkkkkkkkkkkkkkkkkkkkkkkkkkkkkkkkkkkkkkkkkkkkkkkkkkkkkkkkkkkkkkkkkkkkkkkkkkkkkkkkkkkkkkkkkkkkkkkkkkkkkkkkkkkkkkkkkkkkkkkkkkkkkkkkkkkkkkkkkkkkkkkkkkkkkkkkkkkkkkkkkkkkkkkkkkkkkkkkkkkkkkkkkkkkkkkkkkkkkkkkkkkkkkkkkkkkkkkkkkkkkkkkkkkkkkkkkkkkkkkkkkkkkkkkkkkkkkkkkkkkkkkkkkkkkkkkkkkkkkkkkkkkkkkkkkkkkkkkkkkkkkkkkkkkkkkkkkkkkkkkkkkkkkkkkkkkkkkkkkkkkkkkkkkkkkkkkkkkkkkkkkkkkkkkkkkkkkkkkkkkkkkkkkkkkkkkkkkkkkkkkkkkkkkkkkkkkkkkkkkkkkkkkkkkkkkkkkkkkkkkkkkkkkkkkkkkkkkkkkkkkkkkkkkkkkkkkkkkkkkkkkkkkkkkkkkkkkkkkkkkkkkkkkkkkkkkkkkkkkkkkkkkkkkkkkkkkkkkkkkkkkkkkkkkkkkkkkkkkkkkkkkkkkkkkkkkkkkkkkkkkkkkkkkkkkkkkkkkkkkkkkkkkkkkkkkkkkkkkkkkkkkkkkkkkkkkkkkkkkkkkkkkkkkkkkkkkkkkkkkkkkkkkkkkkkkkkkkkkkkkkkkkkkkkkkkkkkkkkkkkkkkkkkkkkkkkkkkkkkkkkkkkkkkkkkkkkkkkkkkkkkkkkkkkkkkkkkkkkkkkkkkkkkkkkkkkkkkkkkkkkkkkkkkkkkkkkkkkkkkkkkkkkkkkkkkkkkkkkkkkkkkkkkkkkkkkkkkkkkkkkkkkkkkkkkkkkkkkkkkkkkkkkkkkkkkkkkkkkkkkkkkkkkkkkkkkkkkkkkkkkkkkkkkkkkkkkkkkkkkkkkkkkkkkkkkkkkkkkkkkkkkkkkkkkkkkkkkkkkkkkkkkkkkkkkkkkkkkkkkkkkkkkkkkkkkkkkkkkkkkkkkkkkkkkkkkkkkkkkkkkkkkkkkkkkkkkkkkkkkkkkkkkkkkkkkkkkkkkkkkkkkkkkkkkkkkkkkkkkkkkkkkkkkkkkkkkkkkkkkkkkkkkkkkkkkkkkkkkkkkkkkkkkkkkkkkkkkkkkkkkkkkkkkkkkkkkkkkkkkkkkkkkkkkkkkkkkkkkkkkkkkkkkkkkkkkkkkkkkkkkkkkkkkkkkkkkkkkkkkkkkkkkkkkkkkkkkkkkkkkkkkkkkkkkkkkkkkkkkkkkkkkkkkkkkkkkkkkkkkkkkkkkkkkkkkkkkkkkkkkkkkkkkkkkkkkkkkkkkkkkkkkkkkkkkkkkkkkkkkkkkkkkkkkkkkkkkkkkkkkkkkkkkkkkkkkkkkkkkkkkkkkkkkkkkkkkkkkkkkkkkkkkkkkkkkkkkkkkkkkkkkkkkkkkkkkkkkkkkkkkkkkkkkkkkkkkkkkkkkkkkkkkkkkkkkkkkkkkkkkkkkkkkkkkkkkkkkkkkkkkkkkkkkkkkkkkkkkkkkkkkkkkkkkkkkkkkkkkkkkkkkkkkkkkkkkkkkkkkkkkkkkkkkkkkkkkkkkkkkkkkkkkkkkkkkkkkkkkkkkkkkkkkkkkkkkkkkkkkkkkkkkkkkkkkkkkkkkkkkkkkkkkkkkkkkkkkkkkkkkkkkkkkkkkkkkkkkkkkkkkkkkkkkkkkkkkkkkkkkkkkkkkkkkkkkkkkkkkkkkkkkkkkkkkkkkkkkkkkkkkkkkkkkkkkkkkkkkkkkkkkkkkkkkkkkkkkkkkkkkkkkkkkkkkkkkkkkkkkkkkkkkkkkkkkkkkkkkkkkkkkkkkkkkkkkkkkkkkkkkkkkkkkkkkkkkkkkkkkkkkkkkkkkkkkkkkkkkkkkkkkkkkkkkkkkkkkkkkkkkkkkkkkkkkkkkkkkkkkkkkkkkkkkkkkkkkkkkkkkkkkkkkkkkkkkkkkkkkkkkkkkkkkkkkkkkkkkkkkkkkkkkkkkkkkkkkkkkkkkkkkkkkkkkkkkkkkkkkkkkkkkkkkkkkkkkkkkkkkkkkkkkkkkkkkkkkkkkkkkkkkkkkkkkkkkkkkkkkkkkkkkkkkkkkkkkkkkkkkkkkkkkkkkkkkkkkkkkkkkkkkkkkkkkkkkkkkkkkkkkkkkkkkkkkkkkkkkkkkkkkkkkkkkkkkkkkkkkkkkkkkkkkkkkkkkkkkkkkkkkkkkkkkkkkkkkkkkkkkkkkkkkkkkkkkkkkkkkkkkkkkkkkkkkkkkkkkkkkkkkkkkkkkkkkkkkkkkkkkkkkkkkkkkkkkkkkkkkkkkkkkkkkkkkkkkkkkkkkkkkkkkkkkkkkkkkkkkkkkkkkkkkkkkkkkkkkkkkkkkkkkkkkkkkkkkkkkkkkkkkkkkkkkkkkkkkkkkkkkkkkkkkkkkkkkkkkkkkkkkkkkkkkkkkkkkkkkkkkkkkkkkkkkkkkkkkkkkkkkkkkkkkkkkkkkkkkkkkkkkkkkkkkkkkkkkkkkkkkkkkkkkkkkkkkkkkkkkkkkkkkkkkkkkkkkkkkkkkkkkkkkkkkkkkkkkkkkkkkkkkkkkkkkkkkkkkkkkkkkkkkkkkkkkkkkkkkkkkkkkkkkkkkkkkkkkkkkkkkkkkkkkkkkkkkkkkkkkkkkkkkkkkkkkkkkkkkkkkkkkkkkkkkkkkkkkkkkkkkkkkkkkkkkkkkkkkkkkkkkkkkkkkkkkkkkkkkkkkkkkkkkkkkkkkkkkkkkkkkkkkkkkkkkkkkkkkkkkkkkkkkkkkkkkkkkkkkkkkkkkkkkkkkkkkkkkkkkkkkkkkkkkkkkkkkkkkkkkkkkkkkkkkkkkkkkkkkkkkkkkkkkkkkkkkkkkkkkkkkkkkkkkkkkkkkkkkkkkkkkkkkkkkkkkkkkkkkkkkkkkkkkkkkkkkkkkkkkkkkkkkkkkkkkkkkkkkkkkkkkkkkkkkkkkkkkkkkkkkkkkkkkkkkkkkkkkkkkkkkkkkkkkkkkkkkkkkkkkkkkkkkkkkkkkkkkkkkkkkkkkkkkkkkkkkkkkkkkkkkkkkkkkkkkkkkkkkkkkkkkkkkkkkkkkkkkkkkkkkkkkkkkkkkkkkkkkkkkkkkkkkkkkkkkkkkkkkkkkkkkkkkkkkkkkkkkkkkkkkkkkkkkkkkkkkkkkkkkkkkkkkkkkkkkkkkkkkkkkkkkkkkkkkkkkkkkkkkkkkkkkkkkkkkkkkkkkkkkkkkkkkkkkkkkkkkkkkkkkkkkkkkkkkkkkkkkkkkkkkkkkkkkkkkkkkkkkkkkkkkkkkkkkkkkkkkkkkkkkkkkkkkkkkkkkkkkkkkkkkkkkkkkkkkkkkkkkkkkkkkkkkkkkkkkkkkkkkkkkkkkkkkkkkkkkkkkkkkkkkkkkkkkkkkkkkkkkkkkkkkkkkkkkkkkkkkkkkkkkkkkkkkkkkkkkkkkkkkkkkkkkkkkkkkkkkkkkkkkkkkkkkkkkkkkkkkkkkkkkkkkkkkkkkkkkkkkkkkkkkkkkkkkkkkkkkkkkkkkkkkkkkkkkkkkkkkkkkkkkkkkkkkkkkkkkkkkkkkkkkkkkkkkkkkkkkkkkkkkkkkkkkkkkkkkkkkkkkkkkkkkkkkkkkkkkkkkkkkkkkkkkkkkkkkkkkkkkkkkkkkkkkkkkkkkkkkkkkkkkkkkkkkkkkkkkkkkkkkkkkkkkkkkkkkkkkkkkkkkkkkkkkkkkkkkkkkkkkkkkkkkkkkkkkkkkkkkkkkkkkkkkkkkkkkkkkkkkkkkkkkkkkkkkkkkkkkkkkkkkkkkkkkkkkkkkkkkkkkkkkkkkkkkkkkkkkkkkkkkkkkkkkkkkkkkkkkkkkkkkkkkkkkkkkkkkkkkkkkkkkkkkkkkkkkkkkkkkkkkkkkkkkkkkkkkkkkkkkkkkkkkkkkkkkkkkkkkkkkkkkkkkkkkkkkkkkkkkkkkkkkkkkkkkkkkkkkkkkkkkkkkkkkkkkkkkkkkkkkkkkkkkkkkkkkkkkkkkkkkkkkkkkkkkkkkkkkkkkkkkkkkkkkkkkkkkkkkkkkkkkkkkkkkkkkkkkkkkkkkkkkkkkkkkkkkkkkkkkkkkkkkkkkkkkkkkkkkkkkkkkkkkkkkkkkkkkkkkkkkkkkkkkkkkkkkkkkkkkkkkkkkkkkkkkkkkkkkkkkkkkkkkkkkkkkkkkkkkkkkkkkkkkkkkkkkkkkkkkkkkkkkkkkkkkkkkkkkkkkkkkkkkkkkkkkkkkkkkkkkkkkkkkkkkkkkkkkkkkkkkkkkkkkkkkkkkkkkkkkkkkkkkkkkkkkkkkkkkkkkkkkkkkkkkkkkkkkkkkkkkkkkkkkkkkkkkkkkkkkkkkkkkkkkkkkkkkkkkkkkkkkkkkkkkkkkkkkkkkkkkkkkkkkkkkkkkkkkkkkkkkkkkkkkkkkkkkkkkkkkkkkkkkkkkkkkkkkkkkkkkkkkkkkkkkkkkkkkkkkkkkkkkkkkkkkkkkkkkkkkkkkkkkkkkkkkkkkkkkkkkkkkkkkkkkkkkkkkkkkkkkkkkkkkkkkkkkkkkkkkkkkkkkkkkkkkkkkkkkkkkkkkkkkkkkkkkkkkkkkkkkkkkkkkkkkkkkkkkkkkkkkkkkkkkkkkkkkkkkkkkkkkkkkkkkkkkkkkkkkkkkkkkkkkkkkkkkkkkkkkkkkkkkkkkkkkkkkkkkkkkkkkkkkkkkkkkkkkkkkkkkkkkkkkkkkkkkkkkkkkkkkkkkkkkkkkkkkkkkkkkkkkkkkkkkkkkkkkkkkkkkkkkkkkkkkkkkkkkkkkkkkkkkkkkkkkkkkkkkkkkkkkkkkkkkkkkkkkkkkkkkkkkkkkkkkkkkkkkkkkkkkkkkkkkkkkkkkkkkkkkkkkkkkkkkkkkkkkkkkkkkkkkkkkkkkkkkkkkkkkkkkkkkkkkkkkkkkkkkkkkkkkkkkkkkkkkkkkkkkkkkkkkkkkkkkkkkkkkkkkkkkkkkkkkkkkkkkkkkkkkkkkkkkkkkkkkkkkkkkkkkkkkkkkkkkkkkkkkkkkkkkkkkkkkkkkkkkkkkkkkkkkkkkkkkkkkkkkkkkkkkkkkkkkkkkkkkkkkkkkkkkkkkkkkkkkkkkkkkkkkkkkkkkkkkkkkkkkkkkkkkkkkkkkkkkkkkkkkkkkkkkkkkkkkkkkkkkkkkkkkkkkkkkkkkkkkkkkkkkkkkkkkkkkkkkkkkkkkkkkkkkkkkkkkkkkkkkkkkkkkkkkkkkkkkkkkkkkkkkkkkkkkkkkkkkkkkkkkkkkkkkkkkkkkkkkkkkkkkkkkkkkkkkkkkkkkkkkkkkkkkkkkkkkkkkkkkkkkkkkkkkkkkkkkkkkkkkkkkkkkkkkkkkkkkkkkkkkkkkkkkkkkkkkkkkkkkkkkkkkkkkkkkkkkkkkkkkkkkkkkkkkkkkkkkkkkkkkkkkkkkkkkkkkkkkkkkkkkkkkkkkkkkkkkkkkkkkkkkkkkkkkkkkkkkkkkkkkkkkkkkkkkkkkkkkkkkkkkkkkkkkkkkkkkkkkkkkkkkkkkkkkkkkkkkkkkkkkkkkkkkkkkkkkkkkkkkkkkkkkkkkkkkkkkkkkkkkkkkkkkkkkkkkkkkkkkkkkkkkkkkkkkkkkkkkkkkkkkkkkkkkkkkkkkkkkkkkkkkkkkkkkkkkkkkkkkkkkkkkkkkkkkkkkkkkkkkkkkkkkkkkkkkkkkkkkkkkkkkkkkkkkkkkkkkkkkkkkkkkkkkkkkkkkkkkkkkkkkkkkkkkkkkkkkkkkkkkkkkkkkkkkkkkkkkkkkkkkkkkkkkkkkkkkkkkkkkkkkkkkkkkkkkkkkkkkkkkkkkkkkkkkkkkkkkkkkkkkkkkkkkkkkkkkkkkkkkkkkkkkkkkkkkkkkkkkkkkkkkkkkkkkkkkkkkkkkkkkkkkkkkkkkkkkkkkkkkkkkkkkkkkkkkkkkkkkkkkkkkkkkkkkkkkkkkkkkkkkkkkkkkkkkkkkkkkkkkkkkkkkkkkkkkkkkkkkkkkkkkkkkkkkkkkkkkkkkkkkkkkkkkkkkkkkkkkkkkkkkkkkkkkkkkkkkkkkkkkkkkkkkkkkkkkkkkkkkkkkkkkkkkkkkkkkkkkkkkkkkkkkkkkkkkkkkkkkkkkkkkkkkkkkkkkkkkkkkkkkkkkkkkkkkkkkkkkkkkkkkkkkkkkkkkkkkkkkkkkkkkkkkkkkkkkkkkkkkkkkkkkkkkkkkkkkkkkkkkkkkkkkkkkkkkkkkkkkkkkkkkkkkkkkkkkkkkkkkkkkkkkkkkkkkkkkkkkkkkkkkkkkkkkkkkkkkkkkkkkkkkkkkkkkkkkkkkkkkkkkkkkkkkkkkkkkkkkkkkkkkkkkkkkkkkkkkkkkkkkkkkkkkkkkkkkkkkkkkkkkkkkkkkkkkkkkkkkkkkkkkkkkkkkkkkkkkkkkkkkkkkkkkkkkkkkkkkkkkkkkkkkkkkkkkkkkkkkkkkkkkkkkkkkkkkkkkkkkkkkkkkkkkkkkkkkkkkkkkkkkkkkkkkkkkkkkkkkkkkkkkkkkkkkkkkkkkkkkkkkkkkkkkkkkkkkkkkkkkkkknHkkkkkkkkkkkkkkkkkkkkkkkkkkkkkkkkkkkkkkkkkkkkkkkkkkkkkkkkkkkkkkkkkkkkkkkkkkkkkkkkkkkkkkkkkkkkkkkkk1mknkkkkkkkkkkkkkkkkkkkkkkkkkkkkkkkkkkkkkkkkkkkkkkkkkkkkkkkkkkkkkkkkkkkkkkkkkkkkkkkkkkkkkkkkkkkkkkkkkkkkkkkkkkkkkkkkkkkkkkkkkkkkkkkkkkkkkkkkkkkkkkkkkkkkkkkkkkkkkkkkkkkkkkkkkkkkkkkkkkkkkkkkkkkkkkkkkkkkkjhkkkkkkkkkkkkkkkkkkkkkkkkkkkkkkkkkkkkkkkkkkkkkkkkkkkkkkkkkkkkkkkkkkkkkkkkkkkkkkkkkkkkkkkkkkkkkkkkkxkihkkkkkkkkkkkkkkkkkkkkkkkkkkkkkkkkkkkkkkkkkkkkkkkkkkkkkkkkkkkkkkkkkkkkkkkkkkkkkkkkkkkkkkkkkkkkkkkkgjMgkkkkkkkkkkkkkkkkkkkkkkkkkkkkkkkkkkkkkkkkkkkkkkkkkkkkkkkkkkkkkkkkkkkkkkkkkkkkkkkkkkkkkkkkkkkkkkkkkiEkkkkkkkkkkkkkkkkkkkkkkkkkkkkkkkkkkkkkkkkkkkkkkkkkkkkkkkkkkkkkkkkkkkkkkkkkkkkkkkkkkkkkkkkkkkkkkkkkgjdikkkkkkkkkkkkkkkkkkkkkkkkkkkkkkkkkkkkkkkkkkkkkkkkkkkkkkkkkkkkkkkkkkkkkkkkkkkkkkkkkkkkkkkkkkkkkkkkBnbhkkkkkkkkkkkkkkkkkkkkkkkkkkkkkkkkkkkkkkkkkkkkkkkkkkkkkkkkkkkkkkkkkkkkkkkkkkkkkkkkkkkkkkkkkkkkkkkkkkkkkkkkkkkkkkkkkkkkkkkkkkkkkkkkkkkkkkkkkkkkkkkkkkkkkkkkkkkkkkkkkkkkkkkkkkkkkkkkkkkkkkkkkkkkkkkkkkkkhgNlkkkkkkkkkkkkkkkkkkkkkkkkkkkkkkkkkkkkkkkkkkkkkkkkkkkkkkkkkkkkkkkkkkkkkkkkkkkkkkkkkkkkkkkkkkkkkkkkxjFjkkkkkkkkkkkkkkkkkkkkkkkkkkkkkkkkkkkkkkkkkkkkkkkkkkkkkkkkkkkkkkkkkkkkkkkkkkkkkkkkkkkkkkkkkkkkkkkkkmokkkkkkkkkkkkkkkkkkkkkkkkkkkkkkkkkkkkkkkkkkkkkkkkkkkkkkkkkkkkkkkkkkkkkkkkkkkkkkkkkkkkkkkkkkkkkkkkkknMkkkkkkkkkkkkkkkkkkkkkkkkkkkkkkkkkkkkkkkkkkkkkkkkkkkkkkkkkkkkkkkkkkkkkkkkkkkkkkkkkkkkkkkkkkkkkkkkkknfkkkkkkkkkkkkkkkkkkkkkkkkkkkkkkkkkkkkkkkkkkkkkkkkkkkkkkkkkkkkkkkkkkkkkkkkkkkkkkkkkkkkkkkkkkkkkkkkkknnkkkkkkkkkkkkkkkkkkkkkkkkkkkkkkkkkkkkkkkkkkkkkkkkkkkkkkkkkkkkkkkkkkkkkkkkkkkkkkkkkkkkkkkkkkkkkkkkkj0kzkkkkkkkkkkkkkkkkkkkkkkkkkkkkkkkkkkkkkkkkkkkkkkkkkkkkkkkkkkkkkkkkkkkkkkkkkkkkkkkkkkkkkkkkkkkkkkkkPCs68kkkkkkkkkkkkkkkkkkkkkkkkkkkkkkkkkkkkkkkkkkkkkkkkkkkkkkkkkkkkkkkkkkkkkkkkkkkkkkkkkkkkkkkkkkkkkkk1T/gEkkkkkkkkkkkkkkkkkkkkkkkkkkkkkkkkkkkkkkkkkkkkkkkkkkkkkkkkkkkkkkkkkkkkkkkkkkkkkkkkkkkkkkkkkkkkkkkkkkkkkkkkkkkkkkkkkkkkkkkkkkkkkkkkkkkkkkkkkkkkkkkkkkkkkkAAAAAAAAAAAAAAAAAAAAAAAAAAAAAAAAAAAAAAAAAAAAAAAAAAkkkkkkkkkkkkkkkkkkkkkkkkkkkkkkkksZi0Eg8c3H3JDH6v0kkljIxsCaVgS2HPsvPzBOsX4KVgU+CwkkkkkkkkkkkkkkkkkkkkkkkkkkkkkkkkkkkkkkkkkkkkkkkkkkkkzvDcKrz930300kpLskkhRxhp0eGmkfNozQ0uDYk0Zw4ZJ9tPkkkkkkkkkkkkkkkkkkkkkkkkkkkkkkkkkkkkkkkkkkkkkkkkkkkkx2KcvUaNht9aNjYSUkkklj0JD62gtlmq0XA9JIUP837E3JLykkkkkkkkkkkkkkkkkkkkkkkkkkkkkkkkkkkkkkkkkkkkkkkkkkkkkkkkkkkkkkkkkkkkkkkkkkkkkkkkkkkkkkkkkkkkkkkkkkkkkkkkkkkkkkkkkkkkkkkk/8QALxEBAAICAgEDAwMEAwADAQAAAREhADFBUWFxgZGhsRDwcMEwINHhYIDxQFCQ0P/aAAgBAwEBPxD9/SG0RsmDiQMqvKB+Ew+RwEqBIXCF82PvgRcJQwNshmjYWcmLmlQAEjaxua5bqseRoDSIjpEpHBJk7ZVr8IwTugwLES8H6Qp20E7mT74tBglmnQyh8CXGSBawnZOnd1zkwciVowl2bLO0j1goJD7ssRASuK6hkWLsGSOeuYwLSmUKQg5tmArMFfinZJgKxWZHzikKIQGRoBZQYJO8TJiSw5UFo5iY5yEoZIApSLiyMCVwxoyEDpE88TE4quEQgvRO3uKOXIV7gWQ8EdI8IxhBE2DQgY7tyEoZIApSLiyMCVwpIgkKxh7NCi/inZJgKxWZHzgm1xRxaAaoMEneKElQQ9TY+URgRcJQwNshmjYWcmF5QSlCmHBN8gHGC3TUIM3JG2jQtGGW6kFGxNyc1BhdcwUCYRM0jJRzhki8lIJLRibITGGLnzjRbJqaJ5yKsLKmkp8Fd8Y9iLsQ6JGHKLRCklJIKK98TU4ewZqQAYVNF166yVE4QBRhOmkbOTAAn6l/oAcXR7IKHUr6YMSip8b9vOSCUWJKnzda3rCiCSiGwNhcT41GWGDNAAgYPvi4CQL5XR58+MBihWCAIVT8n64zoLIFPkHXrkEFHYUdOg5TfeGox6H55w85VBjI1BUGGTYWO8tAkiUBeid4AcDeCwBWCXbMF8ZDRFIOiFCzyay0CSJQF6J3gUhslADtdRkCwNgUkj8840EIlQCCdpswUI4ED6Bwl7gPETO50EMrrHs5KEPfTPEYJikhIDbrz75MEIYYDD0w1goRwIH0DiMEJ/zuIWBShKhATteDbkRkG5G/3L+Mb8RokCVMbuKmlxqEggZpThKYkAXeGCFGpIIhjccDiGMihGAMjGk5GzDUnZQBVa1usmc60sfCxjWEwEFWg7Ymi8ciiAwKNlQjSkjWODRimhA0dSxU8uLDBdTQnaKa3usWhmAklBkhtDmMliJDwI/PWUhOICAZotGGTbbF45CYhVggbZiCDfv+ExExuJM4FPkn2wTaFBFQTbczBiwo3NSqonqN0Th8rUMwr2GlO+MD5CQ0gClbEVBE1kY3IikBoD4TNajC0QlbMlhdyQPq6yrgZEQEiFjVDCminAkN0EYV7OFO+MjpNgAShCJVAqe0/CYiY3EmcCnyT7YtHISpX5cdIJJERg06qK841CQQM0pwlMSALvBqAthPIjcDU6xa2SIQxI3VshYlInEgnBB2vA7Dxru2Y4KmwpRMgi0a7B4Re5lom7THKE5Axatusg7Wyzwk43CILWLs5XXOucAWNApLEkG2OY1hcYxYRBLMwRczrnDGUFCQoVkSMpqTdmVGbESTJVEwczVxjNyMD7v98kIShLQeXNAYRGY00nr75QdLZ0lmwYj65Od8AvWuPXBzmiCdBk2RFziOCMMWKIfWsIJQpGRVr4B8uIcEBMkSlXrLXsCwsTS2c06k3iEHkiKEhNCOn3jAuCQpGG0FBnWK3FiepEn2nJ8sAgMyn6hvxkoLAh5MyqepM1jVQgJ6AIPTWLYiI3CwpjvzGDRJlWJOZPezzkoLAh5MyqepM1gCfOIr12iqnUm9YOpaYDAO1KPnBE9O9qIjtcW6qIIRpvYdkTjRJ13kyhTHtieSMUoBERLUnnE7vAEGGCdT6OCYEwJthZg5jnFuqiCEab2HZE4YZKymm9nh/wCmvRQamsGNQSUA9jiQLnBEQZMqByRfNawk0KxIL2+2DBYlmvvkCCqkRJ6rCTQrEgvb7YvSAxKi+siOJZpg7XeALM28ER5PZd4YwQYjdovzkzTkhFPUMBxEolQB8zkW4fmnkwIUriilcUR5Z1rFKVECUvn5wvCZKaC+PB9sBZ0BhE9LownAlVI2J0XvVdYkIIsiPhJwHXDb4jB6CgvoODGIFpnVxXNaxkMMSyK4u6fG8fwjSRL31WDCSVUi2DYcT41GHUo3EHuaDA0StIyeknOIUCBBAs3Q7xGhZkUPCEAjx3NUmshnE2XMjpE3gIU/9GQKr/gjDeakgN+44DCNCAqegMDDCxHhZe5XrkGrf61z/OGQyp0DDiI141i0CrLDtjnxixAewk9EK69MP02sbOZuOjE0RAajk2ffCAHb74CwA2rB8944IG6Szh7e2OCD6In0wAYbSoFXtrFIBolT2encfFZp9cpHRHuGNkRrQ8s7njCIYfgfWMuaqSJE+acisGIkdIkKFNmMuQBBIn015wpcV88pPZzd/QJVzPQ0fXJGCmQFk1s+uUSEqpJ111lDBsh/GMQKE+uCpUDQhcfbvEaELbIj1wmQXqNQf4xyMH0ZwwErhlbbSMNZH35+kZxkhNDfxgQbVqMSEVskk9srKhJMKTlsgdrGSIVC548mDjC9SgvpiqFgmnCjhHkZzaqdxNx6ZAUBMSsZuIHiy/TvHBIjc1HriRYeDNOJCK2SSe2QIJZmzjr/AJW/iJMMei4xuUvLP3wSjBknT29shWNFlgREkbWqjeJZCBPqbyFMJgZAOVKvWQrGiywIiSNrVRvJrgMoJ5JjZ04BkOJe2pCd3MeMFhLmKDcJBtxuiAYtkpMe8+mPhigFLIjRo7nHjEzYm9FxjUZgWO4165a0YXQsb8ViliRBHS9fo5jHLgBb64wIKF7vjvGHBYxzELjrD1IOBFoJrjXOSpeG4CGaiLOmsMYaEnkpKJQ2Qk5NrgNk2qL1fGNpCCQYFm5f4knJ6yGQpCY7V+sdZKO0JJ0DJxEYAgTFTaOJ16cTksURgZACNlS9dYITBJmiImeo5wFkivvkwwtECO9k3xJjJSgjKQZauX5yTAHJXL8CBYCJGfTJYggyBCzbxjgSwfRafbc5AZBWkkHqf9ZoHWQDpoDE8gMjqeR6POBLuohJmey/lxZLE6I9ZjXjHAVh4FG2evPjFRkVZ64SMDokIkUtCfZxo500gmaYrbOJMD6I/bJrwQxLAvAvA4XIwsaEN2v0xQV7x95F2WZLlQSDSrvEzWOAr7GJuGg6Tvz4cJIAIksJPs7HF1M2IURPFxGBMAm2jbNn98VKJysNKCzo98o8UPh8+HEmB9GftgQxGOb0cYKGU35HeI5wGV8v+DKyICDNWd4BVkxCwlcTrI3Gk6iPeKvDAoJ8qjNZf+SMA3SCHev13+CeSAWC8mxpJYz84BV3B5vEGJQ3NK139M2PSqHLMk/XC0CWFa4owxwQKkHLEn+7wrRXylNZVldo9shCm7iT15+MdIuVe2MUaD2ZBaWkXTC+3pgioDNRWtxWAVdwebxBQDZL3H/LwgKy9PH/AMEBHQAWRg1MJOc0NVoDQf8A31BCjln+En9oMW1FRigJRCVTfoemT0LoJ+mCCoOXKtTru8bNU/V5UBZD6MODoKbfXWWNePmNxjiQL8+JMTOvUph5IuvPpigONq/oonCuPGEBiQY6XjIxYnKEjLVcinLiIRTiYq4MKmTEoUOM2ukxKXbCS77/AIwpzCaK4yJS3qOO8RQ4fE+cXFhvx/jIMw44dSXHWRfX5yesynOSRxpFgj64NEozmjEUEh1zwe+LKFD4840Mk8kkRbhxUTf7L1XMpw0pEicTwnCYpojLG2KnQpXrWBbCAHajsPBzkQnR9UTnIzKcvD1h498DuHR4h+MHmxwW88YBQko+Wz1h9ZwfJoSZk7JvxhdtCO0Nh/jnB1bKHYcvgfrgQXp7Tr+i8BpFe2OFKsXyVPo7wJmOUtXc1thxjT1qZ/U5w22df4zYkEeQ3H384k0IIcnb4nBKl7wN63DY4MNTgbfHtzmvCWpZdnplRO7zOjzn332MPv8A2x4UoH6OG2kpJZGdwP1yBiYkG6K8+uDOkYePGPogMT11iTGnfHziKJiZDud/GKD2RA/OvbPtvu4gBHDLEdNweTEWTCyHfD8ZsOI+msBGH/Iw69fs5TRE2pevfx+zApr8b/GvwKa/Crv8b/qzk8YiAPj+yY/oa/M8f0Z//YcFYMRGH9qJKnLCwGJRYw5/gxrzklIfQIIckKNO8DuHh/hPCWeH+gtIGCEL0Yn+88tNAKvoF4sYGxET1G8ifAKQg7lo98lGhV2JESA0Fbv+ie2Nl0N+7QeXGKGqcpsqw0q7oIxYWeBMeYZfcZOBxomJIdSYLvXf5ifAKQg7lo98lGhV2JESA0Fbv+/cDAJD1Yg9/wATtiA3BGdGfb8KSE6Ain0JYtWJgwW8CEIxPDAz5+c0yQiLCZYSfst9F+KGe0noFz6694wK3A+sT9BDKQrwAtpdI7O8EXGYXkgUTG9KONJAbVD1f4JfGJ1RyJ9oB9TEDIhGkekxI9IDb+vpiPJ9z7YJ+NkPr8jpKcL8ZolgoVv0MD8N8Mmp374AY8pjhfsfgxBdi0U7AF+YnKWlLKwNsIfScbDd03rR64pI8kg4DWBgtz1bl65D8IjTNP8A5kxnN0Ha6D9GeFAFP1B9Q84pfeH9fDpyrcBkxsWqenBaRZNFO4BfkMgamiMqNw/ww/mZkTB9Qh7wnrGJFEETEsohZHek54ESEJ+JmCaUiXXK+wxzip6cCj7SD5TFzBiLUJiH3yH4RGmaf/MvYG3QHa8fd4x+iORPtIPqYFCBhGkTY4F+IQpbC1AU2zBkETfc+2FXDEWoTEPV4D6fZVhvizFwBQoO6Kw6xIsmNzH2ch+MVtij/wBwXEAkwVNDzeAaUxddLx0AEGmd4jkBtUPfvwS+MK89rWPKIMdoIc42wMklqYuQwjRIWY3MfZ/BCFEM3cmvbHAqgDbh945Kfoj4U84xUf1Ox0nk/Y3lHU3yR5jIL+//AJzkajd90+JYOsfOUlXau1wGNgPYPqd8F4wsHKNqDQ/U5RilKliJvymfAGqxaQ/Xw9jyORhCPdB8Qk9R1k5pKHpIj1Ie2KGqZLYPA4D9Xj4SMncCRLz659Hm+rMPosh9klncIB8ovYRklIrgcFTlWYeoMRCNCaRIZNa52cZenrljdrW8EeAUKcPONS7/AIuav0XjXM0NkkoewgdWl4FcBmCzPrgLhUjks+sDqXGH03+MrKEyQtOA6j/e8a+Q25Wx99vn8ijJgEA5ZPgmfVF85TEqmPce43CeyTk1bEexEPwj41iMIThUkoE74XspOH0FyKY5Eur2pV+c1fovEucyUIBNKlhAjVu7yMuWe/w8h5nJAAUeFP0j3vEC5U2DNh4mI98UtQJYR7PGzzgU9SjuC/pi6UMWWTz5BIdKufTfbiYJdjGLDESRZfJxwy2LPOBTP0mO7DsbIj3k08ExoxT6QBVgtjO/4bz6n92fS/b+P1WDfyiYLAdsRKgvRiJSmZtPThHEa4yJTMMjKklRbY909/sjT9bkou0Pxm8rBeiDL3kemDEYIgDauNpkSfcF91Xo4R1yHsH8jAogMI7E4xigsJ5IX9MeeET9mBHRIHmHP3jASwMPWRPmI9XDggRO0kj00+RyWRWwE0WvoG8cZJgvZ9mCBf1HNX6LwTMgQOIPoIPpesBWDFqLFcky/AA9Ln0v2/j9V+QAkikG4mNbd6LxEYcWxvJ0Nz669XLSRUeUv0Y9TK5VkaklPka9HAVBvGKBMNJTZmr9F4LMSBSNBJHSD6p1n6E/nJzqSVJkmJJ4kddZ9Bj9Nz9M6wITvPGfTfb+H0+P6B3iEcfZywYl+CKPskPlMnwAgPXPqf3Zczr7fxI+LY9Vf5yEKLZDYRfsLxJg0QYRkE4bxkeIKqlaF1NKfsbwYDoiMckx6k+P7O2qfe/UR8vw6G++Kdw3E8iJ4nJNV5RXwDHgcfYQroDgOsfGykdDkf1TeesFISfLZPDhaXQGAVASURGNrjJOnhHwkjhYkW2B7oXHk1kT1ykWEolMzLZrATwmnOMoKT7iJPaJ6YDjMMBUfAB8+zN27J58PhKwIyTYMfcxxr2yKFAQoUkDcT754VITwm5g76xhXYdPk6fPyNZ5ChoPYkvgHzl8ToDQ6D9Ly515fBB5J341+NTa+aFfqd/ldE6BJE+57PznvgoS+8v5nPNTAT6wTL0qx04nSUyrtXa5Ev7gHQoieE9Ew8VZRXwT8JhGQtCphGNMajT754VITwm5g76xzBsOnz4fPyOIfY1Pf/jDBBBAIA3Hbvn6Z8sYT0IRO9ucWAxMTHEwx8ZzCARPDzB9shc+iYh1zIiUnp7xbqlUoRIgIhOZM4+gdEepPw1+OH+NngIRO9vWcKhCYmOJhj4cmNwCJ4eYPtjaezAsJOwkRHpPfEpyDEYLZQJe/pn1P7siS+JI1pHsvjS+uMh95Ug9wr7YOmzF5oV0EbjfGfTQpORORyI5DEX6yT7Lh8YSBz6wHPAeZ/cHUiBfZyWeA0lzPIf/ANWoUMhhf7iRf4WEyGafgH/sYsfgM/uJN/iFvEj8hf3EIZCt/wDY2b/Dl4av8DP7hRf4cn8hH/Yqfwzxg+cGfwM/uFEP4cjAj8B+4sH7jqmsl6/cdQyMCD9xknJYef3EkP7pn9wVjAzTj1mmvwE25S8Gf3Baw7cScRxhMXln/dTeO70QP0y68JSJhiYlgjaSwTA4Fjg5qcKnMncWqfUwq4HSjD6ZcpjqtNVtO55wY0OlEH07/BBMiGlmg9qPYcC3lld2KeaY9R/G5F3wG1fAXiOoikuyBAdTLETiAkqENiBTww4MMLAwQWwmK2JGEuK3zW3Wt84ZsrW5QPrWJDSCQJLUAfTIXwmwCNF3HL/vGPYkE9SxkJq4Wj4BQdiGSJc38gHiXb6FuS7cwyyh+EIeuT9jJEFJJqwk+TC2IMagC/SWsYwzlAkmC6AtQ1q8cFVCIbuQdckXxhwRu07J9PTDwupmoJaye8UysLqXWOTAIZmXuhPSMXKPcyuigt56qcQpEH94KwZFLjEUSuKte+MKKh4mb8OKwg+SME0u9cYjBLkCCWPSDrvJaOn8kY5UV+Nma9s5J5RXzhB1Gd3LFV84lMmskAxvGVIRhgsTqT8ck8or5yUUrFbGCUCcREIOKwj6E5CKXrDDI7Ej1rFYEYYLE6k/CgouxMJ36mNQq+MRUO8KzNUrUYn7Rj16fcvGHlUmpAWPRY9sAMB5is2BWdoXmMcGnlHhHDUoOVCpDW6xHa79sSGoeYr8CgGDnDiYEg26MjDD5wcpSD1cRMoSBPIB1285ITC0Nv8AvIoo9OICqrda9cbmAgKlWN9G2MeKDcJV8TFXtdHnEWtH2wgKXqLweAZwIBByTkY6JyKKvjBYRnrnF5A+SP8AlP6d1wHIClVbdqSvlxbzaIRArAmiJVeDCPiTYjlJrUrb5wEEUZ1FDgdyHGzCyHWdNS/D1YMXFlb4DhNFECOtfhB1yim4WRSyMRfgIIRLYUg1M2uXLgkkSR0k7HsrFnhq+CB9mJeC8TMM0goOFGx8ffIqc6E2NEd3SORfrClTgDMWR2GsCekgcysjod9YU3A++CHcBL0YuOVCW9KOuHb6jiABSyG1tt24RMoAdqwHzknTRUTSkBI3KvriAZIApmTJBRXfM5qMUxcAQVtI98TCBIekrg8wBDlT+NPfFVzu5SFHKtnXrkSg2oYLi3i2MquKW2nlH21kRNCgbcAPpgELhbkdsHpOaOo1IG4AEBtj65wScZedq5deNUxiKh3/AH+OEfjG5sBEuGCR6TrICaClDOwobXYRhKK0TDakLWP5x1IpQ0zAz3VXhgMNBGySn0nrFtV1WZj1eZwGAkJ7RrzExjkImNu2Yn2xd1EQF6iqER0rwwZoBa5xHjcZIZNmd7d4JsP85H0x5OxGg6F7Xk4yvUs5FO9I66v0/C7qIgL1FUIjpXixjX2jDChDfhyXcj7mFqUFWqZAT9QxiEFllNqGL1o98d4QdEjXhCJmPOUMwCQkcNwk64xiariTsGC/9JxlepZyKd6R11fpm6yJ9JvGkh1uBDQ11Dgr8kwEKmnaffeXXIXtBbmCep8Zv+tWG5IJ5MPqkPbCEs/KsZNNEwqKahXh1TxjVkJ9hlvTSyiyyvE634xBiXoTr3EfGMSqBCiDhAobCcc/hBQorWuUbZ2OM6QpIBCxT4mtYSdcksqVUwTH85rFRPpzjrFqFiN7++SUCQ6Lac6ieQxOKgjdp6rjXvkwEoPDd1rdzvJ+DTCkTaOp5zdWZGDatF1EZCCVoHPJIC3pGMAy5RRsw7TqLyl52XYFmievMZNbIyWYlRjrC9BF2vujmfjFET3qARJNKCz1e8ingZOmdWD3c94oi7BqhJ9uo/5SlBEiUiaR4THTIlVlXtXbm+vwgPsOePEWUiImZiKjqs1p8EQ9BcZelQqlprq7rnAQNoRPhfwgJQASrAaCeDg4xPhHAUIak0xxOssDACVYGgnQcBX48WRCPYGsdUBGFJHYxseRpw8sNIonolmeM8FG93u+e8KITUqx6de2VJQAIDoBgwsSNEB6SuCqTeI1nUK11vXjWKFOLNmJ1MamOcGKPSkSa2Xklm+xikTGpip3GaDpiD1Aw++G3BpGE9EwD0oifC4OWgBKsBoJ0HAViY1Bkkwe41PnDrBABAGgBoMVKgkFoHZMzHjP17/OInldv9CSml0pnNvOWfneBIA3at4ojohlkjUPEcdZMmdxZ+cEiwm1b1Pr5xaZ85lmfXeGpORMqzGp9OMDEDS1el4uankU+2GzOyLL65ASw1KsTuPXE6FctvznibCqfgMQNLV6XigI7hScQFIEWzXXphAGIFeRMCEDQq/fHFaXSn2xs4XIs/OC1J0qyejk6q7VfvnibCqfigeBauKvqvTJFV2MfbJZF2sv1ydkJIYYkdj4esCQacWKULCaPbDoZUba+cWLUGYmp7jvOUeMsfGsVFGCLZo0emKz+LLHx+EwC4Fj4zn/AJyz87xqWvKv3/Ee50KZICd5Z+d5LSu1XI7/AJyz1vesVIGxNManuMYVpdKfbFlHNG2zz375Iquxj7ZJHAmWfnFIEEk0xqTmOMfDHpT7ZPOdhR+c+pWWfnJl12s/vj//xAAvEQEAAgIBAgUEAgIDAAMBAAABEQAhMUFRYXGxgRChwZHwcNHhIDDxYIBAUKDQ/9oACAECAQE/EP36xbEg+9k5Ep8TdRYyg+Ez5FETcPMMfeqVLCYCbJbFSKdvMqCAGIeekTmuIq+cTUAwy6IZfTpXsmNkM/bdNZlmXPXh7dqsZqPoqxlpwJh0ww+DZfUERh569unsDamGe1zPE6zD0HwohCTpRBqKzgxEfmO9CoChtBQ9bi1XoE0dhw+lHbkB61FZwYiPzHe5AKDEgpPsDamGe1KagTuYeg+FRynE6weLqaIm4eYY+9BoQah3O8cd9VaAvKBQ8WigKicE460EAKpMAyHeycpOOJ7NRQWNwLHjT6eGfGwhI7JEnwmoi5gYcOPGgk71GV8KqyEHDhMX4R/oX/KPb8WOZxQs4fs3akOeMXJSzpaJntqckzz+c0yep1jP2qJzjc7n+6TiE8SgHRSWTTis7L2zQJorhPGapJyzmGSKzsvbNRJ4dU4oiHOKvudsVZM43jVjJboAsy8Rmigxk3jm9Xe5VkzjeNUZJP8AvZsUw3pUIM4vaN/fFGREAPHNh5CA1g7zqOlQIxAn1osUS3pTNlxrxLCBHwKkAkAv2bmqVDGUzOulbiDATtjmPKk2TbEZ24roWAfpWO2iWPHUYzBHM6iopEwQTqT2nBmkmNZiayQuxqtkjBTAPifmomRKZ9KLeSdEjnc/zRFkiiE6Ihj4ohQZoc682uLxJhIg/O1ZE2mfSkZa6jLOXpnrPtODNJMazE2bGDtUYoUfu2HkIDWDvOo6UAxgjPeShGZqmUM+HNxEYAEzjoxOqgHE2N5YGJ+1QpYZY8d9K4+yqITM+T42YclmDMTKK4hgy+xRzkrx30s/DAhDCSHr4lVGKRmc71OaEB6H+aka2aC5fWmEzmO5TcA+pFTKGSeO9cXhj5ohcLj89boGke9KgGCez43YAY6/HhckFe7rXXZVczCcXPiGNT9KAxE8d1ERgnyqEeHD9G58Qxqfpd0QTjnPNh6a6VAhpPK4jczicz4XgGAfSzwZIjHFasmzjvUWDGbiNzOJzPhQCBH/AI1IDSPrYCmOe1R6tTe3Xiki811G6m9uvFUgz4UGUpn8myqDxw/NAqdfFQDJPayBumUNoiPJusuu5agS7pIMydrkE/i7C7YxU0eKlLgshCftRFOOObujrxQTK+bWYN1GXOO1GclRAZniKZkuPqPO/Fizysy81CmkNTHmJPrV1CWmHl81sFgMtXHCqB6ekUcBhvwriXdFPy8bBkKwXCi85Ou4rprff1wVjNG7nxssrMvNRmaY+1j0hjc1HI/umv8ARJVKj2KF4bHzQBndRMXEjNTE+wOgqgS0cHX2ErLzUx0oiFhNFRVGGa7FQEtFRclSMXFNQE2ML0oiFJIj/tcCiSPrcAIqCxuPKzCp+KUTmEpJggCzCp+KkhkQ2WGBmaLMHMWAByetaCDPPFFOHFKEjlrIAmGaoYYJoUDpWTDSWHOMR9aFcUc0sBL1j+KkLS9J+bHkmPOwHDwmiQzxutJhkmwJ1vrZQyAKgcZZognpTgJjsTQmU75oYTqefsgUyvFwAdPFQxpFSRbWKwSPREWJU8N1F77uUr7TTDG5goQHpY5ZiIxZRLnrY8xZBYWyI5IrqhE2ZCUJ1RUS+1JidrQKzRjvRs5eFCgH5NNf5rBNSMu6AYaaTRFUSFEx5s5IsJg1ThBsIcNl1R3qKFTEO/ZzkO6p4KGPRZDvPxUhLOeljEDmrkceFhJpNhy7UgQNDJ7UOjrVQulQYBoY9FmXG4/7ebF4z/8ABwWQpmD/AO+7WKAg/T5MuKfOJ4KczXN3aoboWVFNk8lQPVUpl1ZMVEZHegyrIhy/0hlLURmjaaMgajtqgS0GQ3uXaNSJnFFaqqCc3Ms1KGYqUlIImKglaASWBjbZdV2DXmll9C5om7RsI9ayhGi5opqn9LyvVQGBKBOSc13RG6D7lRq/mqp6iknAzZdLjFYJhG6+BFBwsZqAfzn/AE9xVVg3XkpoBkoA6mgh6Fkl0ix+PGxJEGygvNmfTUBsxeXheFCR6Vw1Ym4AkKglqMJxe/ZHeV5uL5FIMBZHaJA1NZIdb9FkApP1hkf/AISFhhgwvN/Af5qZ4x/MfNFaX/QI6jGJxz/mDJBQZJKMUoYrmEz0TEHX/STcuPGgm50fmC52D0/uwc2M+PuMUoYrmEz0TEHX/MQQXic+wRPO8L5ezEdqObKHXS3N4z1Xz/S35Hf267setA9S0V8H260k0r9qbL9ObFAndP4aBEkayeAuhnxj8firVJj615oKC0t3dae2zV2p7MXrfDV9GtqydrKeon03eAlm3BR2EQ6x/dDNI2QDos2qvavl19/ec8k+lNsAjNGcnth1nobr0BPzxqLlpPpeAllnFiiIdX/miARxVExzn7UTZ4x+PxUk9J9KiGifu2ZjPhUh4F4CVB8Sj7zWmp9LwcpMvLxzV4KPesASOtaHL2TjSuHgKOAKdY/uymk/RvopHjNjroNnBwfhFAAYKoUTE+EE3Dojnn70xkxo/OlZlJUYklH3iuFv6sfF0/fm6NmBzfK+ZfyeLfweJWLs4sfcEz414EpkuNs48ytSNfW4eM8r5z9KDstJ8f3YNSdKkTbX2n+rLD3+lNkx50tRz9H/AAXVl8fapk74epYT1C/bijkzOPzysOZKOvC8r5z9KhHAG9fk1VheD/FV2zLHhdqQV+a2pkJK4ncUxDGPNoqQF899KAgTVGmM0QhGG6/Fp5MOPI9KkRrHa/P+l819PbzvkUFkbNnJjwf4r34p9fyf0b8rzf4fk8FkFzdMpeW6DJAUPH5+X+LlWsfDn4agA00ILqPK+R8y+Y82mi2fzX6on6VHOCHxKDKi+V8yufw5vynlfOfpUYlw+8n519nP+YR53zX09vO+R7xkonHt1p4PGqn1R60zFBn88Lqgwkl5Xzn6UFBGk/c/Ot7f7FAkhjcXz1fAuvxbhJ2832899PbztfEaJJ3aOJv8VGIIvz/pfN/T2HVM0h2dH88GhCCPAsLAPpP6N1jiMR07z/gRXNxHaNz9PZSL3Cue3o/P7oUICuP+C5GnZ/zcHI46+s/S6g2gY/gpRcmVcr81BIazsnxRL4cfn9XSk0vIdB/zUSDiIn0i8zZnpQuKaajnvq/mxO/uy3DwT07nt1ccR9Z9+kTVMPF3n+6TxHH5/FAEGr4vGXRdOlSWEiLzNmelgmKabPmvu/m+p/N3uyxHVnrcuxJdnn4uoAqJUa6WU4eCenft7bzZYjUs9bn2JIuzz8Wc9FmuQ1x69b8/6U2mE01pP8H83Sl0j6zUoSNM1n4/OKzYvL+wQqHSlDCv/wDVphJPHtJx13DzvaPufzXGw9kUP7BK2MPYQZcfX/BKLyf/AEY7FT/uK6Hix+wyt3KiUKzpCF6Z+LKQ7DMdHoUSbgPYpwf2EIHhVCNTZ5M6P5smWZnIf37opf2IC6sjj9ibq22eyrDUCHy1CTjvv2fpP2EpfaQcJqJg+aUht7YDj/0UN0PZyMrvFeAD1pGfHs7H7BGKzNPsCysR1oiT7NlIB4a9kG79iGM3uVHL+xpa5wyPSG6/Y0mKx0okCeD+KKhnx/YymSeDFEgI8VTSIP2ILKPpURh/wVgTVYEfsE2hnqc0sPsNHYqNxGeo3AiQY/n0rmokQ/T2WCwAT3UmtIl2dnRPrTiLnk6fsAVSNNwoeN22Nr1/quSQ0bGZsqEclUDAYzp/uy4nX/tNdmBfixEkk/ibEAJ+15ByfLRGBzUijHEb9aMhT7Ht9B5r9rOG+fE37KdRYRE8RMeLZYQgL42LkGyIfRrH7j1m6Lkz9qZTHwGPWtBK1iMdbNdFhwk8QJ4dfGmvCV/Tw+ifSmjIEp2mH7WVrAHojYbayroOv8UWxPCPKrHmB4FWjSXzYeAQ1OvWkteJH0mziuwwdWms/wCjKvQxM0hnNBkN7lUMtkh1E/NaDv21UnMM/FyROaKXNkslkdNA6fbJE5s8WZsxuyLFRs1QJa3nJRHVA6fZWTJHnVAlu6e5KFEeuydrZRGBo5XXT61xDhiw62CxPtIMTUO4iSUCrRWEYHRE2WTmiJI2HWoihazk563W2wEzZImiOCuw1QJbIE0GQ/8AafnPK7wQcrGkASoMfZuBLE/FOQBPHZmYoD65eEE/FCcciI5OfSN+ykInNO3Lo9K4kNUa72UlMVgZpD4xYmH8eNSqw5j1qrOnKsPDn8L0GYHjM3rkSvYikZgMr6etYSmOlBtBZsbcjhfCnIyhDrHXxahMByiedTJ1qCjqyeBKd1Plqo41ieidfG5CCXWbKTvpTybpchyvPep0TPkfUqpMDvPpSJB42jgu/wDMQSjrqb3JMetxgAY48fSpAzNRg2ecYoIfa8bxOpJ8KgI86oFjvzM/nNSwMz5WCLUNYudvK9Qk32n+LCRHhz8+wFjvzM/nNWc9HnWIzquye3neYvbpQJ7YnpSUIgwnT28LASBI1SaHw/rtYSI8OfmsJtDQFhOPHvQiMRGJ1P8ANipI544vlrNjyx67sOlA+tgFGSM5/PWmSeh53AJMouLZlDt4WUSNZ58+fYIozLvpxZpsRnep4u+HgVQeaZFhNlkdnLwmkg0jMfHrYCTOM+tnA3PlUAxxE9O1naznj1/4oiYCMTqefW5kNmuNWEMTNOBzPPTimSIwxOq8ZuY48PrZFAJ01/2lAISNAAQFOCU6l4FHSMVpEL0KMUMu+9ehj2PbCiKkIyaellYROfX2h1XwKEAGKDBJY9E6UiAKggV7FXkTwAu6BCJ8LxOetjDJ3vE51PaigKaY1QEElRkR7FlYROXxsWHPXmoIFexeMx0gv/CFACD/AEarN4Ui5MC4kjDWYGKaQLxGLogsiqM9qLAmjAEFNRFAEBiqQB9pFUZ7VeQaDRFbwypyAujTU0jFIQYosCKpAH22YZ7UWBNBgRUbFgmbCZjNA0PtYThm8KT1oNC8Qn2VSCbxGOlFgR7KyDViRiiwILxGKhRTV1abqI1RYE0EgEVCimSpyDRIJLxCKLAj94//xAAvEAEAAgEEAgICAgEFAQACAwABEQAhMWFB8VHwodFxEIFwkSAwsWDBgEBQkNDh/9oACAEBAAE/EP79nQf09VEd5/irhJJ5FG6yeLMiTxgJHAnPysJwqfUBMGAUJ0Wh+KrmSZWJysBJLkqZa8twSEHUduGz/jHwFhM6VbmEckpgCNNYWkSSCASLV4wJ85g1bJTlmlCg0DiQma+0UIITyQMgDJpNL0i66B0UdRQMZuYlU4BKHKHmugY7ACVV0CrHtkw4KI6iCDJsckZWgiEkRwMkoSV3nN59M1USq8cl/osEZc0jjJTEDU+FIMAoHglxTwklpx4sYgBkm6lZLDlwv4LmwkRW2YBMFZiQsYGiMVBWcuDQiwaujcQDYNCmXSnhJLTjxYxADJNbMEglGGZIQQzn9O85vPpmqiVWWStZiwQK5pHGSppWjrDiYzOsGsWE4VPqAmDAKE6LRJ7MCdEk2SWMzSMvC2YCYQikgZapm4ukMwIMZljBQoHQvZMUgA5YYEpPGesbhiMxDSni8Z9oBYHVCQZSkM1LOGzSAcp0hnSw6pKQSQiSPmM6XOhXOlnCopLKQxCWEtmfcCy5ToGVLK2+3CwpJMhImjhqjnCkq6z/ALCZAQKxvpnico80U/VqAE5FUQCziKureIygCmPGymMMN83vpWdApCdCSDQewkVpCFkAmBR0haoqccUk64FW5FATBMmEjysGVFmENngsklBgiFYaFlYysSRo4FSEAgGoaSCxLyk8TJ4qc3qgJKv0ZeLhvMOFQ0rDM5GIoYhKdjAJgqMCyxgaQxR6G4MIjIiCIjkog5rSAuKHFLq71S/l+8K4wgSTANDEJTsYBMFRgWWMDZhyfhIE0rMJIZiKNld4p/EBcyUjMYoX0hUYYXDkYeFkqL/F4JqoRkCUMoVnyIgYjO4mFlivpockSkGEksA5aY5WywQJMJkUR11sH/yskgIkjwxmMNRf4vBNVCMgShlCyWbODSB5ER/72bIEpVkcwtVg5a0NeAklT805/nXeZ28gwhjAJQp9yZRK2mmrVQBNPqws1FCURAzo1sPJ2sjiFMDDw3Ey9dGQlYCsGgtW8XyoMEOtkZLU4kAgamEpQ7jCQqFZ5AxkgixdqUSdbBMSCEoYouRGkoNmygYyI6VDB4eGLhMMCiw0sjkkGqxxLmOJqjl1EKDmNQ0ASxc/XFcHBkFZGPyTYhEuIJVSIEmEBpKT3mTEAAAu9i7gDHUqNyAKJgpZo2kcpoCsxJOul0U8uFOiFCEsxYgy5ayVUYXEhZmaMMnyeIWdRZqKGs1QifMnXKBUzHUJkDJGJeZSAYciddLBLcIIOB8ohBMDgNLEIlxBKqRAkwgNDCQMlWhhLsXUgS4QMQlEyTD+K+5MolbTTVqoAmwUlUks4ZEyTEsRY3VuVlKMwjICKUmQ62JRRr1AOCjEE8jif0cjQITiBca3AQGqrzQCGNKQ0NEjFKhRBARipNscwwCyOqMHKM1LMhQCBImEkkoxYhsk6LJwyBnETZSe1XJWhp9GhhsPmhH8pc0gYBOYUz6QIlDkRxH+tTmQRRBFQQAatcHIxMxckSiv8KhAtAWAxiAcIQmCuSCM4hlFWXATKUxIaHMLAYSkEph2lntHVB0AuIzwrgrtm/pCCRjI9Y1ZMEhCaAYjTNDCktolUlAcpdCUMXRgMA1DQ5xqKV10bpDPdJCCZZydODwJLN8GG6UMgoXZgyEpJOoKCRoyuGQ4IhSgyRGuFOvCtIJkVMZAyVV7JiHwmAgwlMVbkhgiCVjKI1DC5pGjK4ZDgiFKDJEbILog1ksaKS8UZLA4wHGAZSCdGEKzD2vJwJAzEFgEg2J+WHJSjMIyAilhqTUSAOAgTqGJiy6uuGB5osKGETiLBfszGNERMoamIzXPFjAoEiQQlJRixPyw5KUZhGQEUonTlIUQLggcumv/AMasMHGvNg4TMLQvLSDiOV0iJycWTOTPLgCYAJUFCYSmfMIBGOUkOaoYNeGFIgrIYihATbacRAKTQmEpnzCARjlJDmhMRNtWBpgFmM5p50SjCsgkyYaTDqmgjiJARQIlzdiwWVvARl3qHa4TiJgkLGQYWgMcsspgFYhngx5qtCA76EMiURcIYKqsABlV4K8tUVDKgAMOk6V7wKCQ1pIxKDRWKQ/XTORhlUPEq08q3pbAgkfiwkVl5AjAsRJOp4XERPexgmFDlEgBzLoQGcckCIMJjcmq+QL4AQfIZ/NfIiz0DIRoD4Y1s5zkoyToSyZImatJykgM4YRiZkfFMA88YqECVrxoUTxigGkmo+SS51YsJEkIMfmMxTZiacEkSvZNweeVGNARAjH4dimQ4kjlDw/NeQQSoaoCi0l5JF0YAh1y+CzCuzDSgEiZsIFX6LGEJEGjWSA6VVSvKQPC2SwOJMHG4Jg8xS1EJkWQlmoyEmt1QBS0BjI5Y1JLMbKXCUQwap8yFEgoOLAiZhKZPPNFWiTiKEq4OM12zpSVY0kAKYZrBoHlgr4gUQAAEMZjKZi5Dof+BkAUzr+bkc4aYACSqaaa4s2A502GnjqHjIOrhDD/AOFU1hgAZGNZwQ4hfBck2dWGcg6xzRWoq8QiyY4eSpp+0CEiEcTOlI5UPDiYxhC/wtmJqlYqIyZ4jPioAla+QpGjAv5rn8H/AI/2EZCOEgYagiPKrdzwSoCADK5iDM1BksBkgpjLhjXOliVaYAGcMIxOo+LodL6moHwsIT4sUlvqnJHjUjezERSCGCPkMaNHaHIsAhQtJ4I2rjGMBokKEqpEYzjBg9Y0giYwuH8TNTU/SQc2UDqgAqgAzhPJioDi0hZMimmIIdcvgs7m8Q0IBImbyOD3AwUdAxNHU4QfJlkL+MeGzvkHSYCDMOFBCn0b4aLAwfLxdVjKYJYo8GRjJUEhcoxIEYYjG9QnzTQCaoQxjLigC9NJ0ACSmPLB5UShGuJ0HmlwUocpgFYhngx5s4pSrAFHE8XD+dLAUEokSBZcZpCooEpOX5MiYaOpwg+TLIX8Y8NUdLKczHESAigRLn/taZ24tmQlHA6aw1cksqw/gCyg/khAlpkFdOaAGdWe8GUGQTOLlWs2CclExoeYrgtqRwABSCzGtADOrPeDKDIJnFnD2HgnSMi0ENTPgi12gYwWD1OBYuQsEAMQIhBy6UuBZBEgsIyJ0nWyLdUEELC6BLXWiAp9TlUaJ0YpzH4eMZGq4TFiBmWY4w5GQbUbUAuhhEk01QGcTDUNH+SqADK2LkjVgPOOAxl5p4OsxlI8GGY1iylby9ahEIh0nE2JUSMugtkGRDoaTirdYo00TEhEVhiwcF4CQwkgGZMRVgzhef5RxMMeKYf0bCTgAROkSYmvdYuSZxIkCImuE7/wBkKkQmsOCo22nB0DSRMsZcVpKSCMjgmWIjWgwT1AAiOiN0jWAUBGAIzMpbDfGVbPAMo4Ir7KmMQiwcAL+pTwLuQEhmYuce/ARTZ8Mc1auEgCC1wlHmJ0p7clXewQlBXeIrFKk5AphAA4Fm4dZkisg4HU5NLLNjyEwEuUxgXUkUxGSCZOGEml98sqxEmFZYfKsp88EZEcjSJ6NHvAFwmHK6A8IyJBLQAkFjStkoIxBMhknE0JK1JJgxJhxcgYp5CRQjnk5iSsYUADVxZ0uEulwjkpQ74yKQHL58NidSbjE0LOFMTkAhEyswlGJTgRAQhGEM6a1N058gmTqPOaTspVGVgZcC/xQjREIj+P9aDCRCgmAyrpVBz6tkEK4I1cUmGlk1ANEkYHWDxYHQ0iEaoK54HSowQMSZxIkCImiBOLPyo5Mh/DW9ymnvFzkPwKOFQAm4ZkGYpwxNmoAYRyNU0V0H7IKoszrgc4nShi6kjxAAZTjCFNcskwT3+YiwGVyiARnWJ0YRlyfqQ6IzEBIZmLKiwhGHN/CqURuopAMDArpUypmyZ6iQlgPwV0+SJA3kOJURomsC7lQCdZCs58Jhrb8iL4TEhEVhirBPMRaTEwQMxm4XlC9a8GGY1r4IsxCwoxAyiIVmoQLLlIvAuklTHDEgDEYPCa0hMbqDwIUMAzDpixHWo1msKJcbKpRG6ikAwMCulyXdpBiBEJHLp/28tWmgAEiQ4y6R/+DCqGTNKnpsuGM6WXJnLVKuVWf/30DDIskqWk5wxtZGectUo5VZ/p+XaO9SBobulPckEYkLCxQq+YjFkDEoDJRWDAhO1HHGih5hzG+lZGIJCIqfEIkuMVDkco+Bq/xTgAzLkacjDo8NbAhnDqBtJdMOUcwTsSaVq8sCBwgJJ/i81ikiogY2g8V7bQsnLDU/mnTBQ5l8F4HX/ZgK8gEAwhoGtOEoRH48TkUxirfXgIOuWo8mKTe1ICDVkYfixedIZAwicQ+a3wnginSHmeIuJ4Kzc8NT+awYAw5lp+F4HWgBpRKvKAsb6VogA2YzB5OHB4a6ZmCGkk1H81XyDjYJG7rjWmUOKUp30YSKmlw6ZjIwnAmxbMLRmWGsK68aXWm8rggOeJYJnMRROcJgI1hLhmSaTYlkYE1Hw7XTSSl+ID/wAunMFo5BibPmnIZcccsGY3oiALqSKESpZxRgsL5cv+aH1dmZxTobNbrCBfIGqDKb0LbgQXg2SDJj+KdIjwQEyzo4cnij3yUkzgpksETNGZISUWOMYOP6XFeVxych2mKIdCUQQaYBOLlxxCYTZIQhGSGlULBlpwFURqImLnnbWShl/EEWSs5DhM3KDKJhKdzME4coaIJJ0jizoHBEiArBUOTPkmMhmAzEJmYzWuTBNWDXFJwzhomS0xUBONTwXez+GumBN0ALJMDFNyEgZnJLzlJ/2cj6hPNTyYBPFUkkzEVoUAoaMxmiqsHwkQBwcSYTFwUklmIsEcZQ5rnpjINYBHLGNHxZWy9QBFzEGrl4si61JiJugJZJgYpoQmDM5peYUmgoDlhoNGZnVOmPJsER30Hw5EmqWqILSygkMnjLMVuSIhWjRiA53r+tUGmmq4YTeOKsFCiapdIksiYMVyCsnN1QBMcMaSWZdwMWgnzKeKTcJmp4PeNPxRGcwxf8LLilXIRSC6AJJeUzU+bRmwJWgFCDzzQpKSNiYbPcjXRs850AK6ZxS3SCCIloWp5SNKpH1EXhQxLrzM0Q1TVoFjzfN/8ZQJGYCyrED5sD+mIGCGSSY/QCAA1x+kBEEcI0AIMFIAAMgk5/QsANYCP0AAAGgf7gEoAuqGtUUAuVDWx0oDypydPP6AAABoH6FgBrCTQMAHhP1DKCdJ/aFFBTSeKBgA8JQYAOolCCDB+uDccM0BCCb/ALQhAjRjJQMATw0AiCOo/sJQSwsZ/wCibnxdz4u58Xc+LufF3Pi7nxdz4u58Xc+LufF3Pi7nxdz4u58Xc+LufF3Pi7nxdz4u58Xc+LufF3Pi7nxdz4u58Xc+LufF3Pi7nxdz4u58Xc+LufF3Pi7nxdz4u58Xc+LufF3Pi7nxdz4u58Xc+LufF3Pi7nxdz4u58Xc+LufF3Pi7nxdz4u58Xc+LufF3Pi7nxdz4u58Xc+LufF3Pi7nxdz4u58Xc+LufF3Pi7nxdz4u58Xc+LufF3Pi7nxdz4u58Xc+LufF3Pi7nxdz4u58Xc+LufF3Pi7nxdz4u58Xc+LufF3Pi7nxdz4u58Xc+L2L6vYvq9i+r2L6vYvq9i+r2L6vYvq9i+r2L6vYvq9i+r2L6vYvq9i+r2L6vYvq9i+r2L6vYvq9i+r2L6vYvq9i+r2L6vYvq9i+r2L6vYvq9i+r2L6vYvq9i+r2L6vYvq9i+r2L6vYvq9i+r2L6vYvq9i+r2L6vYvq9i+r2L6vYvq9i+r2L6vYvq9i+r2L6vYvq9i+r2L6vYvq9i+r2L6vYvq9i+r2L6vYvq9i+r2L6vYvq9i+r2L6vYvq9i+r2L6vYvq9i+r2L6vYvq9i+r2L6vYvq9i+r2L6vYvq9i+r2L6vYvq9i+r2L6vYvq9i+r2L6vYvq9i+r2L6vYvq9i+r2L6vYvq9i+r2L6vYvq9i+r2L6//h8cCDKrAUwJNEZH+qC23SWyQlzO8WC+Iq0VJWIVOwSFOmTQJKCvYVRGRBcAQ8j/ALCH7GiZEGUwanB/rBPomMoEoCVDLqlG28LaYlCJI6UhprkRiWfgGaXKh4M5ykcjGjh/2Z1yFiVhsAnkQZoYMPk5hgVGREiKixQZ3xc2UnTLTlC6VByDgABMmAjx+yGmuRGJZ+AZpcqHgznKRyMaOH/WMhhNFUJnIiYNR/UNtd7ASSQuvj9TaFwkJwkuIJATEtlCKkQpHwDny0KCN+JVBmEOIjP9Lej8/wBHBgkyQoDlE/EbxcD7e0UTHhC8zPNX+RUg7sag83BxmVc0CSHCAsZjNJyBcT9YeNybqxzILBMTAv4E3oOBOskgMInN7++UMsAGVQMtYsfBJmwxf57V5akua48icqE5KkBQ+OJDXBUh1YcEpWmVZg7hI1o0yP0nkcbXVGI4RQcObELdIxApFUPJitfd/fxf3xQqTYawhrhKRMpxjnd3hW5ZLEULh4wqctDGHmLKvwY1YM2JBW6PKiw/Au1yX+A4E8iOEYRwliO1CCCaIz5uawgoErlNk5ExCOcVslSNJcjDDAUwkyP7HPtKukX5B4Cr9i4IETQAYMjJEQoPnkxDyJr+sUxycKiQXhCcxMNS8OCp5H+AVO7K4nCDVwkK3LJYihcPGFKqk48Scry6E5SzuAJDMTAD8DvFPNhU1IGERESjSQzlMUJakAS4gpVmYrjsHD/PauhB8R1w+CSsrbgD/K4N5FumChsUqIwhTGDT7qXbJYilMHGVS0CdjEUfSIgQjHW61D9YZmMlQURgONUOnCQJxM2Xe4IAspVGEFWCmyk7KEgWIeUpUxFirMo0z+hg5JAiEaXAqBKGTOVf8bqFluPIfAhP5DtU2ys0GJdCEmE5HRH+jWJbGkaR/KE7UVCTww3JyEipzIMYJnRwc01DyBUANAAAqWY6hPyJkw4WB1ogC4hRSZJSeYygBinJ30yQSwwk4l+SvPbEzjAmpcJkrL9e0GLwbaVctfqcmUgHIIH/AIKdtCAoyslvM/ggAuTMYBM0ApMGJWP3mM/GXXyDECQPDDHhDxV4UlJJ5kEQwyaLmY4cUYgIMTDGRvXHM2dMa6V5GLrc6ktHiIUAIgP0djbPJ03cCadYSTFkRYuPDGD/AMpeLXxBcXkDOsh0Kt6EUoTBh/NT4U421gyUudJgwBdFT+55B4TB4P2CYyBInIlWKqCC1SJ/AQ4CgJRbnLhCOAZhcBSW9LzLIDsIxkhjNflQxwEUmnjzDiucZ/ARJh3MlC6vZSXplYAM/o6lKAvssGBZ1ySYqw0x9UQvfBPFdWo4kMxuTJA6CHFDtyEoHpIKg4cHClw/GwFMQSCCjRGnCF5AZ0h1MiHjFcswrKDAQ4DXxSY4IF465Cf1HzK8ygNGESaCa2PIBIQQYxcJHySLlgIooIRV4I3M+5bLCHLynLEzkFKPUNWAwQkMJI4f9PTRVa2J9Y6wKjhDKZ0xjrhVgZi53lkqs3UgKQABECAxoj+kSAn8aqcKGNQQf+aQ8tCNWjVgKNZNCx6PkKlTwBYGKip/LIEnEfNXZGTIiP5kBzDQzAUFSgwiMzUIvBxRe4CTjSokFh3agPQkWNqm4oIuCPhiceEeaAkW5ctjaC8CsrU3kJIcYB2FkpZTMwBdVUA1VrACWeoaCajyEn8IlB4IgjhP1HSKyVYJJcfDOqg2MqIA8tQbzXBHP+USf6tFWURq8ig6BCywShyUyAJAyJS+1ktluZE/A6KCvwZtE8MDyB5rjIBmSc1SzZYIBlCADVWhXGrrEGE3P0dd0zaqIUMjNT1fqIi0xfQQjgKhzA831fhfaeP0WRBwrAoA/wAp/moQKCoBdX9x/feN9b53hNq8MKWw0mgAvlQEcWh/laCfysAcqH66cNOdpib9COtZJtEwiqGjqFobmVhcA6q8UUxFapQQRGZpwqfMQwECC6ZP6N/40K1Y/Bqjf/R/ED7k+T/mxv8AopsCSd6ycADGUAsFtwSBxKo3IbnNSUq1bKOVf+IpnJPAMRKMJKZwijrcsUYPkymaPk1zDZQzpRK8ISbESIC5NbTBpJKSAEkSFkFYiZZcCnV5Fc2aOpQplTIMAOHMplxPwiRCI4ROK21cr1iwFhOAh54svtjFhMlEhg/nYUMEWfMrEgCeSwkCH10RGFrEPI1oQYyqUQQTBlEYvOpt7Gz8p50oBKgBDMxOJ8yhMwks4sr/AB4oRHCg8YsfVhoyMQnGAADgL/lfzzrpvz/wzfszXOJjPTr+xGWotkLDIMEgdo1osA+L7wAP8RNPerFhM4Mt1GvkprlNCoAYAAApw6hzixiA4iTyLWZDmQhvjO7aYwTs4MUkKYk8EXnU29jZ+U86UeinGJMyHE+ZfwizScQZ8KS1RGImWdw89oJBBgCA4zLm/wCM9EtixwTrjS+qTeT8JL/OgazR4/maOSG4YgFQAgeXGRFVM0gQSskGBeVv+b3aETovyn8M3/glKZwP5GuNL8NPfeEeJPzf5sOE5jx/M3JOGTIxACAC6BIwJIrNJPUrgdNHdFP10FYkMYCeJg0IiHORPCvhLSSGMZKZOiNkLK1UpSKAY2UwXdg4T5FKeqhgaueS8on4r1olhJFBoy5NBiM/2DKolEJSBLu09CFQQmWDJz/8r9HejvR3o70d6O9HejvR3o70d6O9HejvR3o70d6O9HejvR3o70d6O9HejvR3o70d6O9HejvR3o70d6O9HejvR3o70d6O9HejvR3o70d6O9HejvR3o70d6O9HejvR3o70d6O9HejvR3o70d6O9HejvR3o70d6O9HejvR3o70d6O9HejvR3o70d6O9HejvR3o70d6O9HejvR3o70d6O9HejvR3o70d6O9HejvR3o70d6O9HejvR3o70d6O9HejvR3o70d6O9HejvR3o70d6O9HejvR3o70d6O9HejvR3o70d6O9HejvR3o70d6O9HejvR3o70d6O9HejvR3o70d6O9HejvR3o70d6O9HejvR3o70d6O9HejvR3o70d6O9HejvR3o70d6O9HejvR3o70d6O9HejvR3o70d6O9HejvR3o70d6O9Hej//ALOIFYSeVglf1mASCwThtJP1l1IWNI/CD+iBl5ONv7BKKSIITD5uJAvjk/x+P0QgggwLDpeo+l+Z1/L9Lpm5Rp/Hjf8A+jCSinaYAMt9u/8AKLkcwSJEc8n9ho4ESDV2uLIfRGWvlqHhCDpgmmTPIIZEQZ5fivrWVWClOXFNiMGUIMAf1CAn8z+fG3+P7CGRmOWEiPmsMABdJSKK0MxQBP8AhSki59m8ggcfj9jjasHL5fP9iQGR0kE0EgaAF/sQywJUwBZiBk+AuP0tZZNAxzHGCsO2Qwv+bkVEtawRq0id5/R+GWF/w+Hb+wUkh0uEWYZlIknj9DlsBMX8/wA05FcIg/MWfFT+QZx+f0xiTKjGw+//AKK1si60AnPj9HFFXcRNUiIdNZs7t2AvEJFlR3EPhTJ/H6XYLC4Tc/sHNjIiVCfizAaj1FXp/WY7hgw6z5zj8VdcQginJDczK55RMfgP0eizKoD/AMbf2ILUgibXe+m9znvEl1Z5/P8AY2LHI8aiJnWZf8WNZ4sPlDWmAJyMn9jDdROMITXTJMea5DpQTwF5kcZzNwpWZn+f7GdhGBDTUkfB/ivYWUY8iGKEhzycYg/EH9iaHXnr/C0IjSiRNn/RmDMQv8zUJOxGP+R/sEm7RM7AmGUlh1NXFR8JAGFkUkF0F04KFkRalpTwGQYkqmq1LSsbQU6axHNnHFMuYBOWEjX8P0SH1pHIHAuS65qgFMGswQwxKmcmE0oE6ATA5kRk0Quvg/sBomIxBIyYd7OOwB/kyCP5pVs8z6KDCgaYAjN0nOiT8/ne4ExRA4SVWkf/AOiLZyGRGIRoOsUVL6pCSICKpDJLUASJGdcwMlCCDT+yvQX0F9BfQX0F9BfQX0F9BfQX0F9BfQX0F9BfQX0F9BfQX0F9BfQX0F9BfQX0F9BfQX0F9BfQX0F9BfQX0F9BfQX0F9BfQX0F9BfQX0F9BfQX0F9BfQX0F9BfQX0F9BfQX0F9BfQX0F9BfQX0F9BfQX0F9BfQX0F9BfQX0F9BfQX0F9BfQX0F9BfQX0F9BfQX0F9BfQX0F9BfQX0F9BfQX0F9BfQX0F9BfQX0F9BfQXZeu12Xrtdl67XZeu12Xrtdl67XZeu12Xrtdl67XZeu12Xrtdl67XZeu12Xrtdl67XZeu12Xrtdl67XZeu12Xrtdl67XZeu12Xrtdl67XZeu12Xrtdl67XZeu12Xrtdl67XZeu12Xrtdl67XZeu12Xrtdl67XZeu12Xrtdl67XZeu12Xrtdl67XZeu12Xrtdl67XZeu12Xrtdl67XZeu12Xrtdl67XZeu12Xrtdl67XZeu12Xrtdl67XZeu12Xrtdl67XZeu12Xrtdl67XZeu12Xrtdl67XZeu12Xrtdl67XZeu12Xrtdl67XZeu12Xrtdl67XZeu12Xrtdl67XZeu12Xrtdl67XZeu12Xrtdl67XZeu12Xrtdl67XZeu12Xrtdl67XZeu12Xrtdl67XZeu12Xrtdl67XZeu12Xrtdl67XZeu3/AEGJUtob0dSRiqtIoKLoExMTB+Kj4H+YCMCXMFiYok0INBFxlM349qOQyfzXpUYVU41BKIwxUCBCN+AMn8/o8Xuxo41/llDjIhke/kAh4H6wotamTck2JlwU0HR5pIBHgUAzE4sZNBKFOYIEF0ImgYGmFxGwQiBzkYsfV7IZIkyEAoHQTkUhfAZLncyPkQigCylXOGT7DpjHI6LyK5iPojwbsRXlSBd6YAQABHAxRVOmCQyTmAHlKqWISOlyMu8xRGhZH9QExPSHPNCRA8w3dJkBdPaVR4ZlJYTE4aiQCTZNLDCQOOZp66gdfUasuXNWnDBCRrrSHSzTPxKaZrMA04mc05wQKwltCUXI10xYlvkrCAYEQEZCGSGNehEljLBpPj/WAIyhABqtjBOoqJEPCCFRKMUGeM0iRlAOSMRFhTMkvBUk7XWBM4xMJzkOE1oFUk03lXBcSJdBQqyMRA+ajMhwwoUzGEq6zULHsOIjMQzRrRSVI5RE8+G1TQHpSzWhAIgMvjWxK14L5PIyZLFVGMrIkhxJnNSFqUI6wOTcs5JFzxAWH8/oUlSOURPPhtQEQDIisDGsb0BTDCQNVGieLkKQRBKwEu9+EeqkMn83a2GogUS2CMKQeSmI3snvRNwySkgxOlXgkjEfEnOSzkkXPEBYfz+pOC02Oo2MDPmvQSAz+UClQgIA6ImpVLzKeEE2Mq86wsBkOdE2/KwNJt1qKXO7ENCx14YWT+Sj0qkMcMEgNHkoQYM8JO0VDDhw4xWQ+LRkQ5yIZNSKKI4SXkWT+T9ZfZ/mQGX+K1wegYNjAIFGIkmC2GGnJcgmaSOcGnNma1IzKgBGAgDlM3d5dPRIfMzEzT6XMJEa4KWbqCl8hnDcoHxJJ1QAqA4EuGj1lJWKuACGpiYlGr+4xJgIFQsDzip7OMgwpMDOIuGIzWAQlDMkeZqHwhMvAGT+a2VlAm/gkT/FcDcScTpkhUImUNNpIxG83Ls4yn4lJ/2pA13ctrQgHAICzwf1POHEqEJB0RAgRxCgFDBAcYDSKWRowjmwCHyJhks8rMZxxcyOaaEvFYWAwZ4chNNBhWf0kibVHpoh5jnWaVcrVaZSUEYwbikDIPATLMMkrJJYf9eTjkOVwHKBzSUJjPcwFgjPiSTNe6YjMokqJAZMJQ3qWMojk3MIaDLVsihJ/hCZBy4JrvWkkLgtE8atyXVdCiZM8MND8CiRlFgAJgAAuoXn4ytgFpCQLgUJRMIRM6OiQrDcSnAAoXM3vGUa14pFMk8HigK6CUohyIpU/rQuo/llb8Cn90vg2jjsJBlOBaPdcAw3EygjJwVTBqPsZbMrKToTgslDmQJNCY0mCh33+wXAckSFxE4ubmy6caREALBM4JogvAUxMnQS8oTLJCSohIjoj/rNRBQaypfxNAbgR6SCAYcjOpLJ7vfCJGZmByOlJm5KyPAkAgctYaJWi645MgLCEqmZqKSlhrq4ZSDBSM05mZiCB5QIBrLlqAm7c+UWoApOK2aB98UmYgiUNWC6ygIX5VZgOlMBitholQ1YgGhKHSslpxJ8YAYMILji42BOTkA7jYKtvcMIwuSmBa3I0jzxViiSoopnMrrKAhflVmA6UwGLIEYFIJRsTZ9vhlYJqIjNReHnlDNSZMTmxqdtnUOAwshZhYwPeGc4ZoWIiRAmKv2a5ggSR6BJQYwzrZR0kaEgdCSwxVEaWDJSDOSuIcOC5GkeeKsUSVFFM5loUv8AJCMcyiDzFjFXakI78oocCERUaqzEasSMwlCZaI3VCbAuZOTGkCD9AljccTPcOAhTizSzye3yIgC47+AoDfBBAwItMj4RIlDhExFl5vmUxYEqGCHdWRyTIsGkdJCUgsUcdWOhZYojLoEIstgx4smvqYSvMhWAElMiYeJmBGRxV2QqLkTlkDECziZa6UacKEleBAL4aMulCUoSJkOkJyIKxQwHaAiSMI1gp1FGBEzmEYwuTTA14FIDRBwlABi+Vd1OAI5AzDkq1OfPGFCIhgogSEFV2wlYDAhPKSGqSojPq6K2J9SRMy0BZiSqErkRLwARSE48B5fES5FdXFL6AeBCGEeASVc2NYoW2gAWEuWTloEknsMYkSIrwAiGxoIksAEJDkJPP/aQMmMKIphBRHCNMbpocgAADAGKFWg+hkBCAqnhbD73NRyomc63Cq8bZmAFJz+c0c0QroAEsADLGKUNEK91EDDEx5/SHn/JyQEplWV1ulUnXYmmFhkSa19OwxqwhLBKlYM/qbkQJ8KJXds+Z5MMAJMYEJOLkJ8o6YEiYNS4EKS00BkEcQY4pXxSQmiRKN1qejObsqFT5aWi41DIhKTmGhAMgSI6iWZB9VLMQgSzhO9IsNweUQkFUlEq13wJDUSGjCCSYQoQGIj+LL8oicxXQlIHmZE5c5F2jPvAAibNAxKgg6kBjbSuUMV8JCeCVK+aJRhSNkgSDmTE15WjJJUaiqrlWg3wKOTIQFBSQX9CDE/CBEADABiP9ib4JKTwgofiuFBwJLM/zAdNSs1KjYIAYUFOUFouVRFnMSHNyHLM0uZ6MIIiBAiDEYooKjJpsoazwSrE3IusRk1x/wAERXOGnOAhCgCGoEzF11Wu9MrqOWdXWgN0cwQIEGFPwpdEmAVAQkBAEGMFfSDbGExEMAdDBdgX7yBAGXAWaHkl51wHPPn9a6rXemV1HLOrrcrFJpSIkE5jSw6SJRQASoJWWKShJBCEomWMa+Lof94ZmAFJzHnNcWcEg5wsTBMa0a7gWAQSYBpBijPkMYRDIkYZGbh6uByJQAsctmh5JedcBzz5/RM2Z6rAXaGXAdc1QpYbuABBy51qYuQDLqwBO9CBBaQcxzK0GThp6TDENDUJ5jWiVgCkMPISwLBLWzzoNI0wVkeHShqcAeVYyCqEwK0TBDqSDLmRjXQCtGZ8nJASmVZXWqnuYFy/+wT+i4wAFGSGJHGccUIEjCIOg4k501zWjGA9mjAS7v6CT4IUNCQptpcGi4CskhgeIqcOV6UhQAqctIRIVAAjEgAxhB1qGGYHmUJ0jCSYaySWUpiWFiYJjWiZKJGEI0QImDl81QpYbuABBy51p9iB8g4IIIxMg0QwgsAAUmIBhJAmjv2F/rAsxnTSwFEwYkEohBpGlULQSidwRNlzySKtUAlwZc/3j//Z&quot;,&quot;width&quot;:&quot;1600&quot;,&quot;height&quot;:&quot;900&quot;,&quot;x&quot;:0,&quot;y&quot;:0}" math="0" shadow="0">
      <root>
        <mxCell id="0" />
        <mxCell id="1" parent="0" />
        <mxCell id="WV1jQ3U8nWeAeeHxzuWc-3" value="" style="rounded=1;whiteSpace=wrap;html=1;" parent="1" vertex="1">
          <mxGeometry x="30" y="370" width="900" height="470" as="geometry" />
        </mxCell>
        <mxCell id="WV1jQ3U8nWeAeeHxzuWc-2" value="" style="rounded=1;whiteSpace=wrap;html=1;strokeWidth=3;arcSize=10;" parent="1" vertex="1">
          <mxGeometry x="30" y="520" width="540" height="320" as="geometry" />
        </mxCell>
        <mxCell id="WV1jQ3U8nWeAeeHxzuWc-1" value="" style="rounded=1;whiteSpace=wrap;html=1;fillColor=none;strokeColor=#6c8ebf;strokeWidth=3;" parent="1" vertex="1">
          <mxGeometry x="30" y="640" width="300" height="200" as="geometry" />
        </mxCell>
        <mxCell id="3O3FnVvdh0Ay6GOKwwGA-1" value="&lt;b&gt;&lt;font style=&quot;font-size: 14px;&quot;&gt;Materiau / Procédé&lt;/font&gt;&lt;/b&gt;" style="rounded=1;whiteSpace=wrap;html=1;fillColor=#dae8fc;strokeColor=#6c8ebf;" parent="1" vertex="1">
          <mxGeometry x="50" y="620" width="160" height="30" as="geometry" />
        </mxCell>
      </root>
    </mxGraphModel>
  </diagram>
</mxfile>
